<svg xmlns="http://www.w3.org/2000/svg" xmlns:xlink="http://www.w3.org/1999/xlink" xmlns:lucid="lucid" width="1722.9" height="1140"><g transform="translate(-140 -60)" lucid:page-tab-id="0_0"><path d="M475.2 645.02c2.65-2 6.95-2 9.6 0l70.4 52.8c2.65 2 2.65 5.2 0 7.2l-70.4 52.8c-2.65 2-6.95 2-9.6 0l-70.4-52.8c-2.65-2-2.65-5.2 0-7.2z" stroke="#3a414a" fill="#edf5ff"/><use xlink:href="#a" transform="matrix(1,0,0,1,405,646.4173228346453) translate(27.561728395061735 46.111111111111114)"/><use xlink:href="#b" transform="matrix(1,0,0,1,405,646.4173228346453) translate(96.51234567901234 46.111111111111114)"/><use xlink:href="#c" transform="matrix(1,0,0,1,405,646.4173228346453) translate(22.623456790123456 72.77777777777777)"/><path d="M797.6 405.02c2.65-2 6.95-2 9.6 0l70.4 52.8c2.65 2 2.65 5.2 0 7.2l-70.4 52.8c-2.65 2-6.95 2-9.6 0l-70.4-52.8c-2.65-2-2.65-5.2 0-7.2z" stroke="#3a414a" fill="#edf5ff"/><use xlink:href="#d" transform="matrix(1,0,0,1,727.4035129825702,406.41732283464535) translate(14.567901234567898 46.111111111111114)"/><use xlink:href="#e" transform="matrix(1,0,0,1,727.4035129825702,406.41732283464535) translate(68.82716049382717 46.111111111111114)"/><use xlink:href="#f" transform="matrix(1,0,0,1,727.4035129825702,406.41732283464535) translate(115.67901234567901 46.111111111111114)"/><use xlink:href="#g" transform="matrix(1,0,0,1,727.4035129825702,406.41732283464535) translate(7.160493827160494 72.77777777777777)"/><use xlink:href="#h" transform="matrix(1,0,0,1,727.4035129825702,406.41732283464535) translate(39.25925925925926 72.77777777777777)"/><path d="M641.7 695.48l-.87 3.22-2.34 2.35-3.23.87H558.1v-1h77.04l2.83-.77 1.96-1.96.77-2.85V592.08h1zm66.72-233.56h-61.15l-2.84.76-1.96 1.97-.77 2.83v103.27h-1v-103.4l.87-3.22 2.34-2.34 3.24-.88h61.28z" stroke="#3a414a" stroke-width=".05" fill="#3a414a"/><path d="M558.1 701.92h-.42l-.17-1h.6z" fill="#3a414a"/><path d="M558.13 701.94h-.47l-.18-1.05h.65zm-.6-1l.17.95h.38v-.96z" stroke="#3a414a" stroke-width=".05" fill="#3a414a"/><path d="M723.2 461.42l-14.28 4.63v-9.27z" fill="#3a414a"/><path d="M724.8 461.42l-16.38 5.32V456.1zm-15.38 3.94l12.15-3.94-12.15-3.95z" stroke="#3a414a" stroke-width=".05" fill="#3a414a"/><use xlink:href="#i" transform="matrix(1,0,0,1,625.8931145159764,570.7506561679787) translate(0 14.222222222222223)"/><path d="M797.6 945.02c2.65-2 6.95-2 9.6 0l70.4 52.8c2.65 2 2.65 5.2 0 7.2l-70.4 52.8c-2.65 2-6.95 2-9.6 0l-70.4-52.8c-2.65-2-2.65-5.2 0-7.2z" stroke="#3a414a" fill="#edf5ff"/><use xlink:href="#j" transform="matrix(1,0,0,1,727.4035129825702,946.4173228346452) translate(23.832160493827164 52.15277777777778)"/><use xlink:href="#k" transform="matrix(1,0,0,1,727.4035129825702,946.4173228346452) translate(85.49882716049382 52.15277777777778)"/><use xlink:href="#l" transform="matrix(1,0,0,1,727.4035129825702,946.4173228346452) translate(49.69635802469136 78.81944444444446)"/><path d="M641.7 995.35l.77 2.84 1.96 1.95 2.84.77h61.15v1h-61.28l-3.23-.87-2.33-2.35-.87-3.22v-133.4h1zm-3.2-293.56l2.33 2.33.87 3.22v133.4h-1V707.48l-.77-2.83-1.96-1.97-2.83-.76H558.1v-1h77.17z" stroke="#3a414a" stroke-width=".05" fill="#3a414a"/><path d="M558.1 701.92h-.42l-.17-1h.6z" fill="#3a414a"/><path d="M558.13 701.94h-.47l-.18-1.05h.65zm-.6-1l.17.95h.38v-.96z" stroke="#3a414a" stroke-width=".05" fill="#3a414a"/><path d="M723.2 1001.42l-14.28 4.63v-9.27z" fill="#3a414a"/><path d="M724.8 1001.42l-16.38 5.32V996.1zm-15.38 3.94l12.15-3.94-12.15-3.95z" stroke="#3a414a" stroke-width=".05" fill="#3a414a"/><use xlink:href="#m" transform="matrix(1,0,0,1,629.3992873554827,840.7506561679787) translate(0 14.222222222222223)"/><path d="M1054.93 1001.92H880.5v-1h174.43zm166.77-11.88h-1v-47.96h1zm324.32-128.12h-318.75l-2.84.76-1.96 1.97-.77 2.83v53.27h-1v-53.4l.87-3.22 2.34-2.34 3.24-.88h318.88z" stroke="#3a414a" stroke-width=".05" fill="#3a414a"/><path d="M880.5 1001.92h-.42l-.17-1h.6z" fill="#3a414a"/><path d="M880.54 1001.94h-.48l-.18-1.05h.66zm-.6-1l.16.95h.4v-.96z" stroke="#3a414a" stroke-width=".05" fill="#3a414a"/><path d="M1560.8 861.42l-14.28 4.63v-9.27z" fill="#3a414a"/><path d="M1562.4 861.42l-16.38 5.32V856.1zm-15.38 3.94l12.15-3.94-12.15-3.95z" stroke="#3a414a" stroke-width=".05" fill="#3a414a"/><use xlink:href="#n" transform="matrix(1,0,0,1,1141.8931145159765,920.7506561679787) translate(0 14.222222222222223)"/><use xlink:href="#o" transform="matrix(1,0,0,1,1141.8931145159765,920.7506561679787) translate(25.679012345679016 14.222222222222223)"/><path d="M1054.93 1001.92H880.5v-1h174.43zm491.1-1.42h-158.56v-1h158.55z" stroke="#3a414a" stroke-width=".05" fill="#3a414a"/><path d="M880.5 1001.92h-.42l-.17-1h.6z" fill="#3a414a"/><path d="M880.54 1001.94h-.48l-.18-1.05h.66zm-.6-1l.16.95h.4v-.96z" stroke="#3a414a" stroke-width=".05" fill="#3a414a"/><path d="M1560.8 1000l-14.28 4.64v-9.28z" fill="#3a414a"/><path d="M1562.4 1000l-16.38 5.32v-10.64zm-15.38 3.95l12.15-3.95-12.15-3.95z" stroke="#3a414a" stroke-width=".05" fill="#3a414a"/><use xlink:href="#p" transform="matrix(1,0,0,1,1054.9301515530135,990.0419947506559) translate(0 14.222222222222223)"/><use xlink:href="#q" transform="matrix(1,0,0,1,1054.9301515530135,990.0419947506559) translate(15.308641975308644 14.222222222222223)"/><use xlink:href="#r" transform="matrix(1,0,0,1,1054.9301515530135,990.0419947506559) translate(153.1851851851852 14.222222222222223)"/><use xlink:href="#s" transform="matrix(1,0,0,1,1054.9301515530135,990.0419947506559) translate(170.9135802469136 14.222222222222223)"/><use xlink:href="#t" transform="matrix(1,0,0,1,1054.9301515530135,990.0419947506559) translate(196.5925925925926 14.222222222222223)"/><path d="M1221.7 1133.93l.77 2.84 1.96 1.96 2.84.77h318.75v1h-318.88l-3.23-.87-2.33-2.34-.87-3.23v-52.7h1zm0-73.9h-1v-48.65h1zm-341.2-58.1v-1h174.43v1z" stroke="#3a414a" stroke-width=".05" fill="#3a414a"/><path d="M880.5 1001.92h-.42l-.17-1h.6z" fill="#3a414a"/><path d="M880.54 1001.94h-.48l-.18-1.05h.66zm-.6-1l.16.95h.4v-.96z" stroke="#3a414a" stroke-width=".05" fill="#3a414a"/><path d="M1560.8 1140l-14.28 4.64v-9.28z" fill="#3a414a"/><path d="M1562.4 1140l-16.38 5.32v-10.64zm-15.38 3.95l12.15-3.95-12.15-3.95z" stroke="#3a414a" stroke-width=".05" fill="#3a414a"/><use xlink:href="#p" transform="matrix(1,0,0,1,1145.5721268616555,1060.041994750656) translate(0 14.222222222222223)"/><use xlink:href="#t" transform="matrix(1,0,0,1,1145.5721268616555,1060.041994750656) translate(15.308641975308644 14.222222222222223)"/><path d="M1786.9 821.42c30.93 0 56 17.9 56 40s-25.07 40-56 40h-168c-30.92 0-56-17.9-56-40s25.08-40 56-40z" stroke="#3a414a" fill="#e3fae3"/><use xlink:href="#u" transform="matrix(1,0,0,1,1567.9036877748551,826.4173228346453) translate(41.29629629629632 39.65277777777778)"/><path d="M1786.9 960c30.93 0 56 17.9 56 40s-25.07 40-56 40h-168c-30.92 0-56-17.9-56-40s25.08-40 56-40z" stroke="#3a414a" fill="#fff"/><use xlink:href="#v" transform="matrix(1,0,0,1,1567.9036877748551,964.9999999999999) translate(1.8827160493827648 39.65277777777778)"/><path d="M1786.9 1100c30.93 0 56 17.9 56 40s-25.07 40-56 40h-168c-30.92 0-56-17.9-56-40s25.08-40 56-40z" stroke="#3a414a" fill="#fff0f0"/><use xlink:href="#w" transform="matrix(1,0,0,1,1567.9036877748551,1105) translate(33.27160493827162 39.65277777777778)"/><path d="M1786.9 660c30.93 0 56 17.9 56 40s-25.07 40-56 40h-168c-30.92 0-56-17.9-56-40s25.08-40 56-40z" stroke="#3a414a" fill="#fff0f0"/><use xlink:href="#x" transform="matrix(1,0,0,1,1567.9036877748551,665) translate(-3.086419753086375 39.44444444444444)"/><path d="M977.3 461.8l2.33 2.33.87 3.22v226.58l.77 2.84 1.96 1.96 2.84.77h104.04v1H985.94l-3.22-.87-2.33-2.34-.87-3.23v-226.6l-.77-2.82-1.96-1.97-2.84-.76H880.5v-1h93.57zM1546 699.5v1h-432.3v-1z" stroke="#3a414a" stroke-width=".05" fill="#3a414a"/><path d="M880.5 461.92h-.42l-.17-1h.6z" fill="#3a414a"/><path d="M880.54 461.94h-.48l-.18-1.05h.66zm-.6-1l.16.95h.4v-.96z" stroke="#3a414a" stroke-width=".05" fill="#3a414a"/><path d="M1560.8 700l-14.28 4.64v-9.28z" fill="#3a414a"/><path d="M1562.4 700l-16.38 5.32v-10.64zm-15.38 3.95l12.15-3.95-12.15-3.95z" stroke="#3a414a" stroke-width=".05" fill="#3a414a"/><use xlink:href="#m" transform="matrix(1,0,0,1,1090.1079487728052,689.3333333333334) translate(0 14.222222222222223)"/><path d="M1155.2 203.6c2.65-2 6.95-2 9.6 0l70.4 52.8c2.65 2 2.65 5.2 0 7.2l-70.4 52.8c-2.65 2-6.95 2-9.6 0l-70.4-52.8c-2.65-2-2.65-5.2 0-7.2z" stroke="#3a414a" fill="#edf5ff"/><use xlink:href="#y" transform="matrix(1,0,0,1,1085,205) translate(34.96913580246913 46.111111111111114)"/><use xlink:href="#z" transform="matrix(1,0,0,1,1085,205) translate(20.123456790123456 72.77777777777777)"/><path d="M981.7 455.48l-.87 3.22-2.34 2.35-3.23.87H880.5v-1h94.64l2.83-.77 1.96-1.96.77-2.85v-83.97h1zm84.32-194.98h-78.75l-2.84.77-1.96 1.96-.77 2.84v83.97h-1v-84.1l.87-3.23 2.34-2.33 3.24-.87h78.88z" stroke="#3a414a" stroke-width=".05" fill="#3a414a"/><path d="M880.5 461.92h-.42l-.17-1h.6z" fill="#3a414a"/><path d="M880.54 461.94h-.48l-.18-1.05h.66zm-.6-1l.16.95h.4v-.96z" stroke="#3a414a" stroke-width=".05" fill="#3a414a"/><path d="M1080.8 260l-14.28 4.64v-9.28z" fill="#3a414a"/><path d="M1082.4 260l-16.38 5.32v-10.64zm-15.38 3.95l12.15-3.95-12.15-3.95z" stroke="#3a414a" stroke-width=".05" fill="#3a414a"/><use xlink:href="#i" transform="matrix(1,0,0,1,965.8931145159764,350.041994750656) translate(0 14.222222222222223)"/><path d="M1786.9 80c30.93 0 56 17.9 56 40s-25.07 40-56 40h-168c-30.92 0-56-17.9-56-40s25.08-40 56-40z" stroke="#3a414a" fill="#e3fae3"/><use xlink:href="#A" transform="matrix(1,0,0,1,1567.9036877748551,85) translate(53.64197530864199 39.65277777777778)"/><path d="M1786.9 360c30.93 0 56 17.9 56 40s-25.07 40-56 40h-168c-30.92 0-56-17.9-56-40s25.08-40 56-40z" stroke="#3a414a" fill="#fff0f0"/><use xlink:href="#B" transform="matrix(1,0,0,1,1567.9036877748551,365) translate(45.61728395061729 39.65277777777778)"/><path d="M1786.9 220c30.93 0 56 17.9 56 40s-25.07 40-56 40h-168c-30.92 0-56-17.9-56-40s25.08-40 56-40z" stroke="#3a414a" fill="#fff3d9"/><use xlink:href="#C" transform="matrix(1,0,0,1,1567.9036877748551,225) translate(29.62962962962966 39.65277777777778)"/><path d="M1384.74 260.5H1238.1v-1h146.64zm15.76-11.17h-1v-48.66h1zm145.52-128.83h-139.95l-2.84.77-1.96 1.96-.77 2.84v53.26h-1v-53.4l.87-3.22 2.34-2.33 3.23-.87h140.1z" stroke="#3a414a" stroke-width=".05" fill="#3a414a"/><path d="M1238.1 260.5h-.42l-.17-1h.6z" fill="#3a414a"/><path d="M1238.13 260.52h-.47l-.18-1.04h.65zm-.6-1l.17.96h.38v-.96z" stroke="#3a414a" stroke-width=".05" fill="#3a414a"/><path d="M1560.8 120l-14.28 4.64v-9.28z" fill="#3a414a"/><path d="M1562.4 120l-16.38 5.32v-10.64zm-15.38 3.95l12.15-3.95-12.15-3.95z" stroke="#3a414a" stroke-width=".05" fill="#3a414a"/><use xlink:href="#D" transform="matrix(1,0,0,1,1382.7407407407406,179.33333333333334) translate(0 14.222222222222223)"/><path d="M1384.74 260.5H1238.1v-1h146.64zm161.28 0h-130.76v-1h130.76z" stroke="#3a414a" stroke-width=".05" fill="#3a414a"/><path d="M1238.1 260.5h-.42l-.17-1h.6z" fill="#3a414a"/><path d="M1238.13 260.52h-.47l-.18-1.04h.65zm-.6-1l.17.96h.38v-.96z" stroke="#3a414a" stroke-width=".05" fill="#3a414a"/><path d="M1560.8 260l-14.28 4.64v-9.28z" fill="#3a414a"/><path d="M1562.4 260l-16.38 5.32v-10.64zm-15.38 3.95l12.15-3.95-12.15-3.95z" stroke="#3a414a" stroke-width=".05" fill="#3a414a"/><g><use xlink:href="#E" transform="matrix(1,0,0,1,1384.7407407407406,249.33333333333334) translate(0 14.222222222222223)"/></g><path d="M1400.5 393.93l.77 2.84 1.96 1.96 2.84.77h139.95v1h-140.1l-3.2-.87-2.35-2.34-.87-3.23v-53.4h1zm0-74.6h-1v-48.66h1zm-162.4-58.83v-1h146.64v1z" stroke="#3a414a" stroke-width=".05" fill="#3a414a"/><path d="M1238.1 260.5h-.42l-.17-1h.6z" fill="#3a414a"/><path d="M1238.13 260.52h-.47l-.18-1.04h.65zm-.6-1l.17.96h.38v-.96z" stroke="#3a414a" stroke-width=".05" fill="#3a414a"/><path d="M1560.8 400l-14.28 4.64v-9.28z" fill="#3a414a"/><path d="M1562.4 400l-16.38 5.32v-10.64zm-15.38 3.95l12.15-3.95-12.15-3.95z" stroke="#3a414a" stroke-width=".05" fill="#3a414a"/><g><use xlink:href="#F" transform="matrix(1,0,0,1,1384.7407407407406,319.3333333333333) translate(0 14.222222222222223)"/></g><path d="M160 647.42c0-3.32 2.7-6 6-6h148c3.3 0 6 2.68 6 6v108c0 3.3-2.7 6-6 6H166c-3.3 0-6-2.7-6-6z" stroke="#5e5e5e" stroke-width="3" fill="#cfe4ff"/><g><use xlink:href="#G" transform="matrix(1,0,0,1,172,653.4173228346453) translate(43.95679012345679 53.77777777777778)"/></g><path d="M322.5 701.42h61.4" stroke="#5e5e5e" stroke-width="2" fill="none"/><path d="M322.53 702.42h-1.03v-2h1.03z" stroke="#5e5e5e" stroke-width=".05" fill="#5e5e5e"/><path d="M399.17 701.42l-14.27 4.63v-9.27z" stroke="#5e5e5e" stroke-width="2" fill="#5e5e5e"/><defs><path fill="#3a414a" d="M240 0l2-218c-23 76-54 145-80 218h-23L58-218 59 0H30v-248h44l77 211c21-75 51-140 76-211h43V0h-30" id="H"/><path fill="#3a414a" d="M205 0l-28-72H64L36 0H1l101-248h38L239 0h-34zm-38-99l-47-123c-12 45-31 82-46 123h93" id="I"/><path fill="#3a414a" d="M63-220v92h138v28H63V0H30v-248h175v28H63" id="J"/><path fill="#3a414a" d="M212-179c-10-28-35-45-73-45-59 0-87 40-87 99 0 60 29 101 89 101 43 0 62-24 78-52l27 14C228-24 195 4 139 4 59 4 22-46 18-125c-6-104 99-153 187-111 19 9 31 26 39 46" id="K"/><g id="a"><use transform="matrix(0.06172839506172839,0,0,0.06172839506172839,0,0)" xlink:href="#H"/><use transform="matrix(0.06172839506172839,0,0,0.06172839506172839,18.456790123456788,0)" xlink:href="#I"/><use transform="matrix(0.06172839506172839,0,0,0.06172839506172839,33.2716049382716,0)" xlink:href="#J"/><use transform="matrix(0.06172839506172839,0,0,0.06172839506172839,46.79012345679012,0)" xlink:href="#K"/></g><path fill="#3a414a" d="M18-27v-27l151-64-151-65v-27l175 74v36" id="L"/><path fill="#3a414a" d="M18-150v-26h174v26H18zm0 90v-26h174v26H18" id="M"/><g id="b"><use transform="matrix(0.06172839506172839,0,0,0.06172839506172839,0,0)" xlink:href="#L"/><use transform="matrix(0.06172839506172839,0,0,0.06172839506172839,12.962962962962962,0)" xlink:href="#M"/></g><path fill="#cc4e00" d="M59-47c-2 24 18 29 38 22v24C64 9 27 4 27-40v-127H5v-23h24l9-43h21v43h35v23H59v120" id="N"/><path fill="#cc4e00" d="M106-169C34-169 62-67 57 0H25v-261h32l-1 103c12-21 28-36 61-36 89 0 53 116 60 194h-32v-121c2-32-8-49-39-48" id="O"/><path fill="#cc4e00" d="M-5 72V49h209v23H-5" id="P"/><path fill="#cc4e00" d="M141-36C126-15 110 5 73 4 37 3 15-17 15-53c-1-64 63-63 125-63 3-35-9-54-41-54-24 1-41 7-42 31l-33-3c5-37 33-52 76-52 45 0 72 20 72 64v82c-1 20 7 32 28 27v20c-31 9-61-2-59-35zM48-53c0 20 12 33 32 33 41-3 63-29 60-74-43 2-92-5-92 41" id="Q"/><path fill="#cc4e00" d="M114-163C36-179 61-72 57 0H25l-1-190h30c1 12-1 29 2 39 6-27 23-49 58-41v29" id="R"/><path fill="#cc4e00" d="M100-194c63 0 86 42 84 106H49c0 40 14 67 53 68 26 1 43-12 49-29l28 8c-11 28-37 45-77 45C44 4 14-33 15-96c1-61 26-98 85-98zm52 81c6-60-76-77-97-28-3 7-6 17-6 28h103" id="S"/><path fill="#cc4e00" d="M63-220v92h138v28H63V0H30v-248h175v28H63" id="T"/><path fill="#cc4e00" d="M212-179c-10-28-35-45-73-45-59 0-87 40-87 99 0 60 29 101 89 101 43 0 62-24 78-52l27 14C228-24 195 4 139 4 59 4 22-46 18-125c-6-104 99-153 187-111 19 9 31 26 39 46" id="U"/><g id="c"><use transform="matrix(0.06172839506172839,0,0,0.06172839506172839,0,0)" xlink:href="#N"/><use transform="matrix(0.06172839506172839,0,0,0.06172839506172839,6.172839506172839,0)" xlink:href="#O"/><use transform="matrix(0.06172839506172839,0,0,0.06172839506172839,18.51851851851852,0)" xlink:href="#P"/><use transform="matrix(0.06172839506172839,0,0,0.06172839506172839,30.864197530864196,0)" xlink:href="#Q"/><use transform="matrix(0.06172839506172839,0,0,0.06172839506172839,43.20987654320987,0)" xlink:href="#R"/><use transform="matrix(0.06172839506172839,0,0,0.06172839506172839,50.55555555555555,0)" xlink:href="#S"/><use transform="matrix(0.06172839506172839,0,0,0.06172839506172839,62.90123456790123,0)" xlink:href="#Q"/><use transform="matrix(0.06172839506172839,0,0,0.06172839506172839,75.24691358024691,0)" xlink:href="#T"/><use transform="matrix(0.06172839506172839,0,0,0.06172839506172839,88.76543209876543,0)" xlink:href="#U"/></g><path fill="#3a414a" d="M141-36C126-15 110 5 73 4 37 3 15-17 15-53c-1-64 63-63 125-63 3-35-9-54-41-54-24 1-41 7-42 31l-33-3c5-37 33-52 76-52 45 0 72 20 72 64v82c-1 20 7 32 28 27v20c-31 9-61-2-59-35zM48-53c0 20 12 33 32 33 41-3 63-29 60-74-43 2-92-5-92 41" id="V"/><path fill="#3a414a" d="M141 0L90-78 38 0H4l68-98-65-92h35l48 74 47-74h35l-64 92 68 98h-35" id="W"/><path fill="#3a414a" d="M33 0v-38h34V0H33" id="X"/><g id="d"><use transform="matrix(0.06172839506172839,0,0,0.06172839506172839,0,0)" xlink:href="#H"/><use transform="matrix(0.06172839506172839,0,0,0.06172839506172839,18.456790123456788,0)" xlink:href="#V"/><use transform="matrix(0.06172839506172839,0,0,0.06172839506172839,30.80246913580247,0)" xlink:href="#W"/><use transform="matrix(0.06172839506172839,0,0,0.06172839506172839,41.91358024691358,0)" xlink:href="#X"/></g><path fill="#3a414a" d="M233-177c-1 41-23 64-60 70L243 0h-38l-65-103H63V0H30v-248c88 3 205-21 203 71zM63-129c60-2 137 13 137-47 0-61-80-42-137-45v92" id="Y"/><path fill="#3a414a" d="M100-194c63 0 86 42 84 106H49c0 40 14 67 53 68 26 1 43-12 49-29l28 8c-11 28-37 45-77 45C44 4 14-33 15-96c1-61 26-98 85-98zm52 81c6-60-76-77-97-28-3 7-6 17-6 28h103" id="Z"/><path fill="#3a414a" d="M85-194c31 0 48 13 60 33l-1-100h32l1 261h-30c-2-10 0-23-3-31C134-8 116 4 85 4 32 4 16-35 15-94c0-66 23-100 70-100zm9 24c-40 0-46 34-46 75 0 40 6 74 45 74 42 0 51-32 51-76 0-42-9-74-50-73" id="aa"/><g id="e"><use transform="matrix(0.06172839506172839,0,0,0.06172839506172839,0,0)" xlink:href="#Y"/><use transform="matrix(0.06172839506172839,0,0,0.06172839506172839,15.987654320987653,0)" xlink:href="#Z"/><use transform="matrix(0.06172839506172839,0,0,0.06172839506172839,28.333333333333332,0)" xlink:href="#aa"/></g><path fill="#3a414a" d="M252-156c43 0 55 33 55 80 0 46-13 78-56 78-42 0-55-33-55-78 0-48 12-80 56-80zM93 0H65l162-248h28zM13-171c-1-47 13-79 56-79s55 33 55 79-13 79-55 79c-43 0-56-33-56-79zM251-17c28 0 30-29 30-59 0-31-1-60-29-60-29 0-31 29-31 60 0 29 2 59 30 59zM69-112c27 0 28-30 29-59 0-31-1-60-29-60-29 0-30 30-30 60s2 59 30 59" id="ab"/><use transform="matrix(0.06172839506172839,0,0,0.06172839506172839,0,0)" xlink:href="#ab" id="f"/><g id="g"><use transform="matrix(0.06172839506172839,0,0,0.06172839506172839,0,0)" xlink:href="#L"/><use transform="matrix(0.06172839506172839,0,0,0.06172839506172839,12.962962962962962,0)" xlink:href="#M"/></g><path fill="#cc4e00" d="M85-194c31 0 48 13 60 33l-1-100h32l1 261h-30c-2-10 0-23-3-31C134-8 116 4 85 4 32 4 16-35 15-94c0-66 23-100 70-100zm9 24c-40 0-46 34-46 75 0 40 6 74 45 74 42 0 51-32 51-76 0-42-9-74-50-73" id="ac"/><path fill="#cc4e00" d="M100-194c62-1 85 37 85 99 1 63-27 99-86 99S16-35 15-95c0-66 28-99 85-99zM99-20c44 1 53-31 53-75 0-43-8-75-51-75s-53 32-53 75 10 74 51 75" id="ad"/><path fill="#cc4e00" d="M206 0h-36l-40-164L89 0H53L-1-190h32L70-26l43-164h34l41 164 42-164h31" id="ae"/><path fill="#cc4e00" d="M117-194c89-4 53 116 60 194h-32v-121c0-31-8-49-39-48C34-167 62-67 57 0H25l-1-190h30c1 10-1 24 2 32 11-22 29-35 61-36" id="af"/><g id="h"><use transform="matrix(0.06172839506172839,0,0,0.06172839506172839,0,0)" xlink:href="#N"/><use transform="matrix(0.06172839506172839,0,0,0.06172839506172839,6.172839506172839,0)" xlink:href="#O"/><use transform="matrix(0.06172839506172839,0,0,0.06172839506172839,18.51851851851852,0)" xlink:href="#P"/><use transform="matrix(0.06172839506172839,0,0,0.06172839506172839,30.864197530864196,0)" xlink:href="#R"/><use transform="matrix(0.06172839506172839,0,0,0.06172839506172839,38.20987654320987,0)" xlink:href="#S"/><use transform="matrix(0.06172839506172839,0,0,0.06172839506172839,50.55555555555555,0)" xlink:href="#ac"/><use transform="matrix(0.06172839506172839,0,0,0.06172839506172839,62.90123456790123,0)" xlink:href="#ad"/><use transform="matrix(0.06172839506172839,0,0,0.06172839506172839,75.24691358024691,0)" xlink:href="#ae"/><use transform="matrix(0.06172839506172839,0,0,0.06172839506172839,91.23456790123457,0)" xlink:href="#af"/></g><path fill="#333" d="M146-102V0H94v-102L6-248h54l60 105 60-105h54" id="ag"/><path fill="#333" d="M185-48c-13 30-37 53-82 52C43 2 14-33 14-96s30-98 90-98c62 0 83 45 84 108H66c0 31 8 55 39 56 18 0 30-7 34-22zm-45-69c5-46-57-63-70-21-2 6-4 13-4 21h74" id="ah"/><path fill="#333" d="M137-138c1-29-70-34-71-4 15 46 118 7 119 86 1 83-164 76-172 9l43-7c4 19 20 25 44 25 33 8 57-30 24-41C81-84 22-81 20-136c-2-80 154-74 161-7" id="ai"/><g id="i"><use transform="matrix(0.04938271604938272,0,0,0.04938271604938272,0,0)" xlink:href="#ag"/><use transform="matrix(0.04938271604938272,0,0,0.04938271604938272,10.864197530864198,0)" xlink:href="#ah"/><use transform="matrix(0.04938271604938272,0,0,0.04938271604938272,20.74074074074074,0)" xlink:href="#ai"/></g><path fill="#3a414a" d="M117-194c89-4 53 116 60 194h-32v-121c0-31-8-49-39-48C34-167 62-67 57 0H25l-1-190h30c1 10-1 24 2 32 11-22 29-35 61-36" id="aj"/><g id="j"><use transform="matrix(0.06172839506172839,0,0,0.06172839506172839,0,0)" xlink:href="#H"/><use transform="matrix(0.06172839506172839,0,0,0.06172839506172839,18.456790123456788,0)" xlink:href="#Z"/><use transform="matrix(0.06172839506172839,0,0,0.06172839506172839,30.80246913580247,0)" xlink:href="#V"/><use transform="matrix(0.06172839506172839,0,0,0.06172839506172839,43.148148148148145,0)" xlink:href="#aj"/></g><g id="k"><use transform="matrix(0.06172839506172839,0,0,0.06172839506172839,0,0)" xlink:href="#Y"/><use transform="matrix(0.06172839506172839,0,0,0.06172839506172839,15.987654320987653,0)" xlink:href="#Z"/><use transform="matrix(0.06172839506172839,0,0,0.06172839506172839,28.333333333333332,0)" xlink:href="#aa"/></g><path fill="#3a414a" d="M30-248c87 1 191-15 191 75 0 78-77 80-158 76V0H30v-248zm33 125c57 0 124 11 124-50 0-59-68-47-124-48v98" id="ak"/><path fill="#3a414a" d="M96-169c-40 0-48 33-48 73s9 75 48 75c24 0 41-14 43-38l32 2c-6 37-31 61-74 61-59 0-76-41-82-99-10-93 101-131 147-64 4 7 5 14 7 22l-32 3c-4-21-16-35-41-35" id="al"/><path fill="#3a414a" d="M59-47c-2 24 18 29 38 22v24C64 9 27 4 27-40v-127H5v-23h24l9-43h21v43h35v23H59v120" id="am"/><g id="l"><use transform="matrix(0.06172839506172839,0,0,0.06172839506172839,0,0)" xlink:href="#ak"/><use transform="matrix(0.06172839506172839,0,0,0.06172839506172839,14.814814814814813,0)" xlink:href="#al"/><use transform="matrix(0.06172839506172839,0,0,0.06172839506172839,25.925925925925924,0)" xlink:href="#aj"/><use transform="matrix(0.06172839506172839,0,0,0.06172839506172839,38.2716049382716,0)" xlink:href="#am"/><use transform="matrix(0.06172839506172839,0,0,0.06172839506172839,44.44444444444444,0)" xlink:href="#X"/></g><path fill="#333" d="M175 0L67-191c6 58 2 128 3 191H24v-248h59L193-55c-6-58-2-129-3-193h46V0h-61" id="an"/><path fill="#333" d="M110-194c64 0 96 36 96 99 0 64-35 99-97 99-61 0-95-36-95-99 0-62 34-99 96-99zm-1 164c35 0 45-28 45-65 0-40-10-65-43-65-34 0-45 26-45 65 0 36 10 65 43 65" id="ao"/><g id="m"><use transform="matrix(0.04938271604938272,0,0,0.04938271604938272,0,0)" xlink:href="#an"/><use transform="matrix(0.04938271604938272,0,0,0.04938271604938272,12.790123456790125,0)" xlink:href="#ao"/></g><path fill="#333" d="M15-22v-40l146-57-146-57v-40l181 69v56" id="ap"/><path fill="#333" d="M15-148v-39h180v39H15zm0 97v-39h180v39H15" id="aq"/><g id="n"><use transform="matrix(0.04938271604938272,0,0,0.04938271604938272,0,0)" xlink:href="#ap"/><use transform="matrix(0.04938271604938272,0,0,0.04938271604938272,10.370370370370372,0)" xlink:href="#aq"/></g><path fill="#cc4e00" d="M115-3C79 11 28 4 28-45v-112H4v-33h27l15-45h31v45h36v33H77v99c-1 23 16 31 38 25v30" id="ar"/><path fill="#cc4e00" d="M114-157C55-157 80-60 75 0H25v-261h50l-1 109c12-26 28-41 61-42 86-1 58 113 63 194h-50c-7-57 23-157-34-157" id="as"/><path fill="#cc4e00" d="M-4 44V30h207v14H-4" id="at"/><path fill="#cc4e00" d="M135-150c-39-12-60 13-60 57V0H25l-1-190h47c2 13-1 29 3 40 6-28 27-53 61-41v41" id="au"/><path fill="#cc4e00" d="M185-48c-13 30-37 53-82 52C43 2 14-33 14-96s30-98 90-98c62 0 83 45 84 108H66c0 31 8 55 39 56 18 0 30-7 34-22zm-45-69c5-46-57-63-70-21-2 6-4 13-4 21h74" id="av"/><path fill="#cc4e00" d="M88-194c31-1 46 15 58 34l-1-101h50l1 261h-48c-2-10 0-23-3-31C134-8 116 4 84 4 32 4 16-41 15-95c0-56 19-97 73-99zm17 164c33 0 40-30 41-66 1-37-9-64-41-64s-38 30-39 65c0 43 13 65 39 65" id="aw"/><path fill="#cc4e00" d="M135-194c53 0 70 44 70 98 0 56-19 98-73 100-31 1-45-17-59-34 3 33 2 69 2 105H25l-1-265h48c2 10 0 23 3 31 11-24 29-35 60-35zM114-30c33 0 39-31 40-66 0-38-9-64-40-64-56 0-55 130 0 130" id="ax"/><path fill="#cc4e00" d="M190-63c-7 42-38 67-86 67-59 0-84-38-90-98-12-110 154-137 174-36l-49 2c-2-19-15-32-35-32-30 0-35 28-38 64-6 74 65 87 74 30" id="ay"/><path fill="#cc4e00" d="M135-194c87-1 58 113 63 194h-50c-7-57 23-157-34-157-59 0-34 97-39 157H25l-1-190h47c2 12-1 28 3 38 12-26 28-41 61-42" id="az"/><path fill="#cc4e00" d="M85 4C-2 5 27-109 22-190h50c7 57-23 150 33 157 60-5 35-97 40-157h50l1 190h-47c-2-12 1-28-3-38-12 25-28 42-61 42" id="aA"/><g id="o"><use transform="matrix(0.04938271604938272,0,0,0.04938271604938272,0,0)" xlink:href="#ar"/><use transform="matrix(0.04938271604938272,0,0,0.04938271604938272,5.8765432098765435,0)" xlink:href="#as"/><use transform="matrix(0.04938271604938272,0,0,0.04938271604938272,16.691358024691358,0)" xlink:href="#at"/><use transform="matrix(0.04938271604938272,0,0,0.04938271604938272,26.567901234567902,0)" xlink:href="#au"/><use transform="matrix(0.04938271604938272,0,0,0.04938271604938272,33.48148148148148,0)" xlink:href="#av"/><use transform="matrix(0.04938271604938272,0,0,0.04938271604938272,43.358024691358025,0)" xlink:href="#aw"/><use transform="matrix(0.04938271604938272,0,0,0.04938271604938272,54.17283950617284,0)" xlink:href="#at"/><use transform="matrix(0.04938271604938272,0,0,0.04938271604938272,64.0493827160494,0)" xlink:href="#ax"/><use transform="matrix(0.04938271604938272,0,0,0.04938271604938272,74.8641975308642,0)" xlink:href="#ay"/><use transform="matrix(0.04938271604938272,0,0,0.04938271604938272,84.74074074074075,0)" xlink:href="#az"/><use transform="matrix(0.04938271604938272,0,0,0.04938271604938272,95.55555555555556,0)" xlink:href="#ar"/><use transform="matrix(0.04938271604938272,0,0,0.04938271604938272,101.4320987654321,0)" xlink:href="#at"/><use transform="matrix(0.04938271604938272,0,0,0.04938271604938272,111.30864197530865,0)" xlink:href="#aA"/><use transform="matrix(0.04938271604938272,0,0,0.04938271604938272,122.12345679012344,0)" xlink:href="#ax"/></g><path fill="#333" d="M15-91v-56l181-69v40L49-119l147 57v40" id="aB"/><use transform="matrix(0.04938271604938272,0,0,0.04938271604938272,0,0)" xlink:href="#aB" id="p"/><g id="q"><use transform="matrix(0.04938271604938272,0,0,0.04938271604938272,0,0)" xlink:href="#ar"/><use transform="matrix(0.04938271604938272,0,0,0.04938271604938272,5.8765432098765435,0)" xlink:href="#as"/><use transform="matrix(0.04938271604938272,0,0,0.04938271604938272,16.691358024691358,0)" xlink:href="#at"/><use transform="matrix(0.04938271604938272,0,0,0.04938271604938272,26.567901234567902,0)" xlink:href="#au"/><use transform="matrix(0.04938271604938272,0,0,0.04938271604938272,33.48148148148148,0)" xlink:href="#av"/><use transform="matrix(0.04938271604938272,0,0,0.04938271604938272,43.358024691358025,0)" xlink:href="#aw"/><use transform="matrix(0.04938271604938272,0,0,0.04938271604938272,54.17283950617284,0)" xlink:href="#at"/><use transform="matrix(0.04938271604938272,0,0,0.04938271604938272,64.0493827160494,0)" xlink:href="#ax"/><use transform="matrix(0.04938271604938272,0,0,0.04938271604938272,74.8641975308642,0)" xlink:href="#ay"/><use transform="matrix(0.04938271604938272,0,0,0.04938271604938272,84.74074074074075,0)" xlink:href="#az"/><use transform="matrix(0.04938271604938272,0,0,0.04938271604938272,95.55555555555556,0)" xlink:href="#ar"/><use transform="matrix(0.04938271604938272,0,0,0.04938271604938272,101.4320987654321,0)" xlink:href="#at"/><use transform="matrix(0.04938271604938272,0,0,0.04938271604938272,111.30864197530865,0)" xlink:href="#aA"/><use transform="matrix(0.04938271604938272,0,0,0.04938271604938272,122.12345679012344,0)" xlink:href="#ax"/></g><path fill="#333" d="M168-19C124 19 11 11 16-68c3-43 29-60 59-75-25-44-12-111 53-106 37 3 64 15 64 52 0 43-40 52-69 68 12 22 27 41 43 59 14-19 21-38 28-64l37 13c-8 29-19 52-34 74 12 10 32 16 52 10v35c-28 11-65-2-81-17zm-58-139c19-9 43-14 43-39 0-14-10-22-25-22-34 0-33 41-18 61zM60-68c-3 40 55 47 79 25-18-20-34-42-48-67-18 8-30 20-31 42" id="aC"/><use transform="matrix(0.04938271604938272,0,0,0.04938271604938272,0,0)" xlink:href="#aC" id="r"/><g id="s"><use transform="matrix(0.04938271604938272,0,0,0.04938271604938272,0,0)" xlink:href="#ap"/><use transform="matrix(0.04938271604938272,0,0,0.04938271604938272,10.370370370370372,0)" xlink:href="#aq"/></g><path fill="#cc4e00" d="M231 0h-52l-39-155L100 0H48L-1-190h46L77-45c9-52 24-97 36-145h53l37 145 32-145h46" id="aD"/><g id="t"><use transform="matrix(0.04938271604938272,0,0,0.04938271604938272,0,0)" xlink:href="#ar"/><use transform="matrix(0.04938271604938272,0,0,0.04938271604938272,5.8765432098765435,0)" xlink:href="#as"/><use transform="matrix(0.04938271604938272,0,0,0.04938271604938272,16.691358024691358,0)" xlink:href="#at"/><use transform="matrix(0.04938271604938272,0,0,0.04938271604938272,26.567901234567902,0)" xlink:href="#au"/><use transform="matrix(0.04938271604938272,0,0,0.04938271604938272,33.48148148148148,0)" xlink:href="#av"/><use transform="matrix(0.04938271604938272,0,0,0.04938271604938272,43.358024691358025,0)" xlink:href="#aw"/><use transform="matrix(0.04938271604938272,0,0,0.04938271604938272,54.17283950617284,0)" xlink:href="#at"/><use transform="matrix(0.04938271604938272,0,0,0.04938271604938272,64.0493827160494,0)" xlink:href="#ax"/><use transform="matrix(0.04938271604938272,0,0,0.04938271604938272,74.8641975308642,0)" xlink:href="#ay"/><use transform="matrix(0.04938271604938272,0,0,0.04938271604938272,84.74074074074075,0)" xlink:href="#az"/><use transform="matrix(0.04938271604938272,0,0,0.04938271604938272,95.55555555555556,0)" xlink:href="#ar"/><use transform="matrix(0.04938271604938272,0,0,0.04938271604938272,101.4320987654321,0)" xlink:href="#at"/><use transform="matrix(0.04938271604938272,0,0,0.04938271604938272,111.30864197530865,0)" xlink:href="#aw"/><use transform="matrix(0.04938271604938272,0,0,0.04938271604938272,122.12345679012344,0)" xlink:href="#aD"/></g><path fill="#3a414a" d="M137 0h-34L2-248h35l83 218 83-218h36" id="aE"/><path fill="#3a414a" d="M143 4C61 4 22-44 18-125c-5-107 100-154 193-111 17 8 29 25 37 43l-32 9c-13-25-37-40-76-40-61 0-88 39-88 99 0 61 29 100 91 101 35 0 62-11 79-27v-45h-74v-28h105v86C228-13 192 4 143 4" id="aF"/><path fill="#3a414a" d="M-5 72V49h209v23H-5" id="aG"/><path fill="#3a414a" d="M24-231v-30h32v30H24zM24 0v-190h32V0H24" id="aH"/><path fill="#3a414a" d="M108 0H70L1-190h34L89-25l56-165h34" id="aI"/><path fill="#3a414a" d="M100-194c62-1 85 37 85 99 1 63-27 99-86 99S16-35 15-95c0-66 28-99 85-99zM99-20c44 1 53-31 53-75 0-43-8-75-51-75s-53 32-53 75 10 74 51 75" id="aJ"/><g id="u"><use transform="matrix(0.06172839506172839,0,0,0.06172839506172839,0,0)" xlink:href="#K"/><use transform="matrix(0.06172839506172839,0,0,0.06172839506172839,15.987654320987653,0)" xlink:href="#aE"/><use transform="matrix(0.06172839506172839,0,0,0.06172839506172839,30.80246913580247,0)" xlink:href="#aF"/><use transform="matrix(0.06172839506172839,0,0,0.06172839506172839,48.08641975308642,0)" xlink:href="#aG"/><use transform="matrix(0.06172839506172839,0,0,0.06172839506172839,60.432098765432094,0)" xlink:href="#I"/><use transform="matrix(0.06172839506172839,0,0,0.06172839506172839,75.24691358024691,0)" xlink:href="#al"/><use transform="matrix(0.06172839506172839,0,0,0.06172839506172839,86.35802469135803,0)" xlink:href="#am"/><use transform="matrix(0.06172839506172839,0,0,0.06172839506172839,92.53086419753086,0)" xlink:href="#aH"/><use transform="matrix(0.06172839506172839,0,0,0.06172839506172839,97.4074074074074,0)" xlink:href="#aI"/><use transform="matrix(0.06172839506172839,0,0,0.06172839506172839,108.51851851851852,0)" xlink:href="#Z"/><use transform="matrix(0.06172839506172839,0,0,0.06172839506172839,120.8641975308642,0)" xlink:href="#aG"/><use transform="matrix(0.06172839506172839,0,0,0.06172839506172839,133.20987654320987,0)" xlink:href="#aj"/><use transform="matrix(0.06172839506172839,0,0,0.06172839506172839,145.55555555555554,0)" xlink:href="#aJ"/><use transform="matrix(0.06172839506172839,0,0,0.06172839506172839,157.9012345679012,0)" xlink:href="#J"/><use transform="matrix(0.06172839506172839,0,0,0.06172839506172839,171.41975308641972,0)" xlink:href="#K"/></g><path fill="#3a414a" d="M232-93c-1 65-40 97-104 97C67 4 28-28 28-90v-158h33c8 89-33 224 67 224 102 0 64-133 71-224h33v155" id="aK"/><path fill="#3a414a" d="M114-163C36-179 61-72 57 0H25l-1-190h30c1 12-1 29 2 39 6-27 23-49 58-41v29" id="aL"/><path fill="#3a414a" d="M210-169c-67 3-38 105-44 169h-31v-121c0-29-5-50-35-48C34-165 62-65 56 0H25l-1-190h30c1 10-1 24 2 32 10-44 99-50 107 0 11-21 27-35 58-36 85-2 47 119 55 194h-31v-121c0-29-5-49-35-48" id="aM"/><g id="v"><use transform="matrix(0.06172839506172839,0,0,0.06172839506172839,0,0)" xlink:href="#K"/><use transform="matrix(0.06172839506172839,0,0,0.06172839506172839,15.987654320987653,0)" xlink:href="#aE"/><use transform="matrix(0.06172839506172839,0,0,0.06172839506172839,30.80246913580247,0)" xlink:href="#aF"/><use transform="matrix(0.06172839506172839,0,0,0.06172839506172839,48.08641975308642,0)" xlink:href="#aG"/><use transform="matrix(0.06172839506172839,0,0,0.06172839506172839,60.432098765432094,0)" xlink:href="#aK"/><use transform="matrix(0.06172839506172839,0,0,0.06172839506172839,76.41975308641975,0)" xlink:href="#aj"/><use transform="matrix(0.06172839506172839,0,0,0.06172839506172839,88.76543209876543,0)" xlink:href="#aa"/><use transform="matrix(0.06172839506172839,0,0,0.06172839506172839,101.11111111111111,0)" xlink:href="#Z"/><use transform="matrix(0.06172839506172839,0,0,0.06172839506172839,113.4567901234568,0)" xlink:href="#am"/><use transform="matrix(0.06172839506172839,0,0,0.06172839506172839,119.62962962962963,0)" xlink:href="#Z"/><use transform="matrix(0.06172839506172839,0,0,0.06172839506172839,131.97530864197532,0)" xlink:href="#aL"/><use transform="matrix(0.06172839506172839,0,0,0.06172839506172839,139.320987654321,0)" xlink:href="#aM"/><use transform="matrix(0.06172839506172839,0,0,0.06172839506172839,157.77777777777777,0)" xlink:href="#aH"/><use transform="matrix(0.06172839506172839,0,0,0.06172839506172839,162.6543209876543,0)" xlink:href="#aj"/><use transform="matrix(0.06172839506172839,0,0,0.06172839506172839,174.99999999999997,0)" xlink:href="#Z"/><use transform="matrix(0.06172839506172839,0,0,0.06172839506172839,187.34567901234564,0)" xlink:href="#aa"/><use transform="matrix(0.06172839506172839,0,0,0.06172839506172839,199.6913580246913,0)" xlink:href="#aG"/><use transform="matrix(0.06172839506172839,0,0,0.06172839506172839,212.03703703703698,0)" xlink:href="#aj"/><use transform="matrix(0.06172839506172839,0,0,0.06172839506172839,224.38271604938265,0)" xlink:href="#aJ"/><use transform="matrix(0.06172839506172839,0,0,0.06172839506172839,236.72839506172832,0)" xlink:href="#J"/><use transform="matrix(0.06172839506172839,0,0,0.06172839506172839,250.24691358024683,0)" xlink:href="#K"/></g><path fill="#3a414a" d="M33 0v-248h34V0H33" id="aN"/><g id="w"><use transform="matrix(0.06172839506172839,0,0,0.06172839506172839,0,0)" xlink:href="#K"/><use transform="matrix(0.06172839506172839,0,0,0.06172839506172839,15.987654320987653,0)" xlink:href="#aE"/><use transform="matrix(0.06172839506172839,0,0,0.06172839506172839,30.80246913580247,0)" xlink:href="#aF"/><use transform="matrix(0.06172839506172839,0,0,0.06172839506172839,48.08641975308642,0)" xlink:href="#aG"/><use transform="matrix(0.06172839506172839,0,0,0.06172839506172839,60.432098765432094,0)" xlink:href="#aN"/><use transform="matrix(0.06172839506172839,0,0,0.06172839506172839,66.60493827160494,0)" xlink:href="#aj"/><use transform="matrix(0.06172839506172839,0,0,0.06172839506172839,78.95061728395062,0)" xlink:href="#V"/><use transform="matrix(0.06172839506172839,0,0,0.06172839506172839,91.2962962962963,0)" xlink:href="#al"/><use transform="matrix(0.06172839506172839,0,0,0.06172839506172839,102.40740740740742,0)" xlink:href="#am"/><use transform="matrix(0.06172839506172839,0,0,0.06172839506172839,108.58024691358025,0)" xlink:href="#aH"/><use transform="matrix(0.06172839506172839,0,0,0.06172839506172839,113.4567901234568,0)" xlink:href="#aI"/><use transform="matrix(0.06172839506172839,0,0,0.06172839506172839,124.56790123456791,0)" xlink:href="#Z"/><use transform="matrix(0.06172839506172839,0,0,0.06172839506172839,136.9135802469136,0)" xlink:href="#aG"/><use transform="matrix(0.06172839506172839,0,0,0.06172839506172839,149.25925925925927,0)" xlink:href="#aj"/><use transform="matrix(0.06172839506172839,0,0,0.06172839506172839,161.60493827160494,0)" xlink:href="#aJ"/><use transform="matrix(0.06172839506172839,0,0,0.06172839506172839,173.9506172839506,0)" xlink:href="#J"/><use transform="matrix(0.06172839506172839,0,0,0.06172839506172839,187.4691358024691,0)" xlink:href="#K"/></g><path fill="#3a414a" d="M206 0h-36l-40-164L89 0H53L-1-190h32L70-26l43-164h34l41 164 42-164h31" id="aO"/><g id="x"><use transform="matrix(0.06172839506172839,0,0,0.06172839506172839,0,0)" xlink:href="#K"/><use transform="matrix(0.06172839506172839,0,0,0.06172839506172839,15.987654320987653,0)" xlink:href="#aE"/><use transform="matrix(0.06172839506172839,0,0,0.06172839506172839,30.80246913580247,0)" xlink:href="#aF"/><use transform="matrix(0.06172839506172839,0,0,0.06172839506172839,48.08641975308642,0)" xlink:href="#aG"/><use transform="matrix(0.06172839506172839,0,0,0.06172839506172839,60.432098765432094,0)" xlink:href="#aN"/><use transform="matrix(0.06172839506172839,0,0,0.06172839506172839,66.60493827160494,0)" xlink:href="#aj"/><use transform="matrix(0.06172839506172839,0,0,0.06172839506172839,78.95061728395062,0)" xlink:href="#V"/><use transform="matrix(0.06172839506172839,0,0,0.06172839506172839,91.2962962962963,0)" xlink:href="#al"/><use transform="matrix(0.06172839506172839,0,0,0.06172839506172839,102.40740740740742,0)" xlink:href="#am"/><use transform="matrix(0.06172839506172839,0,0,0.06172839506172839,108.58024691358025,0)" xlink:href="#aH"/><use transform="matrix(0.06172839506172839,0,0,0.06172839506172839,113.4567901234568,0)" xlink:href="#aI"/><use transform="matrix(0.06172839506172839,0,0,0.06172839506172839,124.56790123456791,0)" xlink:href="#Z"/><use transform="matrix(0.06172839506172839,0,0,0.06172839506172839,136.9135802469136,0)" xlink:href="#aG"/><use transform="matrix(0.06172839506172839,0,0,0.06172839506172839,149.25925925925927,0)" xlink:href="#J"/><use transform="matrix(0.06172839506172839,0,0,0.06172839506172839,162.77777777777777,0)" xlink:href="#K"/><use transform="matrix(0.06172839506172839,0,0,0.06172839506172839,178.76543209876542,0)" xlink:href="#aG"/><use transform="matrix(0.06172839506172839,0,0,0.06172839506172839,191.1111111111111,0)" xlink:href="#aL"/><use transform="matrix(0.06172839506172839,0,0,0.06172839506172839,198.45679012345676,0)" xlink:href="#Z"/><use transform="matrix(0.06172839506172839,0,0,0.06172839506172839,210.80246913580243,0)" xlink:href="#aa"/><use transform="matrix(0.06172839506172839,0,0,0.06172839506172839,223.1481481481481,0)" xlink:href="#aa"/><use transform="matrix(0.06172839506172839,0,0,0.06172839506172839,235.49382716049377,0)" xlink:href="#aJ"/><use transform="matrix(0.06172839506172839,0,0,0.06172839506172839,247.83950617283944,0)" xlink:href="#aO"/><use transform="matrix(0.06172839506172839,0,0,0.06172839506172839,263.8271604938271,0)" xlink:href="#aj"/></g><path fill="#3a414a" d="M24 0v-261h32V0H24" id="aP"/><g id="y"><use transform="matrix(0.06172839506172839,0,0,0.06172839506172839,0,0)" xlink:href="#Y"/><use transform="matrix(0.06172839506172839,0,0,0.06172839506172839,15.987654320987653,0)" xlink:href="#Z"/><use transform="matrix(0.06172839506172839,0,0,0.06172839506172839,28.333333333333332,0)" xlink:href="#aP"/><use transform="matrix(0.06172839506172839,0,0,0.06172839506172839,33.20987654320987,0)" xlink:href="#V"/><use transform="matrix(0.06172839506172839,0,0,0.06172839506172839,45.55555555555555,0)" xlink:href="#am"/><use transform="matrix(0.06172839506172839,0,0,0.06172839506172839,51.72839506172839,0)" xlink:href="#aH"/><use transform="matrix(0.06172839506172839,0,0,0.06172839506172839,56.60493827160494,0)" xlink:href="#aI"/><use transform="matrix(0.06172839506172839,0,0,0.06172839506172839,67.71604938271605,0)" xlink:href="#Z"/></g><path fill="#3a414a" d="M30 0v-248h187v28H63v79h144v27H63v87h162V0H30" id="aQ"/><path fill="#3a414a" d="M115-194c55 1 70 41 70 98S169 2 115 4C84 4 66-9 55-30l1 105H24l-1-265h31l2 30c10-21 28-34 59-34zm-8 174c40 0 45-34 45-75s-6-73-45-74c-42 0-51 32-51 76 0 43 10 73 51 73" id="aR"/><path fill="#3a414a" d="M135-143c-3-34-86-38-87 0 15 53 115 12 119 90S17 21 10-45l28-5c4 36 97 45 98 0-10-56-113-15-118-90-4-57 82-63 122-42 12 7 21 19 24 35" id="aS"/><g id="z"><use transform="matrix(0.06172839506172839,0,0,0.06172839506172839,0,0)" xlink:href="#aQ"/><use transform="matrix(0.06172839506172839,0,0,0.06172839506172839,14.814814814814813,0)" xlink:href="#W"/><use transform="matrix(0.06172839506172839,0,0,0.06172839506172839,25.925925925925924,0)" xlink:href="#aR"/><use transform="matrix(0.06172839506172839,0,0,0.06172839506172839,38.2716049382716,0)" xlink:href="#aL"/><use transform="matrix(0.06172839506172839,0,0,0.06172839506172839,45.61728395061728,0)" xlink:href="#Z"/><use transform="matrix(0.06172839506172839,0,0,0.06172839506172839,57.962962962962955,0)" xlink:href="#aS"/><use transform="matrix(0.06172839506172839,0,0,0.06172839506172839,69.07407407407406,0)" xlink:href="#aS"/><use transform="matrix(0.06172839506172839,0,0,0.06172839506172839,80.18518518518518,0)" xlink:href="#aH"/><use transform="matrix(0.06172839506172839,0,0,0.06172839506172839,85.06172839506172,0)" xlink:href="#aJ"/><use transform="matrix(0.06172839506172839,0,0,0.06172839506172839,97.4074074074074,0)" xlink:href="#aj"/></g><g id="A"><use transform="matrix(0.06172839506172839,0,0,0.06172839506172839,0,0)" xlink:href="#K"/><use transform="matrix(0.06172839506172839,0,0,0.06172839506172839,15.987654320987653,0)" xlink:href="#aE"/><use transform="matrix(0.06172839506172839,0,0,0.06172839506172839,30.80246913580247,0)" xlink:href="#aF"/><use transform="matrix(0.06172839506172839,0,0,0.06172839506172839,48.08641975308642,0)" xlink:href="#aG"/><use transform="matrix(0.06172839506172839,0,0,0.06172839506172839,60.432098765432094,0)" xlink:href="#I"/><use transform="matrix(0.06172839506172839,0,0,0.06172839506172839,75.24691358024691,0)" xlink:href="#al"/><use transform="matrix(0.06172839506172839,0,0,0.06172839506172839,86.35802469135803,0)" xlink:href="#am"/><use transform="matrix(0.06172839506172839,0,0,0.06172839506172839,92.53086419753086,0)" xlink:href="#aH"/><use transform="matrix(0.06172839506172839,0,0,0.06172839506172839,97.4074074074074,0)" xlink:href="#aI"/><use transform="matrix(0.06172839506172839,0,0,0.06172839506172839,108.51851851851852,0)" xlink:href="#Z"/><use transform="matrix(0.06172839506172839,0,0,0.06172839506172839,120.8641975308642,0)" xlink:href="#aG"/><use transform="matrix(0.06172839506172839,0,0,0.06172839506172839,133.20987654320987,0)" xlink:href="#J"/><use transform="matrix(0.06172839506172839,0,0,0.06172839506172839,146.72839506172838,0)" xlink:href="#K"/></g><g id="B"><use transform="matrix(0.06172839506172839,0,0,0.06172839506172839,0,0)" xlink:href="#K"/><use transform="matrix(0.06172839506172839,0,0,0.06172839506172839,15.987654320987653,0)" xlink:href="#aE"/><use transform="matrix(0.06172839506172839,0,0,0.06172839506172839,30.80246913580247,0)" xlink:href="#aF"/><use transform="matrix(0.06172839506172839,0,0,0.06172839506172839,48.08641975308642,0)" xlink:href="#aG"/><use transform="matrix(0.06172839506172839,0,0,0.06172839506172839,60.432098765432094,0)" xlink:href="#aN"/><use transform="matrix(0.06172839506172839,0,0,0.06172839506172839,66.60493827160494,0)" xlink:href="#aj"/><use transform="matrix(0.06172839506172839,0,0,0.06172839506172839,78.95061728395062,0)" xlink:href="#V"/><use transform="matrix(0.06172839506172839,0,0,0.06172839506172839,91.2962962962963,0)" xlink:href="#al"/><use transform="matrix(0.06172839506172839,0,0,0.06172839506172839,102.40740740740742,0)" xlink:href="#am"/><use transform="matrix(0.06172839506172839,0,0,0.06172839506172839,108.58024691358025,0)" xlink:href="#aH"/><use transform="matrix(0.06172839506172839,0,0,0.06172839506172839,113.4567901234568,0)" xlink:href="#aI"/><use transform="matrix(0.06172839506172839,0,0,0.06172839506172839,124.56790123456791,0)" xlink:href="#Z"/><use transform="matrix(0.06172839506172839,0,0,0.06172839506172839,136.9135802469136,0)" xlink:href="#aG"/><use transform="matrix(0.06172839506172839,0,0,0.06172839506172839,149.25925925925927,0)" xlink:href="#J"/><use transform="matrix(0.06172839506172839,0,0,0.06172839506172839,162.77777777777777,0)" xlink:href="#K"/></g><path fill="#3a414a" d="M185-189c-5-48-123-54-124 2 14 75 158 14 163 119 3 78-121 87-175 55-17-10-28-26-33-46l33-7c5 56 141 63 141-1 0-78-155-14-162-118-5-82 145-84 179-34 5 7 8 16 11 25" id="aT"/><g id="C"><use transform="matrix(0.06172839506172839,0,0,0.06172839506172839,0,0)" xlink:href="#K"/><use transform="matrix(0.06172839506172839,0,0,0.06172839506172839,15.987654320987653,0)" xlink:href="#aE"/><use transform="matrix(0.06172839506172839,0,0,0.06172839506172839,30.80246913580247,0)" xlink:href="#aF"/><use transform="matrix(0.06172839506172839,0,0,0.06172839506172839,48.08641975308642,0)" xlink:href="#aG"/><use transform="matrix(0.06172839506172839,0,0,0.06172839506172839,60.432098765432094,0)" xlink:href="#aT"/><use transform="matrix(0.06172839506172839,0,0,0.06172839506172839,75.24691358024691,0)" xlink:href="#Z"/><use transform="matrix(0.06172839506172839,0,0,0.06172839506172839,87.5925925925926,0)" xlink:href="#aM"/><use transform="matrix(0.06172839506172839,0,0,0.06172839506172839,106.04938271604938,0)" xlink:href="#aH"/><use transform="matrix(0.06172839506172839,0,0,0.06172839506172839,110.92592592592592,0)" xlink:href="#V"/><use transform="matrix(0.06172839506172839,0,0,0.06172839506172839,123.27160493827161,0)" xlink:href="#al"/><use transform="matrix(0.06172839506172839,0,0,0.06172839506172839,134.3827160493827,0)" xlink:href="#am"/><use transform="matrix(0.06172839506172839,0,0,0.06172839506172839,140.55555555555554,0)" xlink:href="#aH"/><use transform="matrix(0.06172839506172839,0,0,0.06172839506172839,145.43209876543207,0)" xlink:href="#aI"/><use transform="matrix(0.06172839506172839,0,0,0.06172839506172839,156.5432098765432,0)" xlink:href="#Z"/><use transform="matrix(0.06172839506172839,0,0,0.06172839506172839,168.88888888888886,0)" xlink:href="#aG"/><use transform="matrix(0.06172839506172839,0,0,0.06172839506172839,181.23456790123453,0)" xlink:href="#J"/><use transform="matrix(0.06172839506172839,0,0,0.06172839506172839,194.75308641975303,0)" xlink:href="#K"/></g><path fill="#333" d="M230 0l2-204L168 0h-37L68-204 70 0H24v-248h70l56 185 57-185h69V0h-46" id="aU"/><path fill="#333" d="M133-34C117-15 103 5 69 4 32 3 11-16 11-54c-1-60 55-63 116-61 1-26-3-47-28-47-18 1-26 9-28 27l-52-2c7-38 36-58 82-57s74 22 75 68l1 82c-1 14 12 18 25 15v27c-30 8-71 5-69-32zm-48 3c29 0 43-24 42-57-32 0-66-3-65 30 0 17 8 27 23 27" id="aV"/><path fill="#333" d="M144 0l-44-69L55 0H2l70-98-66-92h53l41 62 40-62h54l-67 91 71 99h-54" id="aW"/><g id="D"><use transform="matrix(0.04938271604938272,0,0,0.04938271604938272,0,0)" xlink:href="#aU"/><use transform="matrix(0.04938271604938272,0,0,0.04938271604938272,14.765432098765434,0)" xlink:href="#aV"/><use transform="matrix(0.04938271604938272,0,0,0.04938271604938272,24.641975308641978,0)" xlink:href="#aW"/></g><path fill="#333" d="M25-224v-37h50v37H25zM25 0v-190h50V0H25" id="aX"/><path fill="#333" d="M88-194c31-1 46 15 58 34l-1-101h50l1 261h-48c-2-10 0-23-3-31C134-8 116 4 84 4 32 4 16-41 15-95c0-56 19-97 73-99zm17 164c33 0 40-30 41-66 1-37-9-64-41-64s-38 30-39 65c0 43 13 65 39 65" id="aY"/><g id="E"><use transform="matrix(0.04938271604938272,0,0,0.04938271604938272,0,0)" xlink:href="#aU"/><use transform="matrix(0.04938271604938272,0,0,0.04938271604938272,14.765432098765434,0)" xlink:href="#aX"/><use transform="matrix(0.04938271604938272,0,0,0.04938271604938272,19.703703703703706,0)" xlink:href="#aY"/></g><path fill="#333" d="M135-194c87-1 58 113 63 194h-50c-7-57 23-157-34-157-59 0-34 97-39 157H25l-1-190h47c2 12-1 28 3 38 12-26 28-41 61-42" id="aZ"/><g id="F"><use transform="matrix(0.04938271604938272,0,0,0.04938271604938272,0,0)" xlink:href="#aU"/><use transform="matrix(0.04938271604938272,0,0,0.04938271604938272,14.765432098765434,0)" xlink:href="#aX"/><use transform="matrix(0.04938271604938272,0,0,0.04938271604938272,19.703703703703706,0)" xlink:href="#aZ"/></g><path fill="#333" d="M212-179c-10-28-35-45-73-45-59 0-87 40-87 99 0 60 29 101 89 101 43 0 62-24 78-52l27 14C228-24 195 4 139 4 59 4 22-46 18-125c-6-104 99-153 187-111 19 9 31 26 39 46" id="ba"/><path fill="#333" d="M137 0h-34L2-248h35l83 218 83-218h36" id="bb"/><path fill="#333" d="M143 4C61 4 22-44 18-125c-5-107 100-154 193-111 17 8 29 25 37 43l-32 9c-13-25-37-40-76-40-61 0-88 39-88 99 0 61 29 100 91 101 35 0 62-11 79-27v-45h-74v-28h105v86C228-13 192 4 143 4" id="bc"/><g id="G"><use transform="matrix(0.06172839506172839,0,0,0.06172839506172839,0,0)" xlink:href="#ba"/><use transform="matrix(0.06172839506172839,0,0,0.06172839506172839,15.987654320987653,0)" xlink:href="#bb"/><use transform="matrix(0.06172839506172839,0,0,0.06172839506172839,30.80246913580247,0)" xlink:href="#bc"/></g></defs></g></svg>