<svg xmlns="http://www.w3.org/2000/svg" xmlns:xlink="http://www.w3.org/1999/xlink" xmlns:lucid="lucid" width="1804.88" height="2696.42"><g transform="translate(1800 1982.1676051000134)" lucid:page-tab-id="0_0"><path d="M-1184.8 217.85c2.65-2 6.95-2 9.6 0l70.4 52.8c2.65 2 2.65 5.2 0 7.2l-70.4 52.8c-2.65 2-6.95 2-9.6 0l-70.4-52.8c-2.65-2-2.65-5.2 0-7.2z" stroke="#3a414a" fill="#edf5ff"/><use xlink:href="#a" transform="matrix(1,0,0,1,-1255,219.25196850393513) translate(0.3703703703703667 46.111111111111114)"/><use xlink:href="#b" transform="matrix(1,0,0,1,-1255,219.25196850393513) translate(52.098765432098766 46.111111111111114)"/><use xlink:href="#c" transform="matrix(1,0,0,1,-1255,219.25196850393513) translate(97.77777777777779 46.111111111111114)"/><use xlink:href="#d" transform="matrix(1,0,0,1,-1255,219.25196850393513) translate(123.70370370370371 46.111111111111114)"/><use xlink:href="#e" transform="matrix(1,0,0,1,-1255,219.25196850393513) translate(22.561728395061728 72.77777777777777)"/><path d="M-1319.5 268.2l.77 2.82 1.96 1.96 2.84.77h39.95v1h-40.1l-3.2-.87-2.35-2.34-.87-3.22V-82.2h1zm-3.2-727.83l2.33 2.34.87 3.23v350.53h-1v-350.4l-.77-2.83-1.96-1.96-2.84-.77h-55.83v-1h55.97z" stroke="#3a414a" stroke-width=".05" fill="#3a414a"/><path d="M-1381.9-459.5h-.42l-.17-1h.6z" fill="#3a414a"/><path d="M-1381.87-459.48h-.47l-.18-1.04h.65zm-.6-1l.17.96h.38v-.96z" stroke="#3a414a" stroke-width=".05" fill="#3a414a"/><path d="M-1259.2 274.25l-14.28 4.64v-9.28z" fill="#3a414a"/><path d="M-1257.6 274.25l-16.38 5.33v-10.65zm-15.38 3.95l12.15-3.95-12.15-3.95z" stroke="#3a414a" stroke-width=".05" fill="#3a414a"/><use xlink:href="#f" transform="matrix(1,0,0,1,-1331.8024691358025,-103.5406824146991) translate(0 14.222222222222223)"/><path d="M-803.6 517.85c2.65-2 6.95-2 9.6 0l70.4 52.8c2.65 2 2.65 5.2 0 7.2l-70.4 52.8c-2.65 2-6.95 2-9.6 0l-70.4-52.8c-2.65-2-2.65-5.2 0-7.2z" stroke="#3a414a" fill="#edf5ff"/><use xlink:href="#g" transform="matrix(1,0,0,1,-873.7982435087149,519.2519685039354) translate(14.567901234567898 32.77777777777778)"/><use xlink:href="#h" transform="matrix(1,0,0,1,-873.7982435087149,519.2519685039354) translate(68.82716049382717 32.77777777777778)"/><use xlink:href="#i" transform="matrix(1,0,0,1,-873.7982435087149,519.2519685039354) translate(115.67901234567901 32.77777777777778)"/><use xlink:href="#j" transform="matrix(1,0,0,1,-873.7982435087149,519.2519685039354) translate(62.03703703703704 59.44444444444445)"/><use xlink:href="#k" transform="matrix(1,0,0,1,-873.7982435087149,519.2519685039354) translate(4.043209876543216 86.11111111111111)"/><path d="M-73.6 614.25c30.93 0 56 17.9 56 40s-25.07 40-56 40h-168c-30.92 0-56-17.9-56-40s25.08-40 56-40z" stroke="#3a414a" fill="#fff0f0"/><use xlink:href="#l" transform="matrix(1,0,0,1,-292.5964870174298,619.2519685039354) translate(56.66666666666667 39.65277777777778)"/><path d="M-988.9 568.2l.77 2.82 1.96 1.96 2.84.77h90.55v1h-90.7l-3.2-.87-2.35-2.34-.87-3.22v-133.4h1zm-3.2-293.58l2.33 2.34.87 3.23v133.4h-1V280.3l-.77-2.84-1.96-1.96-2.84-.77h-106.43v-1h106.57z" stroke="#3a414a" stroke-width=".05" fill="#3a414a"/><path d="M-1101.9 274.75h-.42l-.17-1h.6z" fill="#3a414a"/><path d="M-1101.87 274.78h-.47l-.18-1.05h.65zm-.6-1l.17.95h.38v-.95z" stroke="#3a414a" stroke-width=".05" fill="#3a414a"/><path d="M-878 574.25l-14.28 4.64v-9.28z" fill="#3a414a"/><path d="M-876.4 574.25l-16.38 5.33v-10.65zm-15.38 3.95l12.15-3.95-12.15-3.95z" stroke="#3a414a" stroke-width=".05" fill="#3a414a"/><use xlink:href="#f" transform="matrix(1,0,0,1,-1001.2015908901599,413.58530183726856) translate(0 14.222222222222223)"/><path d="M-509.15 648.2l.77 2.82 1.96 1.96 2.84.77h189.1v1h-189.24l-3.22-.87-2.34-2.34-.87-3.22v-23.4h1zm-3.2-73.58l2.33 2.34.87 3.23v23.4h-1V580.3l-.77-2.84-1.96-1.96-2.84-.77H-720.7v-1h205.12z" stroke="#3a414a" stroke-width=".05" fill="#3a414a"/><path d="M-720.7 574.75h-.42l-.17-1h.6z" fill="#3a414a"/><path d="M-720.66 574.78h-.48l-.18-1.05h.66zm-.6-1l.16.95h.4v-.95z" stroke="#3a414a" stroke-width=".05" fill="#3a414a"/><path d="M-299.7 654.25L-314 658.9v-9.28z" fill="#3a414a"/><path d="M-298.1 654.25l-16.38 5.33v-10.65zm-15.38 3.95l12.15-3.95-12.15-3.95z" stroke="#3a414a" stroke-width=".05" fill="#3a414a"/><use xlink:href="#f" transform="matrix(1,0,0,1,-521.4516782863025,603.5853018372687) translate(0 14.222222222222223)"/><path d="M-73.6 474.25c30.93 0 56 17.9 56 40s-25.07 40-56 40h-168c-30.92 0-56-17.9-56-40s25.08-40 56-40z" stroke="#3a414a" fill="#e3fae3"/><use xlink:href="#m" transform="matrix(1,0,0,1,-292.5964870174298,479.25196850393513) translate(49.29012345679013 39.65277777777778)"/><path d="M-509.15 568.32l-.87 3.22-2.34 2.34-3.22.87H-720.7v-1h204.98l2.84-.77 1.96-1.96.77-2.83V554.9h1zm194.67-53.57h-189.1l-2.84.77-1.96 1.96-.77 2.84v13.27h-1v-13.4l.87-3.24 2.34-2.34 3.22-.87h189.24z" stroke="#3a414a" stroke-width=".05" fill="#3a414a"/><path d="M-720.7 574.75h-.42l-.17-1h.6z" fill="#3a414a"/><path d="M-720.66 574.78h-.48l-.18-1.05h.66zm-.6-1l.16.95h.4v-.95z" stroke="#3a414a" stroke-width=".05" fill="#3a414a"/><path d="M-299.7 514.25L-314 518.9v-9.28z" fill="#3a414a"/><path d="M-298.1 514.25l-16.38 5.33v-10.65zm-15.38 3.95l12.15-3.95-12.15-3.95z" stroke="#3a414a" stroke-width=".05" fill="#3a414a"/><use xlink:href="#n" transform="matrix(1,0,0,1,-524.9578511258086,533.5853018372686) translate(0 14.222222222222223)"/><path d="M-803.6-18.75c2.65-1.98 6.95-1.98 9.6 0l70.4 52.8c2.65 2 2.65 5.22 0 7.2l-70.4 52.8c-2.65 2-6.95 2-9.6 0l-70.4-52.8c-2.65-1.98-2.65-5.2 0-7.2z" stroke="#3a414a" fill="#edf5ff"/><use xlink:href="#o" transform="matrix(1,0,0,1,-873.7982435087149,-17.345206760477595) translate(14.572901234567889 59.02777777777778)"/><use xlink:href="#p" transform="matrix(1,0,0,1,-873.7982435087149,-17.345206760477595) translate(68.83216049382716 59.02777777777778)"/><use xlink:href="#q" transform="matrix(1,0,0,1,-873.7982435087149,-17.345206760477595) translate(115.68401234567902 59.02777777777778)"/><path d="M-73.6 197.1c30.93 0 56 17.9 56 40 0 22.08-25.07 40-56 40h-168c-30.92 0-56-17.92-56-40 0-22.1 25.08-40 56-40z" stroke="#3a414a" fill="#fff0f0"/><use xlink:href="#r" transform="matrix(1,0,0,1,-292.5964870174298,202.08661417322583) translate(96.75925925925927 39.65277777777778)"/><path d="M-73.6-4.33c30.93 0 56 17.9 56 40s-25.07 40-56 40h-168c-30.92 0-56-17.9-56-40s25.08-40 56-40z" stroke="#3a414a" fill="#fff"/><use xlink:href="#s" transform="matrix(1,0,0,1,-292.5964870174298,0.6692913385804786) translate(65.37037037037037 39.65277777777778)"/><path d="M-73.6-205.75c30.93 0 56 17.9 56 40s-25.07 40-56 40h-168c-30.92 0-56-17.9-56-40s25.08-40 56-40z" stroke="#3a414a" fill="#e3fae3"/><use xlink:href="#t" transform="matrix(1,0,0,1,-292.5964870174298,-200.74803149606487) translate(104.78395061728395 39.65277777777778)"/><path d="M-509.15 231.02l.77 2.84 1.96 1.96 2.84.77h189.1v1h-189.24l-3.22-.88-2.34-2.35-.87-3.22v-83.1h1zm0-104.32h-1V48.32h1zM-720.7 38.15v-1h44.82v1z" stroke="#3a414a" stroke-width=".05" fill="#3a414a"/><path d="M-720.7 38.15h-.42l-.17-1h.6z" fill="#3a414a"/><path d="M-720.66 38.18h-.48l-.18-1.05h.66zm-.6-1l.16.95h.4v-.95z" stroke="#3a414a" stroke-width=".05" fill="#3a414a"/><path d="M-299.7 237.1L-314 241.7v-9.27z" fill="#3a414a"/><path d="M-298.1 237.1l-16.38 5.3v-10.64zm-15.38 3.93l12.15-3.94-12.15-3.96z" stroke="#3a414a" stroke-width=".05" fill="#3a414a"/><use xlink:href="#u" transform="matrix(1,0,0,1,-582.8097029776604,126.70403703970744) translate(0 14.222222222222223)"/><path d="M-675.88 38.15h-44.82v-1h44.82zm361.48 0h-28.94v-1h28.94z" stroke="#3a414a" stroke-width=".05" fill="#3a414a"/><path d="M-720.7 38.15h-.42l-.17-1h.6z" fill="#3a414a"/><path d="M-720.66 38.18h-.48l-.18-1.05h.66zm-.6-1l.16.95h.4v-.95z" stroke="#3a414a" stroke-width=".05" fill="#3a414a"/><path d="M-299.63 37.65l-14.27 4.64V33z" fill="#3a414a"/><path d="M-298.02 37.65l-16.38 5.33V32.33zm-15.38 3.95l12.15-3.95-12.15-3.94z" stroke="#3a414a" stroke-width=".05" fill="#3a414a"/><use xlink:href="#v" transform="matrix(1,0,0,1,-675.8797322334433,26.988126572855737) translate(0 14.222222222222223)"/><use xlink:href="#w" transform="matrix(1,0,0,1,-675.8797322334433,26.988126572855737) translate(15.308641975308644 14.222222222222223)"/><use xlink:href="#x" transform="matrix(1,0,0,1,-675.8797322334433,26.988126572855737) translate(153.1851851851852 14.222222222222223)"/><use xlink:href="#y" transform="matrix(1,0,0,1,-675.8797322334433,26.988126572855737) translate(170.9135802469136 14.222222222222223)"/><use xlink:href="#z" transform="matrix(1,0,0,1,-675.8797322334433,26.988126572855737) translate(196.5925925925926 14.222222222222223)"/><path d="M-675.88 38.15h-44.82v-1h44.82zM-509.15 27h-1V-53.4h1zm194.67-192.25h-189.1l-2.84.77-1.96 1.96-.77 2.84v84.97h-1v-85.1l.87-3.24 2.34-2.34 3.22-.87h189.24z" stroke="#3a414a" stroke-width=".05" fill="#3a414a"/><path d="M-720.7 38.15h-.42l-.17-1h.6z" fill="#3a414a"/><path d="M-720.66 38.18h-.48l-.18-1.05h.66zm-.6-1l.16.95h.4v-.95z" stroke="#3a414a" stroke-width=".05" fill="#3a414a"/><path d="M-299.7-165.75L-314-161.1v-9.28z" fill="#3a414a"/><path d="M-298.1-165.75l-16.38 5.33v-10.65zm-15.38 3.95l12.15-3.95-12.15-3.95z" stroke="#3a414a" stroke-width=".05" fill="#3a414a"/><use xlink:href="#A" transform="matrix(1,0,0,1,-588.9578511258086,-74.7132857949379) translate(0 14.222222222222223)"/><use xlink:href="#B" transform="matrix(1,0,0,1,-588.9578511258086,-74.7132857949379) translate(25.679012345679016 14.222222222222223)"/><path d="M-988.9 268.32l-.87 3.22-2.34 2.34-3.23.87h-106.57v-1h106.43l2.84-.77 1.96-1.96.77-2.83V166.6h1zm96.12-230.17h-90.55l-2.84.77-1.96 1.97-.77 2.82V145.3h-1V43.6l.87-3.23 2.34-2.34 3.23-.88h90.7z" stroke="#3a414a" stroke-width=".05" fill="#3a414a"/><path d="M-1101.9 274.75h-.42l-.17-1h.6z" fill="#3a414a"/><path d="M-1101.87 274.78h-.47l-.18-1.05h.65zm-.6-1l.17.95h.38v-.95z" stroke="#3a414a" stroke-width=".05" fill="#3a414a"/><path d="M-878 37.65l-14.28 4.64V33z" fill="#3a414a"/><path d="M-876.4 37.65l-16.38 5.33V32.33zm-15.38 3.95l12.15-3.95-12.15-3.94z" stroke="#3a414a" stroke-width=".05" fill="#3a414a"/><use xlink:href="#n" transform="matrix(1,0,0,1,-1004.7077637296661,145.2867142050621) translate(0 14.222222222222223)"/><path d="M-1184.8-1056.4c2.65-2 6.95-2 9.6 0l70.4 52.8c2.65 2 2.65 5.2 0 7.2l-70.4 52.8c-2.65 2-6.95 2-9.6 0l-70.4-52.8c-2.65-2-2.65-5.2 0-7.2z" stroke="#3a414a" fill="#edf5ff"/><use xlink:href="#a" transform="matrix(1,0,0,1,-1255,-1055) translate(0.3703703703703667 46.111111111111114)"/><use xlink:href="#b" transform="matrix(1,0,0,1,-1255,-1055) translate(52.098765432098766 46.111111111111114)"/><use xlink:href="#c" transform="matrix(1,0,0,1,-1255,-1055) translate(97.77777777777779 46.111111111111114)"/><use xlink:href="#d" transform="matrix(1,0,0,1,-1255,-1055) translate(123.70370370370371 46.111111111111114)"/><use xlink:href="#e" transform="matrix(1,0,0,1,-1255,-1055) translate(22.561728395061728 72.77777777777777)"/><path d="M-1319.5-465.93l-.87 3.22-2.34 2.33-3.23.87h-55.97v-1h55.83l2.84-.77 1.96-1.96.77-2.84v-253.26h1zm45.52-533.57h-39.95l-2.84.77-1.96 1.96-.77 2.84v253.26h-1v-253.4l.87-3.22 2.34-2.33 3.23-.87h40.1z" stroke="#3a414a" stroke-width=".05" fill="#3a414a"/><path d="M-1381.9-459.5h-.42l-.17-1h.6z" fill="#3a414a"/><path d="M-1381.87-459.48h-.47l-.18-1.04h.65zm-.6-1l.17.96h.38v-.96z" stroke="#3a414a" stroke-width=".05" fill="#3a414a"/><path d="M-1259.2-1000l-14.28 4.64v-9.28z" fill="#3a414a"/><path d="M-1257.6-1000l-16.38 5.32v-10.64zm-15.38 3.95l12.15-3.95-12.15-3.95z" stroke="#3a414a" stroke-width=".05" fill="#3a414a"/><use xlink:href="#n" transform="matrix(1,0,0,1,-1335.3086419753085,-740.6666666666666) translate(0 14.222222222222223)"/><path d="M-944.8-555.34c2.65-2 6.95-2 9.6 0l70.4 52.8c2.65 2 2.65 5.2 0 7.2l-70.4 52.8c-2.65 2-6.95 2-9.6 0l-70.4-52.8c-2.65-2-2.65-5.2 0-7.2z" stroke="#3a414a" fill="#edf5ff"/><use xlink:href="#o" transform="matrix(1,0,0,1,-1015,-553.9423820248912) translate(14.567901234567898 32.77777777777778)"/><use xlink:href="#p" transform="matrix(1,0,0,1,-1015,-553.9423820248912) translate(68.82716049382717 32.77777777777778)"/><use xlink:href="#C" transform="matrix(1,0,0,1,-1015,-553.9423820248912) translate(115.67901234567901 32.77777777777778)"/><use xlink:href="#d" transform="matrix(1,0,0,1,-1015,-553.9423820248912) translate(62.03703703703704 59.44444444444445)"/><use xlink:href="#D" transform="matrix(1,0,0,1,-1015,-553.9423820248912) translate(10.246913580246911 86.11111111111111)"/><path d="M-1059.5-505l.77 2.83 1.96 1.96 2.84.76h19.95v1h-20.1l-3.2-.87-2.35-2.35-.87-3.23V-738.8h1zm-3.2-494.63l2.33 2.34.87 3.23v233.93h-1v-233.8l-.77-2.83-1.96-1.96-2.84-.77h-35.83v-1h35.97z" stroke="#3a414a" stroke-width=".05" fill="#3a414a"/><path d="M-1101.9-999.5h-.42l-.17-1h.6z" fill="#3a414a"/><path d="M-1101.87-999.48h-.47l-.18-1.04h.65zm-.6-1l.17.96h.38v-.96z" stroke="#3a414a" stroke-width=".05" fill="#3a414a"/><path d="M-1019.2-498.94l-14.28 4.63v-9.28z" fill="#3a414a"/><path d="M-1017.6-498.94l-16.38 5.32v-10.65zm-15.38 3.94l12.15-3.94-12.15-3.95z" stroke="#3a414a" stroke-width=".05" fill="#3a414a"/><use xlink:href="#f" transform="matrix(1,0,0,1,-1071.8024691358025,-760.1378576791122) translate(0 14.222222222222223)"/><path d="M-73.6-407.17c30.93 0 56 17.9 56 40s-25.07 40-56 40h-168c-30.92 0-56-17.9-56-40s25.08-40 56-40z" stroke="#3a414a" fill="#fff0f0"/><use xlink:href="#E" transform="matrix(1,0,0,1,-292.5964870174298,-402.16535433071033) translate(75.83333333333333 39.65277777777778)"/><path d="M-832.7-498.57l2.33 2.34.87 3.22v119.77l.77 2.83 1.96 1.97 2.84.76h166v1h-166.14l-3.22-.87-2.33-2.34-.87-3.22v-119.78l-.77-2.83-1.96-1.98-2.84-.76h-25.83v-1h25.97zm518.22 130.9v1h-319.86v-1z" stroke="#3a414a" stroke-width=".05" fill="#3a414a"/><path d="M-861.9-498.44h-.42l-.17-1h.6z" fill="#3a414a"/><path d="M-861.87-498.42h-.47l-.18-1.05h.65zm-.6-1l.17.95h.38v-.95z" stroke="#3a414a" stroke-width=".05" fill="#3a414a"/><path d="M-299.7-367.17l-14.28 4.64v-9.27z" fill="#3a414a"/><path d="M-298.1-367.17l-16.38 5.33v-10.65zm-15.38 3.95l12.15-3.95-12.15-3.94z" stroke="#3a414a" stroke-width=".05" fill="#3a414a"/><use xlink:href="#f" transform="matrix(1,0,0,1,-657.9410703790354,-377.832020997377) translate(0 14.222222222222223)"/><path d="M-724.8-722.15c2.65-2 6.95-2 9.6 0l70.4 52.8c2.65 2 2.65 5.2 0 7.2l-70.4 52.8c-2.65 2-6.95 2-9.6 0l-70.4-52.8c-2.65-2-2.65-5.2 0-7.2z" stroke="#3a414a" fill="#edf5ff"/><use xlink:href="#F" transform="matrix(1,0,0,1,-795,-720.7480314960649) translate(5.956790123456798 46.111111111111114)"/><use xlink:href="#c" transform="matrix(1,0,0,1,-795,-720.7480314960649) translate(52.80864197530865 46.111111111111114)"/><use xlink:href="#G" transform="matrix(1,0,0,1,-795,-720.7480314960649) translate(78.73456790123457 46.111111111111114)"/><use xlink:href="#d" transform="matrix(1,0,0,1,-795,-720.7480314960649) translate(118.11728395061728 46.111111111111114)"/><use xlink:href="#H" transform="matrix(1,0,0,1,-795,-720.7480314960649) translate(10.864197530864189 72.77777777777777)"/><path d="M-73.6-625.75c30.93 0 56 17.9 56 40s-25.07 40-56 40h-168c-30.92 0-56-17.9-56-40s25.08-40 56-40z" stroke="#3a414a" fill="#fff0f0"/><use xlink:href="#E" transform="matrix(1,0,0,1,-292.5964870174298,-620.7480314960649) translate(75.83333333333333 39.65277777777778)"/><path d="M-829.5-504.88l-.87 3.23-2.34 2.34-3.23.86h-25.97v-1h25.83l2.84-.77 1.96-1.97.77-2.84v-66.68h1zm15.52-160.37h-9.95l-2.84.77-1.96 1.96-.77 2.84V-593h-1v-66.8l.87-3.24 2.34-2.34 3.23-.87h10.1z" stroke="#3a414a" stroke-width=".05" fill="#3a414a"/><path d="M-861.9-498.44h-.42l-.17-1h.6z" fill="#3a414a"/><path d="M-861.87-498.42h-.47l-.18-1.05h.65zm-.6-1l.17.95h.38v-.95z" stroke="#3a414a" stroke-width=".05" fill="#3a414a"/><path d="M-799.2-665.75l-14.28 4.64v-9.28z" fill="#3a414a"/><path d="M-797.6-665.75l-16.38 5.33v-10.65zm-15.38 3.95l12.15-3.95-12.15-3.95z" stroke="#3a414a" stroke-width=".05" fill="#3a414a"/><use xlink:href="#n" transform="matrix(1,0,0,1,-845.3086419753087,-593.0118734271447) translate(0 14.222222222222223)"/><path d="M-524.8-964.5c2.65-2 6.95-2 9.6 0l70.4 52.8c2.65 1.98 2.65 5.2 0 7.2l-70.4 52.8c-2.65 1.98-6.95 1.98-9.6 0l-70.4-52.8c-2.65-2-2.65-5.22 0-7.2z" stroke="#3a414a" fill="#edf5ff"/><use xlink:href="#I" transform="matrix(1,0,0,1,-595,-963.1049147651797) translate(34.96913580246913 46.111111111111114)"/><use xlink:href="#J" transform="matrix(1,0,0,1,-595,-963.1049147651797) translate(20.123456790123456 72.77777777777777)"/><path d="M-73.6-1105.75c30.93 0 56 17.9 56 40s-25.07 40-56 40h-168c-30.92 0-56-17.9-56-40s25.08-40 56-40z" stroke="#3a414a" fill="#e3fae3"/><use xlink:href="#K" transform="matrix(1,0,0,1,-292.5964870174298,-1100.7480314960649) translate(-0.6172839506172352 39.44444444444444)"/><path d="M-73.6-825.75c30.93 0 56 17.9 56 40s-25.07 40-56 40h-168c-30.92 0-56-17.9-56-40s25.08-40 56-40z" stroke="#3a414a" fill="#fff0f0"/><use xlink:href="#L" transform="matrix(1,0,0,1,-292.5964870174298,-820.7480314960649) translate(-5.524691358024654 39.44444444444444)"/><path d="M-73.6-965.75c30.93 0 56 17.9 56 40s-25.07 40-56 40h-168c-30.92 0-56-17.9-56-40s25.08-40 56-40z" stroke="#3a414a" fill="#e3fae3"/><use xlink:href="#M" transform="matrix(1,0,0,1,-292.5964870174298,-960.7480314960649) translate(2.5000000000000284 39.65277777777778)"/><path d="M-385.5-907.6h-56.4v-1h56.4zm15.75-20h-1v-48.66h1zm55.27-137.65h-49.7l-2.84.77-1.96 1.96-.77 2.84v62.1h-1v-62.23l.87-3.24 2.34-2.34 3.22-.87h49.84z" stroke="#3a414a" stroke-width=".05" fill="#3a414a"/><path d="M-441.9-907.6h-.42l-.17-1h.6z" fill="#3a414a"/><path d="M-441.87-907.58h-.47l-.18-1.05h.65zm-.6-1l.17.95h.38v-.95z" stroke="#3a414a" stroke-width=".05" fill="#3a414a"/><path d="M-299.7-1065.75l-14.28 4.64v-9.28z" fill="#3a414a"/><path d="M-298.1-1065.75l-16.38 5.33v-10.65zm-15.38 3.95l12.15-3.95-12.15-3.95z" stroke="#3a414a" stroke-width=".05" fill="#3a414a"/><use xlink:href="#N" transform="matrix(1,0,0,1,-387.50934665540177,-997.5931397972889) translate(0 14.222222222222223)"/><path d="M-385.5-907.6h-56.4v-1h56.4zm71.02-17.65h-40.5v-1h40.5z" stroke="#3a414a" stroke-width=".05" fill="#3a414a"/><path d="M-441.9-907.6h-.42l-.17-1h.6z" fill="#3a414a"/><path d="M-441.87-907.58h-.47l-.18-1.05h.65zm-.6-1l.17.95h.38v-.95z" stroke="#3a414a" stroke-width=".05" fill="#3a414a"/><path d="M-299.7-925.75L-314-921.1v-9.28z" fill="#3a414a"/><path d="M-298.1-925.75l-16.38 5.33v-10.65zm-15.38 3.95l12.15-3.95-12.15-3.95z" stroke="#3a414a" stroke-width=".05" fill="#3a414a"/><use xlink:href="#O" transform="matrix(1,0,0,1,-385.50934665540177,-927.5931397972889) translate(0 14.222222222222223)"/><path d="M-369.75-791.8l.77 2.82 1.96 1.96 2.84.77h49.7v1h-49.84l-3.22-.87-2.34-2.34-.87-3.22v-44.58h1zm-.87-113.6l.87 3.23v44.58h-1v-44.44l-.77-2.83-1.38-1.4h1.4zm-71.28-2.2v-1h56.4v1z" stroke="#3a414a" stroke-width=".05" fill="#3a414a"/><path d="M-441.9-907.6h-.42l-.17-1h.6z" fill="#3a414a"/><path d="M-441.87-907.58h-.47l-.18-1.05h.65zm-.6-1l.17.95h.38v-.95z" stroke="#3a414a" stroke-width=".05" fill="#3a414a"/><path d="M-299.7-785.75L-314-781.1v-9.28z" fill="#3a414a"/><path d="M-298.1-785.75l-16.38 5.33v-10.65zm-15.38 3.95l12.15-3.95-12.15-3.95z" stroke="#3a414a" stroke-width=".05" fill="#3a414a"/><use xlink:href="#P" transform="matrix(1,0,0,1,-385.50934665540177,-857.5931397972889) translate(0 14.222222222222223)"/><path d="M-619.5-671.68l-.87 3.22-2.34 2.34-3.23.87h-15.97v-1h15.83l2.84-.77 1.96-1.96.77-2.83v-104.46h1zm5.63-235.94l-2.9.78-1.96 1.97-.77 2.83v104.45h-1v-104.57l.87-3.22 2.34-2.33 3.17-.86z" stroke="#3a414a" stroke-width=".05" fill="#3a414a"/><path d="M-641.9-665.25h-.42l-.17-1h.6z" fill="#3a414a"/><path d="M-641.87-665.22h-.47l-.18-1.05h.65zm-.6-1l.17.95h.38v-.95z" stroke="#3a414a" stroke-width=".05" fill="#3a414a"/><path d="M-599.2-908.1l-14.28 4.63v-9.27z" fill="#3a414a"/><path d="M-597.6-908.1l-16.38 5.32v-10.65zm-15.38 3.94l12.15-3.94-12.15-3.95z" stroke="#3a414a" stroke-width=".05" fill="#3a414a"/><use xlink:href="#n" transform="matrix(1,0,0,1,-635.3086419753087,-797.5931397972889) translate(0 14.222222222222223)"/><path d="M-622.7-665.38l2.33 2.34.87 3.23v68l.77 2.82 1.96 1.96 2.84.77h91.88v1h-92.02l-3.22-.87-2.33-2.34-.87-3.22v-68l-.77-2.84-1.96-1.96-2.84-.77h-15.83v-1h15.97zm308.22 79.13v1h-183.97v-1z" stroke="#3a414a" stroke-width=".05" fill="#3a414a"/><path d="M-641.9-665.25h-.42l-.17-1h.6z" fill="#3a414a"/><path d="M-641.87-665.22h-.47l-.18-1.05h.65zm-.6-1l.17.95h.38v-.95z" stroke="#3a414a" stroke-width=".05" fill="#3a414a"/><path d="M-299.7-585.75L-314-581.1v-9.28z" fill="#3a414a"/><path d="M-298.1-585.75l-16.38 5.33v-10.65zm-15.38 3.95l12.15-3.95-12.15-3.95z" stroke="#3a414a" stroke-width=".05" fill="#3a414a"/><use xlink:href="#f" transform="matrix(1,0,0,1,-522.052556531945,-596.4146981627315) translate(0 14.222222222222223)"/><path d="M-944.8-1536.4c2.65-2 6.95-2 9.6 0l70.4 52.8c2.65 2 2.65 5.2 0 7.2l-70.4 52.8c-2.65 2-6.95 2-9.6 0l-70.4-52.8c-2.65-2-2.65-5.2 0-7.2z" stroke="#3a414a" fill="#edf5ff"/><use xlink:href="#o" transform="matrix(1,0,0,1,-1015,-1535) translate(5 46.111111111111114)"/><use xlink:href="#p" transform="matrix(1,0,0,1,-1015,-1535) translate(59.25925925925927 46.111111111111114)"/><use xlink:href="#c" transform="matrix(1,0,0,1,-1015,-1535) translate(106.11111111111111 46.111111111111114)"/><use xlink:href="#Q" transform="matrix(1,0,0,1,-1015,-1535) translate(132.03703703703704 46.111111111111114)"/><use xlink:href="#R" transform="matrix(1,0,0,1,-1015,-1535) translate(17.03703703703703 72.77777777777777)"/><path d="M-1464.8-516.4c2.65-2 6.95-2 9.6 0l70.4 52.8c2.65 2 2.65 5.2 0 7.2l-70.4 52.8c-2.65 2-6.95 2-9.6 0l-70.4-52.8c-2.65-2-2.65-5.2 0-7.2z" stroke="#3a414a" fill="#edf5ff"/><use xlink:href="#S" transform="matrix(1,0,0,1,-1535,-515) translate(27.561728395061735 46.111111111111114)"/><use xlink:href="#d" transform="matrix(1,0,0,1,-1535,-515) translate(96.51234567901234 46.111111111111114)"/><use xlink:href="#T" transform="matrix(1,0,0,1,-1535,-515) translate(22.623456790123456 72.77777777777777)"/><path d="M-1780-514c0-3.3 2.7-6 6-6h148c3.3 0 6 2.7 6 6v108c0 3.3-2.7 6-6 6h-148c-3.3 0-6-2.7-6-6z" stroke="#5e5e5e" stroke-width="3" fill="#6db1ff"/><use xlink:href="#U" transform="matrix(1,0,0,1,-1768,-508) translate(19.94444444444445 53.77777777777778)"/><path d="M-1617.5-460h61.4" stroke="#5e5e5e" stroke-width="2" fill="none"/><path d="M-1617.47-459h-1.03v-2h1.03z" stroke="#5e5e5e" stroke-width=".05" fill="#5e5e5e"/><path d="M-1540.83-460l-14.27 4.64v-9.28z" stroke="#5e5e5e" stroke-width="2" fill="#5e5e5e"/><path d="M-1059-1005.87l-.92 3.42-2.53 2.53-3.42.92h-35.53v-2h35.27l2.64-.7 1.8-1.8.7-2.63v-223.2h2zm22.9-473.13h-17.77l-2.64.7-1.8 1.8-.7 2.63v223.2h-2v-223.46l.92-3.42 2.53-2.53 3.42-.92h18.03z" stroke="#5e5e5e" stroke-width=".05" fill="#5e5e5e"/><path d="M-1101.38-999h-1.15l.2-.5-.25-1.5h1.2z" fill="#5e5e5e"/><path d="M-1101.35-998.98h-1.22l.23-.53-.26-1.52h1.25zm-1.2-2l.26 1.47-.2.48h1.1v-1.96z" stroke="#5e5e5e" stroke-width=".05" fill="#5e5e5e"/><path d="M-1020.83-1480l-14.27 4.64v-9.28z" fill="#5e5e5e"/><path d="M-1017.6-1480l-18.5 6v-12zm-16.5 3.26l10.03-3.26-10.03-3.26z" stroke="#5e5e5e" stroke-width=".05" fill="#5e5e5e"/><use xlink:href="#n" transform="matrix(1,0,0,1,-1075.3086419753085,-1250.6666666666667) translate(0.005000000000000782 14.222222222222223)"/><path d="M-819-1485.87l-.92 3.42-2.53 2.53-3.42.92h-35.53v-2h35.27l2.64-.7 1.8-1.8.7-2.63v-113.2h2zm22.9-253.13h-17.77l-2.64.7-1.8 1.8-.7 2.63v113.2h-2v-113.46l.92-3.42 2.53-2.53 3.42-.92h18.03z" stroke="#5e5e5e" stroke-width=".05" fill="#5e5e5e"/><path d="M-861.38-1479h-1.15l.2-.5-.25-1.5h1.2z" fill="#5e5e5e"/><path d="M-861.35-1478.97h-1.22l.23-.54-.26-1.53h1.25zm-1.2-2l.26 1.46-.2.47h1.1v-1.94z" stroke="#5e5e5e" stroke-width=".05" fill="#5e5e5e"/><path d="M-780.83-1740l-14.27 4.64v-9.28z" fill="#5e5e5e"/><path d="M-777.6-1740l-18.5 6v-12zm-16.5 3.26l10.03-3.26-10.03-3.26z" stroke="#5e5e5e" stroke-width=".05" fill="#5e5e5e"/><use xlink:href="#V" transform="matrix(1,0,0,1,-828.395061728395,-1620.6666666666667) translate(0.005000000000000782 14.222222222222223)"/><path d="M-73.6-1280c30.93 0 56 17.9 56 40s-25.07 40-56 40h-168c-30.92 0-56-17.9-56-40s25.08-40 56-40z" stroke="#3a414a" fill="#fff0f0"/><use xlink:href="#W" transform="matrix(1,0,0,1,-292.5964870174298,-1275) translate(27.12962962962966 39.65277777777778)"/><path d="M-822.45-1480.08l2.53 2.53.92 3.42v228l.7 2.64 1.8 1.8 2.63.7h101.82v2h-102.08l-3.42-.92-2.53-2.53-.92-3.42v-228l-.7-2.64-1.8-1.8-2.63-.7h-35.27v-2h35.53zM-316.6-1241v2h-371.85v-2z" stroke="#5e5e5e" stroke-width=".05" fill="#5e5e5e"/><path d="M-861.38-1479h-1.15l.2-.5-.25-1.5h1.2z" fill="#5e5e5e"/><path d="M-861.35-1478.97h-1.22l.23-.54-.26-1.53h1.25zm-1.2-2l.26 1.46-.2.47h1.1v-1.94z" stroke="#5e5e5e" stroke-width=".05" fill="#5e5e5e"/><path d="M-301.33-1240l-14.27 4.64v-9.28z" fill="#5e5e5e"/><path d="M-298.1-1240l-18.5 6v-12zm-16.5 3.26l10.03-3.26-10.03-3.26z" stroke="#5e5e5e" stroke-width=".05" fill="#5e5e5e"/><use xlink:href="#f" transform="matrix(1,0,0,1,-712.052556531945,-1250.6666666666667) translate(0.005000000000000782 14.222222222222223)"/><path d="M-704.8-1796.4c2.65-2 6.95-2 9.6 0l70.4 52.8c2.65 2 2.65 5.2 0 7.2l-70.4 52.8c-2.65 2-6.95 2-9.6 0l-70.4-52.8c-2.65-2-2.65-5.2 0-7.2z" stroke="#3a414a" fill="#edf5ff"/><use xlink:href="#F" transform="matrix(1,0,0,1,-775,-1795) translate(5.956790123456798 46.111111111111114)"/><use xlink:href="#c" transform="matrix(1,0,0,1,-775,-1795) translate(52.80864197530865 46.111111111111114)"/><use xlink:href="#G" transform="matrix(1,0,0,1,-775,-1795) translate(78.73456790123457 46.111111111111114)"/><use xlink:href="#d" transform="matrix(1,0,0,1,-775,-1795) translate(118.11728395061728 46.111111111111114)"/><use xlink:href="#H" transform="matrix(1,0,0,1,-775,-1795) translate(10.864197530864189 72.77777777777777)"/><path d="M-73.6-1500c30.93 0 56 17.9 56 40s-25.07 40-56 40h-168c-30.92 0-56-17.9-56-40s25.08-40 56-40z" stroke="#3a414a" fill="#e3fae3"/><use xlink:href="#X" transform="matrix(1,0,0,1,-292.5964870174298,-1495) translate(83.85802469135803 39.65277777777778)"/><path d="M-484.8-1836.4c2.65-2 6.95-2 9.6 0l70.4 52.8c2.65 2 2.65 5.2 0 7.2l-70.4 52.8c-2.65 2-6.95 2-9.6 0l-70.4-52.8c-2.65-2-2.65-5.2 0-7.2z" stroke="#3a414a" fill="#edf5ff"/><g><use xlink:href="#I" transform="matrix(1,0,0,1,-555,-1835) translate(34.96913580246913 46.111111111111114)"/><use xlink:href="#J" transform="matrix(1,0,0,1,-555,-1835) translate(20.123456790123456 72.77777777777777)"/></g><path d="M-73.6-1962.17c30.93 0 56 17.9 56 40s-25.07 40-56 40h-168c-30.92 0-56-17.9-56-40s25.08-40 56-40z" stroke="#3a414a" fill="#e3fae3"/><g><use xlink:href="#Y" transform="matrix(1,0,0,1,-292.5964870174298,-1957.1676051000134) translate(37.03703703703705 39.65277777777778)"/></g><path d="M-73.6-1682.17c30.93 0 56 17.9 56 40s-25.07 40-56 40h-168c-30.92 0-56-17.9-56-40s25.08-40 56-40z" stroke="#3a414a" fill="#fff0f0"/><g><use xlink:href="#Z" transform="matrix(1,0,0,1,-292.5964870174298,-1677.1676051000131) translate(32.12962962962966 39.65277777777778)"/></g><path d="M-73.6-1822.17c30.93 0 56 17.9 56 40s-25.07 40-56 40h-168c-30.92 0-56-17.9-56-40s25.08-40 56-40z" stroke="#3a414a" fill="#e3fae3"/><g><use xlink:href="#aa" transform="matrix(1,0,0,1,-292.5964870174298,-1817.1676051000131) translate(40.154320987654344 39.65277777777778)"/></g><path d="M-365.5-1779.5h-36.4v-1h36.4zm15.75-12.25h-1v-48.67h1zm35.27-129.92h-29.7l-2.84.77-1.96 1.96-.77 2.84v54.35h-1v-54.48l.87-3.23 2.34-2.34 3.22-.87h29.84z" stroke="#3a414a" stroke-width=".05" fill="#3a414a"/><path d="M-401.9-1779.5h-.42l-.17-1h.6z" fill="#3a414a"/><path d="M-401.87-1779.47h-.47l-.18-1.06h.65zm-.6-1l.17.94h.38v-.94z" stroke="#3a414a" stroke-width=".05" fill="#3a414a"/><path d="M-299.7-1922.17l-14.28 4.64v-9.27z" fill="#3a414a"/><path d="M-298.1-1922.17l-16.38 5.33v-10.65zm-15.38 3.95l12.15-3.95-12.15-3.94z" stroke="#3a414a" stroke-width=".05" fill="#3a414a"/><g><use xlink:href="#N" transform="matrix(1,0,0,1,-367.50934665540177,-1861.7504692166733) translate(0 14.222222222222223)"/></g><path d="M-365.5-1779.5h-36.4v-1h36.4zm51.02-2.17h-20.5v-1h20.5z" stroke="#3a414a" stroke-width=".05" fill="#3a414a"/><path d="M-401.9-1779.5h-.42l-.17-1h.6z" fill="#3a414a"/><path d="M-401.87-1779.47h-.47l-.18-1.06h.65zm-.6-1l.17.94h.38v-.94z" stroke="#3a414a" stroke-width=".05" fill="#3a414a"/><path d="M-299.7-1782.17l-14.28 4.64v-9.27z" fill="#3a414a"/><path d="M-298.1-1782.17l-16.38 5.33v-10.65zm-15.38 3.95l12.15-3.95-12.15-3.94z" stroke="#3a414a" stroke-width=".05" fill="#3a414a"/><g><use xlink:href="#O" transform="matrix(1,0,0,1,-365.50934665540177,-1791.7504692166733) translate(0 14.222222222222223)"/></g><path d="M-349.75-1648.23l.77 2.83 1.96 1.97 2.84.76h29.7v1h-29.84l-3.22-.87-2.34-2.34-.87-3.22v-52.32h1zm0-73.52h-1v-48.67h1zm-52.15-57.75v-1h36.4v1z" stroke="#3a414a" stroke-width=".05" fill="#3a414a"/><path d="M-401.9-1779.5h-.42l-.17-1h.6z" fill="#3a414a"/><path d="M-401.87-1779.47h-.47l-.18-1.06h.65zm-.6-1l.17.94h.38v-.94z" stroke="#3a414a" stroke-width=".05" fill="#3a414a"/><path d="M-299.7-1642.17l-14.28 4.64v-9.27z" fill="#3a414a"/><path d="M-298.1-1642.17l-16.38 5.33v-10.65zm-15.38 3.95l12.15-3.95-12.15-3.94z" stroke="#3a414a" stroke-width=".05" fill="#3a414a"/><g><use xlink:href="#P" transform="matrix(1,0,0,1,-365.50934665540177,-1721.7504692166733) translate(0 14.222222222222223)"/></g><path d="M-589.5-1745.93l-.87 3.22-2.34 2.33-3.23.87h-25.97v-1h25.83l2.84-.77 1.96-1.96.77-2.84v-3.26h1zm15.52-33.57h-9.95l-2.84.77-1.96 1.96-.77 2.84v3.26h-1v-3.4l.87-3.22 2.34-2.33 3.23-.87h10.1z" stroke="#3a414a" stroke-width=".05" fill="#3a414a"/><path d="M-621.9-1739.5h-.42l-.17-1h.6z" fill="#3a414a"/><path d="M-621.87-1739.47h-.47l-.18-1.06h.65zm-.6-1l.17.94h.38v-.94z" stroke="#3a414a" stroke-width=".05" fill="#3a414a"/><path d="M-559.2-1780l-14.28 4.64v-9.28z" fill="#3a414a"/><path d="M-557.6-1780l-16.38 5.32v-10.64zm-15.38 3.95l12.15-3.95-12.15-3.95z" stroke="#3a414a" stroke-width=".05" fill="#3a414a"/><g><use xlink:href="#n" transform="matrix(1,0,0,1,-605.3086419753087,-1770.6666666666667) translate(0 14.222222222222223)"/></g><path d="M-314.48-1460.5v1h-269.6l-.3-.08h6.18v-.92zm-278.23-279.13l2.33 2.34.87 3.23v253.15h-1v-253l-.77-2.85-1.96-1.96-2.84-.77h-25.83v-1h25.97z" stroke="#3a414a" stroke-width=".05" fill="#3a414a"/><path d="M-621.9-1739.5h-.42l-.17-1h.6z" fill="#3a414a"/><path d="M-621.87-1739.47h-.47l-.18-1.06h.65zm-.6-1l.17.94h.38v-.94z" stroke="#3a414a" stroke-width=".05" fill="#3a414a"/><path d="M-299.7-1460l-14.28 4.64v-9.28z" fill="#3a414a"/><path d="M-298.1-1460l-16.38 5.32v-10.64zm-15.38 3.95l12.15-3.95-12.15-3.95z" stroke="#3a414a" stroke-width=".05" fill="#3a414a"/><g><use xlink:href="#f" transform="matrix(1,0,0,1,-601.8024691358024,-1480.9167540628093) translate(0 14.222222222222223)"/></g><defs><path fill="#3a414a" d="M233-177c-1 41-23 64-60 70L243 0h-38l-65-103H63V0H30v-248c88 3 205-21 203 71zM63-129c60-2 137 13 137-47 0-61-80-42-137-45v92" id="ab"/><path fill="#3a414a" d="M190 0L58-211 59 0H30v-248h39L202-35l-2-213h31V0h-41" id="ac"/><path fill="#3a414a" d="M205 0l-28-72H64L36 0H1l101-248h38L239 0h-34zm-38-99l-47-123c-12 45-31 82-46 123h93" id="ad"/><g id="a"><use transform="matrix(0.06172839506172839,0,0,0.06172839506172839,0,0)" xlink:href="#ab"/><use transform="matrix(0.06172839506172839,0,0,0.06172839506172839,15.987654320987653,0)" xlink:href="#ac"/><use transform="matrix(0.06172839506172839,0,0,0.06172839506172839,31.975308641975307,0)" xlink:href="#ad"/></g><path fill="#3a414a" d="M185-189c-5-48-123-54-124 2 14 75 158 14 163 119 3 78-121 87-175 55-17-10-28-26-33-46l33-7c5 56 141 63 141-1 0-78-155-14-162-118-5-82 145-84 179-34 5 7 8 16 11 25" id="ae"/><path fill="#3a414a" d="M100-194c63 0 86 42 84 106H49c0 40 14 67 53 68 26 1 43-12 49-29l28 8c-11 28-37 45-77 45C44 4 14-33 15-96c1-61 26-98 85-98zm52 81c6-60-76-77-97-28-3 7-6 17-6 28h103" id="af"/><path fill="#3a414a" d="M145-31C134-9 116 4 85 4 32 4 16-35 15-94c0-59 17-99 70-100 32-1 48 14 60 33 0-11-1-24 2-32h30l-1 268h-32zM93-21c41 0 51-33 51-76s-8-73-50-73c-40 0-46 35-46 75s5 74 45 74" id="ag"/><g id="b"><use transform="matrix(0.06172839506172839,0,0,0.06172839506172839,0,0)" xlink:href="#ae"/><use transform="matrix(0.06172839506172839,0,0,0.06172839506172839,14.814814814814813,0)" xlink:href="#af"/><use transform="matrix(0.06172839506172839,0,0,0.06172839506172839,27.160493827160494,0)" xlink:href="#ag"/></g><path fill="#3a414a" d="M252-156c43 0 55 33 55 80 0 46-13 78-56 78-42 0-55-33-55-78 0-48 12-80 56-80zM93 0H65l162-248h28zM13-171c-1-47 13-79 56-79s55 33 55 79-13 79-55 79c-43 0-56-33-56-79zM251-17c28 0 30-29 30-59 0-31-1-60-29-60-29 0-31 29-31 60 0 29 2 59 30 59zM69-112c27 0 28-30 29-59 0-31-1-60-29-60-29 0-30 30-30 60s2 59 30 59" id="ah"/><use transform="matrix(0.06172839506172839,0,0,0.06172839506172839,0,0)" xlink:href="#ah" id="c"/><path fill="#3a414a" d="M18-27v-27l151-64-151-65v-27l175 74v36" id="ai"/><path fill="#3a414a" d="M18-150v-26h174v26H18zm0 90v-26h174v26H18" id="aj"/><g id="d"><use transform="matrix(0.06172839506172839,0,0,0.06172839506172839,0,0)" xlink:href="#ai"/><use transform="matrix(0.06172839506172839,0,0,0.06172839506172839,12.962962962962962,0)" xlink:href="#aj"/></g><path fill="#cc4e00" d="M59-47c-2 24 18 29 38 22v24C64 9 27 4 27-40v-127H5v-23h24l9-43h21v43h35v23H59v120" id="ak"/><path fill="#cc4e00" d="M106-169C34-169 62-67 57 0H25v-261h32l-1 103c12-21 28-36 61-36 89 0 53 116 60 194h-32v-121c2-32-8-49-39-48" id="al"/><path fill="#cc4e00" d="M-5 72V49h209v23H-5" id="am"/><path fill="#cc4e00" d="M114-163C36-179 61-72 57 0H25l-1-190h30c1 12-1 29 2 39 6-27 23-49 58-41v29" id="an"/><path fill="#cc4e00" d="M117-194c89-4 53 116 60 194h-32v-121c0-31-8-49-39-48C34-167 62-67 57 0H25l-1-190h30c1 10-1 24 2 32 11-22 29-35 61-36" id="ao"/><path fill="#cc4e00" d="M141-36C126-15 110 5 73 4 37 3 15-17 15-53c-1-64 63-63 125-63 3-35-9-54-41-54-24 1-41 7-42 31l-33-3c5-37 33-52 76-52 45 0 72 20 72 64v82c-1 20 7 32 28 27v20c-31 9-61-2-59-35zM48-53c0 20 12 33 32 33 41-3 63-29 60-74-43 2-92-5-92 41" id="ap"/><path fill="#cc4e00" d="M115-194c55 1 70 41 70 98S169 2 115 4C84 4 66-9 55-30l1 105H24l-1-265h31l2 30c10-21 28-34 59-34zm-8 174c40 0 45-34 45-75s-6-73-45-74c-42 0-51 32-51 76 0 43 10 73 51 73" id="aq"/><path fill="#cc4e00" d="M96-169c-40 0-48 33-48 73s9 75 48 75c24 0 41-14 43-38l32 2c-6 37-31 61-74 61-59 0-76-41-82-99-10-93 101-131 147-64 4 7 5 14 7 22l-32 3c-4-21-16-35-41-35" id="ar"/><g id="e"><use transform="matrix(0.06172839506172839,0,0,0.06172839506172839,0,0)" xlink:href="#ak"/><use transform="matrix(0.06172839506172839,0,0,0.06172839506172839,6.172839506172839,0)" xlink:href="#al"/><use transform="matrix(0.06172839506172839,0,0,0.06172839506172839,18.51851851851852,0)" xlink:href="#am"/><use transform="matrix(0.06172839506172839,0,0,0.06172839506172839,30.864197530864196,0)" xlink:href="#an"/><use transform="matrix(0.06172839506172839,0,0,0.06172839506172839,38.20987654320987,0)" xlink:href="#ao"/><use transform="matrix(0.06172839506172839,0,0,0.06172839506172839,50.55555555555555,0)" xlink:href="#ap"/><use transform="matrix(0.06172839506172839,0,0,0.06172839506172839,62.90123456790123,0)" xlink:href="#aq"/><use transform="matrix(0.06172839506172839,0,0,0.06172839506172839,75.24691358024691,0)" xlink:href="#ar"/><use transform="matrix(0.06172839506172839,0,0,0.06172839506172839,86.35802469135803,0)" xlink:href="#ao"/><use transform="matrix(0.06172839506172839,0,0,0.06172839506172839,98.70370370370371,0)" xlink:href="#ak"/></g><path fill="#333" d="M175 0L67-191c6 58 2 128 3 191H24v-248h59L193-55c-6-58-2-129-3-193h46V0h-61" id="as"/><path fill="#333" d="M110-194c64 0 96 36 96 99 0 64-35 99-97 99-61 0-95-36-95-99 0-62 34-99 96-99zm-1 164c35 0 45-28 45-65 0-40-10-65-43-65-34 0-45 26-45 65 0 36 10 65 43 65" id="at"/><g id="f"><use transform="matrix(0.04938271604938272,0,0,0.04938271604938272,0,0)" xlink:href="#as"/><use transform="matrix(0.04938271604938272,0,0,0.04938271604938272,12.790123456790125,0)" xlink:href="#at"/></g><path fill="#3a414a" d="M240 0l2-218c-23 76-54 145-80 218h-23L58-218 59 0H30v-248h44l77 211c21-75 51-140 76-211h43V0h-30" id="au"/><path fill="#3a414a" d="M141-36C126-15 110 5 73 4 37 3 15-17 15-53c-1-64 63-63 125-63 3-35-9-54-41-54-24 1-41 7-42 31l-33-3c5-37 33-52 76-52 45 0 72 20 72 64v82c-1 20 7 32 28 27v20c-31 9-61-2-59-35zM48-53c0 20 12 33 32 33 41-3 63-29 60-74-43 2-92-5-92 41" id="av"/><path fill="#3a414a" d="M141 0L90-78 38 0H4l68-98-65-92h35l48 74 47-74h35l-64 92 68 98h-35" id="aw"/><path fill="#3a414a" d="M33 0v-38h34V0H33" id="ax"/><g id="g"><use transform="matrix(0.06172839506172839,0,0,0.06172839506172839,0,0)" xlink:href="#au"/><use transform="matrix(0.06172839506172839,0,0,0.06172839506172839,18.456790123456788,0)" xlink:href="#av"/><use transform="matrix(0.06172839506172839,0,0,0.06172839506172839,30.80246913580247,0)" xlink:href="#aw"/><use transform="matrix(0.06172839506172839,0,0,0.06172839506172839,41.91358024691358,0)" xlink:href="#ax"/></g><path fill="#3a414a" d="M85-194c31 0 48 13 60 33l-1-100h32l1 261h-30c-2-10 0-23-3-31C134-8 116 4 85 4 32 4 16-35 15-94c0-66 23-100 70-100zm9 24c-40 0-46 34-46 75 0 40 6 74 45 74 42 0 51-32 51-76 0-42-9-74-50-73" id="ay"/><g id="h"><use transform="matrix(0.06172839506172839,0,0,0.06172839506172839,0,0)" xlink:href="#ab"/><use transform="matrix(0.06172839506172839,0,0,0.06172839506172839,15.987654320987653,0)" xlink:href="#af"/><use transform="matrix(0.06172839506172839,0,0,0.06172839506172839,28.333333333333332,0)" xlink:href="#ay"/></g><use transform="matrix(0.06172839506172839,0,0,0.06172839506172839,0,0)" xlink:href="#ah" id="i"/><g id="j"><use transform="matrix(0.06172839506172839,0,0,0.06172839506172839,0,0)" xlink:href="#ai"/><use transform="matrix(0.06172839506172839,0,0,0.06172839506172839,12.962962962962962,0)" xlink:href="#aj"/></g><path fill="#cc4e00" d="M100-194c63 0 86 42 84 106H49c0 40 14 67 53 68 26 1 43-12 49-29l28 8c-11 28-37 45-77 45C44 4 14-33 15-96c1-61 26-98 85-98zm52 81c6-60-76-77-97-28-3 7-6 17-6 28h103" id="az"/><path fill="#cc4e00" d="M85-194c31 0 48 13 60 33l-1-100h32l1 261h-30c-2-10 0-23-3-31C134-8 116 4 85 4 32 4 16-35 15-94c0-66 23-100 70-100zm9 24c-40 0-46 34-46 75 0 40 6 74 45 74 42 0 51-32 51-76 0-42-9-74-50-73" id="aA"/><path fill="#cc4e00" d="M84 4C-5 8 30-112 23-190h32v120c0 31 7 50 39 49 72-2 45-101 50-169h31l1 190h-30c-1-10 1-25-2-33-11 22-28 36-60 37" id="aB"/><g id="k"><use transform="matrix(0.06172839506172839,0,0,0.06172839506172839,0,0)" xlink:href="#ak"/><use transform="matrix(0.06172839506172839,0,0,0.06172839506172839,6.172839506172839,0)" xlink:href="#al"/><use transform="matrix(0.06172839506172839,0,0,0.06172839506172839,18.51851851851852,0)" xlink:href="#am"/><use transform="matrix(0.06172839506172839,0,0,0.06172839506172839,30.864197530864196,0)" xlink:href="#an"/><use transform="matrix(0.06172839506172839,0,0,0.06172839506172839,38.20987654320987,0)" xlink:href="#az"/><use transform="matrix(0.06172839506172839,0,0,0.06172839506172839,50.55555555555555,0)" xlink:href="#aA"/><use transform="matrix(0.06172839506172839,0,0,0.06172839506172839,62.90123456790123,0)" xlink:href="#aq"/><use transform="matrix(0.06172839506172839,0,0,0.06172839506172839,75.24691358024691,0)" xlink:href="#ar"/><use transform="matrix(0.06172839506172839,0,0,0.06172839506172839,86.35802469135803,0)" xlink:href="#ao"/><use transform="matrix(0.06172839506172839,0,0,0.06172839506172839,98.70370370370371,0)" xlink:href="#ak"/><use transform="matrix(0.06172839506172839,0,0,0.06172839506172839,104.87654320987654,0)" xlink:href="#am"/><use transform="matrix(0.06172839506172839,0,0,0.06172839506172839,117.22222222222223,0)" xlink:href="#aB"/><use transform="matrix(0.06172839506172839,0,0,0.06172839506172839,129.5679012345679,0)" xlink:href="#aq"/></g><path fill="#3a414a" d="M33 0v-248h34V0H33" id="aC"/><path fill="#3a414a" d="M117-194c89-4 53 116 60 194h-32v-121c0-31-8-49-39-48C34-167 62-67 57 0H25l-1-190h30c1 10-1 24 2 32 11-22 29-35 61-36" id="aD"/><path fill="#3a414a" d="M96-169c-40 0-48 33-48 73s9 75 48 75c24 0 41-14 43-38l32 2c-6 37-31 61-74 61-59 0-76-41-82-99-10-93 101-131 147-64 4 7 5 14 7 22l-32 3c-4-21-16-35-41-35" id="aE"/><path fill="#3a414a" d="M59-47c-2 24 18 29 38 22v24C64 9 27 4 27-40v-127H5v-23h24l9-43h21v43h35v23H59v120" id="aF"/><path fill="#3a414a" d="M24-231v-30h32v30H24zM24 0v-190h32V0H24" id="aG"/><path fill="#3a414a" d="M108 0H70L1-190h34L89-25l56-165h34" id="aH"/><path fill="#3a414a" d="M-5 72V49h209v23H-5" id="aI"/><path fill="#3a414a" d="M114-163C36-179 61-72 57 0H25l-1-190h30c1 12-1 29 2 39 6-27 23-49 58-41v29" id="aJ"/><path fill="#3a414a" d="M135-143c-3-34-86-38-87 0 15 53 115 12 119 90S17 21 10-45l28-5c4 36 97 45 98 0-10-56-113-15-118-90-4-57 82-63 122-42 12 7 21 19 24 35" id="aK"/><g id="l"><use transform="matrix(0.06172839506172839,0,0,0.06172839506172839,0,0)" xlink:href="#aC"/><use transform="matrix(0.06172839506172839,0,0,0.06172839506172839,6.172839506172839,0)" xlink:href="#aD"/><use transform="matrix(0.06172839506172839,0,0,0.06172839506172839,18.51851851851852,0)" xlink:href="#av"/><use transform="matrix(0.06172839506172839,0,0,0.06172839506172839,30.864197530864196,0)" xlink:href="#aE"/><use transform="matrix(0.06172839506172839,0,0,0.06172839506172839,41.9753086419753,0)" xlink:href="#aF"/><use transform="matrix(0.06172839506172839,0,0,0.06172839506172839,48.148148148148145,0)" xlink:href="#aG"/><use transform="matrix(0.06172839506172839,0,0,0.06172839506172839,53.02469135802469,0)" xlink:href="#aH"/><use transform="matrix(0.06172839506172839,0,0,0.06172839506172839,64.1358024691358,0)" xlink:href="#af"/><use transform="matrix(0.06172839506172839,0,0,0.06172839506172839,76.48148148148148,0)" xlink:href="#aI"/><use transform="matrix(0.06172839506172839,0,0,0.06172839506172839,88.82716049382717,0)" xlink:href="#aJ"/><use transform="matrix(0.06172839506172839,0,0,0.06172839506172839,96.17283950617285,0)" xlink:href="#aD"/><use transform="matrix(0.06172839506172839,0,0,0.06172839506172839,108.51851851851853,0)" xlink:href="#av"/><use transform="matrix(0.06172839506172839,0,0,0.06172839506172839,120.86419753086422,0)" xlink:href="#aK"/><use transform="matrix(0.06172839506172839,0,0,0.06172839506172839,131.97530864197532,0)" xlink:href="#af"/><use transform="matrix(0.06172839506172839,0,0,0.06172839506172839,144.320987654321,0)" xlink:href="#ag"/></g><path fill="#3a414a" d="M84 4C-5 8 30-112 23-190h32v120c0 31 7 50 39 49 72-2 45-101 50-169h31l1 190h-30c-1-10 1-25-2-33-11 22-28 36-60 37" id="aL"/><g id="m"><use transform="matrix(0.06172839506172839,0,0,0.06172839506172839,0,0)" xlink:href="#ad"/><use transform="matrix(0.06172839506172839,0,0,0.06172839506172839,14.814814814814813,0)" xlink:href="#aE"/><use transform="matrix(0.06172839506172839,0,0,0.06172839506172839,25.925925925925924,0)" xlink:href="#aF"/><use transform="matrix(0.06172839506172839,0,0,0.06172839506172839,32.098765432098766,0)" xlink:href="#aG"/><use transform="matrix(0.06172839506172839,0,0,0.06172839506172839,36.97530864197531,0)" xlink:href="#aH"/><use transform="matrix(0.06172839506172839,0,0,0.06172839506172839,48.08641975308642,0)" xlink:href="#af"/><use transform="matrix(0.06172839506172839,0,0,0.06172839506172839,60.432098765432094,0)" xlink:href="#aI"/><use transform="matrix(0.06172839506172839,0,0,0.06172839506172839,72.77777777777777,0)" xlink:href="#aJ"/><use transform="matrix(0.06172839506172839,0,0,0.06172839506172839,80.12345679012346,0)" xlink:href="#af"/><use transform="matrix(0.06172839506172839,0,0,0.06172839506172839,92.46913580246914,0)" xlink:href="#ay"/><use transform="matrix(0.06172839506172839,0,0,0.06172839506172839,104.81481481481482,0)" xlink:href="#aJ"/><use transform="matrix(0.06172839506172839,0,0,0.06172839506172839,112.16049382716051,0)" xlink:href="#af"/><use transform="matrix(0.06172839506172839,0,0,0.06172839506172839,124.50617283950619,0)" xlink:href="#aK"/><use transform="matrix(0.06172839506172839,0,0,0.06172839506172839,135.6172839506173,0)" xlink:href="#aE"/><use transform="matrix(0.06172839506172839,0,0,0.06172839506172839,146.7283950617284,0)" xlink:href="#aL"/><use transform="matrix(0.06172839506172839,0,0,0.06172839506172839,159.07407407407408,0)" xlink:href="#af"/></g><path fill="#333" d="M146-102V0H94v-102L6-248h54l60 105 60-105h54" id="aM"/><path fill="#333" d="M185-48c-13 30-37 53-82 52C43 2 14-33 14-96s30-98 90-98c62 0 83 45 84 108H66c0 31 8 55 39 56 18 0 30-7 34-22zm-45-69c5-46-57-63-70-21-2 6-4 13-4 21h74" id="aN"/><path fill="#333" d="M137-138c1-29-70-34-71-4 15 46 118 7 119 86 1 83-164 76-172 9l43-7c4 19 20 25 44 25 33 8 57-30 24-41C81-84 22-81 20-136c-2-80 154-74 161-7" id="aO"/><g id="n"><use transform="matrix(0.04938271604938272,0,0,0.04938271604938272,0,0)" xlink:href="#aM"/><use transform="matrix(0.04938271604938272,0,0,0.04938271604938272,10.864197530864198,0)" xlink:href="#aN"/><use transform="matrix(0.04938271604938272,0,0,0.04938271604938272,20.74074074074074,0)" xlink:href="#aO"/></g><g id="o"><use transform="matrix(0.06172839506172839,0,0,0.06172839506172839,0,0)" xlink:href="#au"/><use transform="matrix(0.06172839506172839,0,0,0.06172839506172839,18.456790123456788,0)" xlink:href="#av"/><use transform="matrix(0.06172839506172839,0,0,0.06172839506172839,30.80246913580247,0)" xlink:href="#aw"/><use transform="matrix(0.06172839506172839,0,0,0.06172839506172839,41.91358024691358,0)" xlink:href="#ax"/></g><g id="p"><use transform="matrix(0.06172839506172839,0,0,0.06172839506172839,0,0)" xlink:href="#ab"/><use transform="matrix(0.06172839506172839,0,0,0.06172839506172839,15.987654320987653,0)" xlink:href="#af"/><use transform="matrix(0.06172839506172839,0,0,0.06172839506172839,28.333333333333332,0)" xlink:href="#ay"/></g><use transform="matrix(0.06172839506172839,0,0,0.06172839506172839,0,0)" xlink:href="#ah" id="q"/><g id="r"><use transform="matrix(0.06172839506172839,0,0,0.06172839506172839,0,0)" xlink:href="#aC"/><use transform="matrix(0.06172839506172839,0,0,0.06172839506172839,6.172839506172839,0)" xlink:href="#aD"/><use transform="matrix(0.06172839506172839,0,0,0.06172839506172839,18.51851851851852,0)" xlink:href="#av"/><use transform="matrix(0.06172839506172839,0,0,0.06172839506172839,30.864197530864196,0)" xlink:href="#aE"/><use transform="matrix(0.06172839506172839,0,0,0.06172839506172839,41.9753086419753,0)" xlink:href="#aF"/><use transform="matrix(0.06172839506172839,0,0,0.06172839506172839,48.148148148148145,0)" xlink:href="#aG"/><use transform="matrix(0.06172839506172839,0,0,0.06172839506172839,53.02469135802469,0)" xlink:href="#aH"/><use transform="matrix(0.06172839506172839,0,0,0.06172839506172839,64.1358024691358,0)" xlink:href="#af"/></g><path fill="#3a414a" d="M232-93c-1 65-40 97-104 97C67 4 28-28 28-90v-158h33c8 89-33 224 67 224 102 0 64-133 71-224h33v155" id="aP"/><path fill="#3a414a" d="M210-169c-67 3-38 105-44 169h-31v-121c0-29-5-50-35-48C34-165 62-65 56 0H25l-1-190h30c1 10-1 24 2 32 10-44 99-50 107 0 11-21 27-35 58-36 85-2 47 119 55 194h-31v-121c0-29-5-49-35-48" id="aQ"/><g id="s"><use transform="matrix(0.06172839506172839,0,0,0.06172839506172839,0,0)" xlink:href="#aP"/><use transform="matrix(0.06172839506172839,0,0,0.06172839506172839,15.987654320987653,0)" xlink:href="#aD"/><use transform="matrix(0.06172839506172839,0,0,0.06172839506172839,28.333333333333332,0)" xlink:href="#ay"/><use transform="matrix(0.06172839506172839,0,0,0.06172839506172839,40.67901234567901,0)" xlink:href="#af"/><use transform="matrix(0.06172839506172839,0,0,0.06172839506172839,53.02469135802469,0)" xlink:href="#aF"/><use transform="matrix(0.06172839506172839,0,0,0.06172839506172839,59.19753086419753,0)" xlink:href="#af"/><use transform="matrix(0.06172839506172839,0,0,0.06172839506172839,71.54320987654322,0)" xlink:href="#aJ"/><use transform="matrix(0.06172839506172839,0,0,0.06172839506172839,78.8888888888889,0)" xlink:href="#aQ"/><use transform="matrix(0.06172839506172839,0,0,0.06172839506172839,97.34567901234568,0)" xlink:href="#aG"/><use transform="matrix(0.06172839506172839,0,0,0.06172839506172839,102.22222222222223,0)" xlink:href="#aD"/><use transform="matrix(0.06172839506172839,0,0,0.06172839506172839,114.56790123456791,0)" xlink:href="#af"/><use transform="matrix(0.06172839506172839,0,0,0.06172839506172839,126.9135802469136,0)" xlink:href="#ay"/></g><g id="t"><use transform="matrix(0.06172839506172839,0,0,0.06172839506172839,0,0)" xlink:href="#ad"/><use transform="matrix(0.06172839506172839,0,0,0.06172839506172839,14.814814814814813,0)" xlink:href="#aE"/><use transform="matrix(0.06172839506172839,0,0,0.06172839506172839,25.925925925925924,0)" xlink:href="#aF"/><use transform="matrix(0.06172839506172839,0,0,0.06172839506172839,32.098765432098766,0)" xlink:href="#aG"/><use transform="matrix(0.06172839506172839,0,0,0.06172839506172839,36.97530864197531,0)" xlink:href="#aH"/><use transform="matrix(0.06172839506172839,0,0,0.06172839506172839,48.08641975308642,0)" xlink:href="#af"/></g><path fill="#333" d="M15-91v-56l181-69v40L49-119l147 57v40" id="aR"/><path fill="#cc4e00" d="M115-3C79 11 28 4 28-45v-112H4v-33h27l15-45h31v45h36v33H77v99c-1 23 16 31 38 25v30" id="aS"/><path fill="#cc4e00" d="M114-157C55-157 80-60 75 0H25v-261h50l-1 109c12-26 28-41 61-42 86-1 58 113 63 194h-50c-7-57 23-157-34-157" id="aT"/><path fill="#cc4e00" d="M-4 44V30h207v14H-4" id="aU"/><path fill="#cc4e00" d="M135-150c-39-12-60 13-60 57V0H25l-1-190h47c2 13-1 29 3 40 6-28 27-53 61-41v41" id="aV"/><path fill="#cc4e00" d="M185-48c-13 30-37 53-82 52C43 2 14-33 14-96s30-98 90-98c62 0 83 45 84 108H66c0 31 8 55 39 56 18 0 30-7 34-22zm-45-69c5-46-57-63-70-21-2 6-4 13-4 21h74" id="aW"/><path fill="#cc4e00" d="M88-194c31-1 46 15 58 34l-1-101h50l1 261h-48c-2-10 0-23-3-31C134-8 116 4 84 4 32 4 16-41 15-95c0-56 19-97 73-99zm17 164c33 0 40-30 41-66 1-37-9-64-41-64s-38 30-39 65c0 43 13 65 39 65" id="aX"/><path fill="#cc4e00" d="M135-194c53 0 70 44 70 98 0 56-19 98-73 100-31 1-45-17-59-34 3 33 2 69 2 105H25l-1-265h48c2 10 0 23 3 31 11-24 29-35 60-35zM114-30c33 0 39-31 40-66 0-38-9-64-40-64-56 0-55 130 0 130" id="aY"/><path fill="#cc4e00" d="M190-63c-7 42-38 67-86 67-59 0-84-38-90-98-12-110 154-137 174-36l-49 2c-2-19-15-32-35-32-30 0-35 28-38 64-6 74 65 87 74 30" id="aZ"/><path fill="#cc4e00" d="M135-194c87-1 58 113 63 194h-50c-7-57 23-157-34-157-59 0-34 97-39 157H25l-1-190h47c2 12-1 28 3 38 12-26 28-41 61-42" id="ba"/><path fill="#cc4e00" d="M231 0h-52l-39-155L100 0H48L-1-190h46L77-45c9-52 24-97 36-145h53l37 145 32-145h46" id="bb"/><g id="u"><use transform="matrix(0.04938271604938272,0,0,0.04938271604938272,0,0)" xlink:href="#aR"/><use transform="matrix(0.04938271604938272,0,0,0.04938271604938272,10.370370370370372,0)" xlink:href="#aS"/><use transform="matrix(0.04938271604938272,0,0,0.04938271604938272,16.246913580246915,0)" xlink:href="#aT"/><use transform="matrix(0.04938271604938272,0,0,0.04938271604938272,27.061728395061724,0)" xlink:href="#aU"/><use transform="matrix(0.04938271604938272,0,0,0.04938271604938272,36.93827160493827,0)" xlink:href="#aV"/><use transform="matrix(0.04938271604938272,0,0,0.04938271604938272,43.851851851851855,0)" xlink:href="#aW"/><use transform="matrix(0.04938271604938272,0,0,0.04938271604938272,53.7283950617284,0)" xlink:href="#aX"/><use transform="matrix(0.04938271604938272,0,0,0.04938271604938272,64.54320987654322,0)" xlink:href="#aU"/><use transform="matrix(0.04938271604938272,0,0,0.04938271604938272,74.41975308641976,0)" xlink:href="#aY"/><use transform="matrix(0.04938271604938272,0,0,0.04938271604938272,85.23456790123457,0)" xlink:href="#aZ"/><use transform="matrix(0.04938271604938272,0,0,0.04938271604938272,95.11111111111111,0)" xlink:href="#ba"/><use transform="matrix(0.04938271604938272,0,0,0.04938271604938272,105.92592592592594,0)" xlink:href="#aS"/><use transform="matrix(0.04938271604938272,0,0,0.04938271604938272,111.80246913580248,0)" xlink:href="#aU"/><use transform="matrix(0.04938271604938272,0,0,0.04938271604938272,121.67901234567903,0)" xlink:href="#aX"/><use transform="matrix(0.04938271604938272,0,0,0.04938271604938272,132.49382716049382,0)" xlink:href="#bb"/></g><use transform="matrix(0.04938271604938272,0,0,0.04938271604938272,0,0)" xlink:href="#aR" id="v"/><path fill="#cc4e00" d="M85 4C-2 5 27-109 22-190h50c7 57-23 150 33 157 60-5 35-97 40-157h50l1 190h-47c-2-12 1-28-3-38-12 25-28 42-61 42" id="bc"/><g id="w"><use transform="matrix(0.04938271604938272,0,0,0.04938271604938272,0,0)" xlink:href="#aS"/><use transform="matrix(0.04938271604938272,0,0,0.04938271604938272,5.8765432098765435,0)" xlink:href="#aT"/><use transform="matrix(0.04938271604938272,0,0,0.04938271604938272,16.691358024691358,0)" xlink:href="#aU"/><use transform="matrix(0.04938271604938272,0,0,0.04938271604938272,26.567901234567902,0)" xlink:href="#aV"/><use transform="matrix(0.04938271604938272,0,0,0.04938271604938272,33.48148148148148,0)" xlink:href="#aW"/><use transform="matrix(0.04938271604938272,0,0,0.04938271604938272,43.358024691358025,0)" xlink:href="#aX"/><use transform="matrix(0.04938271604938272,0,0,0.04938271604938272,54.17283950617284,0)" xlink:href="#aU"/><use transform="matrix(0.04938271604938272,0,0,0.04938271604938272,64.0493827160494,0)" xlink:href="#aY"/><use transform="matrix(0.04938271604938272,0,0,0.04938271604938272,74.8641975308642,0)" xlink:href="#aZ"/><use transform="matrix(0.04938271604938272,0,0,0.04938271604938272,84.74074074074075,0)" xlink:href="#ba"/><use transform="matrix(0.04938271604938272,0,0,0.04938271604938272,95.55555555555556,0)" xlink:href="#aS"/><use transform="matrix(0.04938271604938272,0,0,0.04938271604938272,101.4320987654321,0)" xlink:href="#aU"/><use transform="matrix(0.04938271604938272,0,0,0.04938271604938272,111.30864197530865,0)" xlink:href="#bc"/><use transform="matrix(0.04938271604938272,0,0,0.04938271604938272,122.12345679012344,0)" xlink:href="#aY"/></g><path fill="#333" d="M168-19C124 19 11 11 16-68c3-43 29-60 59-75-25-44-12-111 53-106 37 3 64 15 64 52 0 43-40 52-69 68 12 22 27 41 43 59 14-19 21-38 28-64l37 13c-8 29-19 52-34 74 12 10 32 16 52 10v35c-28 11-65-2-81-17zm-58-139c19-9 43-14 43-39 0-14-10-22-25-22-34 0-33 41-18 61zM60-68c-3 40 55 47 79 25-18-20-34-42-48-67-18 8-30 20-31 42" id="bd"/><use transform="matrix(0.04938271604938272,0,0,0.04938271604938272,0,0)" xlink:href="#bd" id="x"/><path fill="#333" d="M15-22v-40l146-57-146-57v-40l181 69v56" id="be"/><path fill="#333" d="M15-148v-39h180v39H15zm0 97v-39h180v39H15" id="bf"/><g id="y"><use transform="matrix(0.04938271604938272,0,0,0.04938271604938272,0,0)" xlink:href="#be"/><use transform="matrix(0.04938271604938272,0,0,0.04938271604938272,10.370370370370372,0)" xlink:href="#bf"/></g><g id="z"><use transform="matrix(0.04938271604938272,0,0,0.04938271604938272,0,0)" xlink:href="#aS"/><use transform="matrix(0.04938271604938272,0,0,0.04938271604938272,5.8765432098765435,0)" xlink:href="#aT"/><use transform="matrix(0.04938271604938272,0,0,0.04938271604938272,16.691358024691358,0)" xlink:href="#aU"/><use transform="matrix(0.04938271604938272,0,0,0.04938271604938272,26.567901234567902,0)" xlink:href="#aV"/><use transform="matrix(0.04938271604938272,0,0,0.04938271604938272,33.48148148148148,0)" xlink:href="#aW"/><use transform="matrix(0.04938271604938272,0,0,0.04938271604938272,43.358024691358025,0)" xlink:href="#aX"/><use transform="matrix(0.04938271604938272,0,0,0.04938271604938272,54.17283950617284,0)" xlink:href="#aU"/><use transform="matrix(0.04938271604938272,0,0,0.04938271604938272,64.0493827160494,0)" xlink:href="#aY"/><use transform="matrix(0.04938271604938272,0,0,0.04938271604938272,74.8641975308642,0)" xlink:href="#aZ"/><use transform="matrix(0.04938271604938272,0,0,0.04938271604938272,84.74074074074075,0)" xlink:href="#ba"/><use transform="matrix(0.04938271604938272,0,0,0.04938271604938272,95.55555555555556,0)" xlink:href="#aS"/><use transform="matrix(0.04938271604938272,0,0,0.04938271604938272,101.4320987654321,0)" xlink:href="#aU"/><use transform="matrix(0.04938271604938272,0,0,0.04938271604938272,111.30864197530865,0)" xlink:href="#aX"/><use transform="matrix(0.04938271604938272,0,0,0.04938271604938272,122.12345679012344,0)" xlink:href="#bb"/></g><g id="A"><use transform="matrix(0.04938271604938272,0,0,0.04938271604938272,0,0)" xlink:href="#be"/><use transform="matrix(0.04938271604938272,0,0,0.04938271604938272,10.370370370370372,0)" xlink:href="#bf"/></g><g id="B"><use transform="matrix(0.04938271604938272,0,0,0.04938271604938272,0,0)" xlink:href="#aS"/><use transform="matrix(0.04938271604938272,0,0,0.04938271604938272,5.8765432098765435,0)" xlink:href="#aT"/><use transform="matrix(0.04938271604938272,0,0,0.04938271604938272,16.691358024691358,0)" xlink:href="#aU"/><use transform="matrix(0.04938271604938272,0,0,0.04938271604938272,26.567901234567902,0)" xlink:href="#aV"/><use transform="matrix(0.04938271604938272,0,0,0.04938271604938272,33.48148148148148,0)" xlink:href="#aW"/><use transform="matrix(0.04938271604938272,0,0,0.04938271604938272,43.358024691358025,0)" xlink:href="#aX"/><use transform="matrix(0.04938271604938272,0,0,0.04938271604938272,54.17283950617284,0)" xlink:href="#aU"/><use transform="matrix(0.04938271604938272,0,0,0.04938271604938272,64.0493827160494,0)" xlink:href="#aY"/><use transform="matrix(0.04938271604938272,0,0,0.04938271604938272,74.8641975308642,0)" xlink:href="#aZ"/><use transform="matrix(0.04938271604938272,0,0,0.04938271604938272,84.74074074074075,0)" xlink:href="#ba"/><use transform="matrix(0.04938271604938272,0,0,0.04938271604938272,95.55555555555556,0)" xlink:href="#aS"/><use transform="matrix(0.04938271604938272,0,0,0.04938271604938272,101.4320987654321,0)" xlink:href="#aU"/><use transform="matrix(0.04938271604938272,0,0,0.04938271604938272,111.30864197530865,0)" xlink:href="#bc"/><use transform="matrix(0.04938271604938272,0,0,0.04938271604938272,122.12345679012344,0)" xlink:href="#aY"/></g><use transform="matrix(0.06172839506172839,0,0,0.06172839506172839,0,0)" xlink:href="#ah" id="C"/><path fill="#cc4e00" d="M135-143c-3-34-86-38-87 0 15 53 115 12 119 90S17 21 10-45l28-5c4 36 97 45 98 0-10-56-113-15-118-90-4-57 82-63 122-42 12 7 21 19 24 35" id="bg"/><g id="D"><use transform="matrix(0.06172839506172839,0,0,0.06172839506172839,0,0)" xlink:href="#ak"/><use transform="matrix(0.06172839506172839,0,0,0.06172839506172839,6.172839506172839,0)" xlink:href="#al"/><use transform="matrix(0.06172839506172839,0,0,0.06172839506172839,18.51851851851852,0)" xlink:href="#am"/><use transform="matrix(0.06172839506172839,0,0,0.06172839506172839,30.864197530864196,0)" xlink:href="#an"/><use transform="matrix(0.06172839506172839,0,0,0.06172839506172839,38.20987654320987,0)" xlink:href="#az"/><use transform="matrix(0.06172839506172839,0,0,0.06172839506172839,50.55555555555555,0)" xlink:href="#aA"/><use transform="matrix(0.06172839506172839,0,0,0.06172839506172839,62.90123456790123,0)" xlink:href="#an"/><use transform="matrix(0.06172839506172839,0,0,0.06172839506172839,70.24691358024691,0)" xlink:href="#az"/><use transform="matrix(0.06172839506172839,0,0,0.06172839506172839,82.5925925925926,0)" xlink:href="#bg"/><use transform="matrix(0.06172839506172839,0,0,0.06172839506172839,93.70370370370371,0)" xlink:href="#ar"/><use transform="matrix(0.06172839506172839,0,0,0.06172839506172839,104.81481481481482,0)" xlink:href="#aB"/><use transform="matrix(0.06172839506172839,0,0,0.06172839506172839,117.16049382716051,0)" xlink:href="#az"/></g><path fill="#3a414a" d="M63-220v92h138v28H63V0H30v-248h175v28H63" id="bh"/><path fill="#3a414a" d="M212-179c-10-28-35-45-73-45-59 0-87 40-87 99 0 60 29 101 89 101 43 0 62-24 78-52l27 14C228-24 195 4 139 4 59 4 22-46 18-125c-6-104 99-153 187-111 19 9 31 26 39 46" id="bi"/><g id="E"><use transform="matrix(0.06172839506172839,0,0,0.06172839506172839,0,0)" xlink:href="#aC"/><use transform="matrix(0.06172839506172839,0,0,0.06172839506172839,6.172839506172839,0)" xlink:href="#aD"/><use transform="matrix(0.06172839506172839,0,0,0.06172839506172839,18.51851851851852,0)" xlink:href="#av"/><use transform="matrix(0.06172839506172839,0,0,0.06172839506172839,30.864197530864196,0)" xlink:href="#aE"/><use transform="matrix(0.06172839506172839,0,0,0.06172839506172839,41.9753086419753,0)" xlink:href="#aF"/><use transform="matrix(0.06172839506172839,0,0,0.06172839506172839,48.148148148148145,0)" xlink:href="#aG"/><use transform="matrix(0.06172839506172839,0,0,0.06172839506172839,53.02469135802469,0)" xlink:href="#aH"/><use transform="matrix(0.06172839506172839,0,0,0.06172839506172839,64.1358024691358,0)" xlink:href="#af"/><use transform="matrix(0.06172839506172839,0,0,0.06172839506172839,76.48148148148148,0)" xlink:href="#aI"/><use transform="matrix(0.06172839506172839,0,0,0.06172839506172839,88.82716049382717,0)" xlink:href="#bh"/><use transform="matrix(0.06172839506172839,0,0,0.06172839506172839,102.34567901234568,0)" xlink:href="#bi"/></g><g id="F"><use transform="matrix(0.06172839506172839,0,0,0.06172839506172839,0,0)" xlink:href="#ab"/><use transform="matrix(0.06172839506172839,0,0,0.06172839506172839,15.987654320987653,0)" xlink:href="#af"/><use transform="matrix(0.06172839506172839,0,0,0.06172839506172839,28.333333333333332,0)" xlink:href="#ay"/></g><path fill="#3a414a" d="M30-248c118-7 216 8 213 122C240-48 200 0 122 0H30v-248zM63-27c89 8 146-16 146-99s-60-101-146-95v194" id="bj"/><path fill="#3a414a" d="M101-234c-31-9-42 10-38 44h38v23H63V0H32v-167H5v-23h27c-7-52 17-82 69-68v24" id="bk"/><g id="G"><use transform="matrix(0.06172839506172839,0,0,0.06172839506172839,0,0)" xlink:href="#bj"/><use transform="matrix(0.06172839506172839,0,0,0.06172839506172839,15.987654320987653,0)" xlink:href="#aG"/><use transform="matrix(0.06172839506172839,0,0,0.06172839506172839,20.864197530864196,0)" xlink:href="#bk"/><use transform="matrix(0.06172839506172839,0,0,0.06172839506172839,27.037037037037035,0)" xlink:href="#ax"/></g><path fill="#cc4e00" d="M24-231v-30h32v30H24zM24 0v-190h32V0H24" id="bl"/><path fill="#cc4e00" d="M101-234c-31-9-42 10-38 44h38v23H63V0H32v-167H5v-23h27c-7-52 17-82 69-68v24" id="bm"/><g id="H"><use transform="matrix(0.06172839506172839,0,0,0.06172839506172839,0,0)" xlink:href="#ak"/><use transform="matrix(0.06172839506172839,0,0,0.06172839506172839,6.172839506172839,0)" xlink:href="#al"/><use transform="matrix(0.06172839506172839,0,0,0.06172839506172839,18.51851851851852,0)" xlink:href="#am"/><use transform="matrix(0.06172839506172839,0,0,0.06172839506172839,30.864197530864196,0)" xlink:href="#an"/><use transform="matrix(0.06172839506172839,0,0,0.06172839506172839,38.20987654320987,0)" xlink:href="#az"/><use transform="matrix(0.06172839506172839,0,0,0.06172839506172839,50.55555555555555,0)" xlink:href="#aA"/><use transform="matrix(0.06172839506172839,0,0,0.06172839506172839,62.90123456790123,0)" xlink:href="#aq"/><use transform="matrix(0.06172839506172839,0,0,0.06172839506172839,75.24691358024691,0)" xlink:href="#ar"/><use transform="matrix(0.06172839506172839,0,0,0.06172839506172839,86.35802469135803,0)" xlink:href="#ao"/><use transform="matrix(0.06172839506172839,0,0,0.06172839506172839,98.70370370370371,0)" xlink:href="#ak"/><use transform="matrix(0.06172839506172839,0,0,0.06172839506172839,104.87654320987654,0)" xlink:href="#aA"/><use transform="matrix(0.06172839506172839,0,0,0.06172839506172839,117.22222222222223,0)" xlink:href="#bl"/><use transform="matrix(0.06172839506172839,0,0,0.06172839506172839,122.09876543209877,0)" xlink:href="#bm"/></g><path fill="#3a414a" d="M24 0v-261h32V0H24" id="bn"/><g id="I"><use transform="matrix(0.06172839506172839,0,0,0.06172839506172839,0,0)" xlink:href="#ab"/><use transform="matrix(0.06172839506172839,0,0,0.06172839506172839,15.987654320987653,0)" xlink:href="#af"/><use transform="matrix(0.06172839506172839,0,0,0.06172839506172839,28.333333333333332,0)" xlink:href="#bn"/><use transform="matrix(0.06172839506172839,0,0,0.06172839506172839,33.20987654320987,0)" xlink:href="#av"/><use transform="matrix(0.06172839506172839,0,0,0.06172839506172839,45.55555555555555,0)" xlink:href="#aF"/><use transform="matrix(0.06172839506172839,0,0,0.06172839506172839,51.72839506172839,0)" xlink:href="#aG"/><use transform="matrix(0.06172839506172839,0,0,0.06172839506172839,56.60493827160494,0)" xlink:href="#aH"/><use transform="matrix(0.06172839506172839,0,0,0.06172839506172839,67.71604938271605,0)" xlink:href="#af"/></g><path fill="#3a414a" d="M30 0v-248h187v28H63v79h144v27H63v87h162V0H30" id="bo"/><path fill="#3a414a" d="M115-194c55 1 70 41 70 98S169 2 115 4C84 4 66-9 55-30l1 105H24l-1-265h31l2 30c10-21 28-34 59-34zm-8 174c40 0 45-34 45-75s-6-73-45-74c-42 0-51 32-51 76 0 43 10 73 51 73" id="bp"/><path fill="#3a414a" d="M100-194c62-1 85 37 85 99 1 63-27 99-86 99S16-35 15-95c0-66 28-99 85-99zM99-20c44 1 53-31 53-75 0-43-8-75-51-75s-53 32-53 75 10 74 51 75" id="bq"/><g id="J"><use transform="matrix(0.06172839506172839,0,0,0.06172839506172839,0,0)" xlink:href="#bo"/><use transform="matrix(0.06172839506172839,0,0,0.06172839506172839,14.814814814814813,0)" xlink:href="#aw"/><use transform="matrix(0.06172839506172839,0,0,0.06172839506172839,25.925925925925924,0)" xlink:href="#bp"/><use transform="matrix(0.06172839506172839,0,0,0.06172839506172839,38.2716049382716,0)" xlink:href="#aJ"/><use transform="matrix(0.06172839506172839,0,0,0.06172839506172839,45.61728395061728,0)" xlink:href="#af"/><use transform="matrix(0.06172839506172839,0,0,0.06172839506172839,57.962962962962955,0)" xlink:href="#aK"/><use transform="matrix(0.06172839506172839,0,0,0.06172839506172839,69.07407407407406,0)" xlink:href="#aK"/><use transform="matrix(0.06172839506172839,0,0,0.06172839506172839,80.18518518518518,0)" xlink:href="#aG"/><use transform="matrix(0.06172839506172839,0,0,0.06172839506172839,85.06172839506172,0)" xlink:href="#bq"/><use transform="matrix(0.06172839506172839,0,0,0.06172839506172839,97.4074074074074,0)" xlink:href="#aD"/></g><g id="K"><use transform="matrix(0.06172839506172839,0,0,0.06172839506172839,0,0)" xlink:href="#ad"/><use transform="matrix(0.06172839506172839,0,0,0.06172839506172839,14.814814814814813,0)" xlink:href="#aE"/><use transform="matrix(0.06172839506172839,0,0,0.06172839506172839,25.925925925925924,0)" xlink:href="#aF"/><use transform="matrix(0.06172839506172839,0,0,0.06172839506172839,32.098765432098766,0)" xlink:href="#aG"/><use transform="matrix(0.06172839506172839,0,0,0.06172839506172839,36.97530864197531,0)" xlink:href="#aH"/><use transform="matrix(0.06172839506172839,0,0,0.06172839506172839,48.08641975308642,0)" xlink:href="#af"/><use transform="matrix(0.06172839506172839,0,0,0.06172839506172839,60.432098765432094,0)" xlink:href="#aI"/><use transform="matrix(0.06172839506172839,0,0,0.06172839506172839,72.77777777777777,0)" xlink:href="#bh"/><use transform="matrix(0.06172839506172839,0,0,0.06172839506172839,86.29629629629629,0)" xlink:href="#bi"/><use transform="matrix(0.06172839506172839,0,0,0.06172839506172839,102.28395061728395,0)" xlink:href="#aI"/><use transform="matrix(0.06172839506172839,0,0,0.06172839506172839,114.62962962962963,0)" xlink:href="#ay"/><use transform="matrix(0.06172839506172839,0,0,0.06172839506172839,126.97530864197533,0)" xlink:href="#aG"/><use transform="matrix(0.06172839506172839,0,0,0.06172839506172839,131.85185185185185,0)" xlink:href="#bk"/><use transform="matrix(0.06172839506172839,0,0,0.06172839506172839,138.02469135802468,0)" xlink:href="#aJ"/><use transform="matrix(0.06172839506172839,0,0,0.06172839506172839,145.37037037037035,0)" xlink:href="#af"/><use transform="matrix(0.06172839506172839,0,0,0.06172839506172839,157.71604938271602,0)" xlink:href="#aK"/><use transform="matrix(0.06172839506172839,0,0,0.06172839506172839,168.82716049382714,0)" xlink:href="#aE"/><use transform="matrix(0.06172839506172839,0,0,0.06172839506172839,179.93827160493825,0)" xlink:href="#aL"/><use transform="matrix(0.06172839506172839,0,0,0.06172839506172839,192.28395061728392,0)" xlink:href="#af"/><use transform="matrix(0.06172839506172839,0,0,0.06172839506172839,204.6296296296296,0)" xlink:href="#ay"/><use transform="matrix(0.06172839506172839,0,0,0.06172839506172839,216.97530864197526,0)" xlink:href="#aI"/><use transform="matrix(0.06172839506172839,0,0,0.06172839506172839,229.32098765432093,0)" xlink:href="#aQ"/><use transform="matrix(0.06172839506172839,0,0,0.06172839506172839,247.77777777777771,0)" xlink:href="#av"/><use transform="matrix(0.06172839506172839,0,0,0.06172839506172839,260.1234567901234,0)" xlink:href="#aw"/></g><g id="L"><use transform="matrix(0.06172839506172839,0,0,0.06172839506172839,0,0)" xlink:href="#aC"/><use transform="matrix(0.06172839506172839,0,0,0.06172839506172839,6.172839506172839,0)" xlink:href="#aD"/><use transform="matrix(0.06172839506172839,0,0,0.06172839506172839,18.51851851851852,0)" xlink:href="#av"/><use transform="matrix(0.06172839506172839,0,0,0.06172839506172839,30.864197530864196,0)" xlink:href="#aE"/><use transform="matrix(0.06172839506172839,0,0,0.06172839506172839,41.9753086419753,0)" xlink:href="#aF"/><use transform="matrix(0.06172839506172839,0,0,0.06172839506172839,48.148148148148145,0)" xlink:href="#aG"/><use transform="matrix(0.06172839506172839,0,0,0.06172839506172839,53.02469135802469,0)" xlink:href="#aH"/><use transform="matrix(0.06172839506172839,0,0,0.06172839506172839,64.1358024691358,0)" xlink:href="#af"/><use transform="matrix(0.06172839506172839,0,0,0.06172839506172839,76.48148148148148,0)" xlink:href="#aI"/><use transform="matrix(0.06172839506172839,0,0,0.06172839506172839,88.82716049382717,0)" xlink:href="#bh"/><use transform="matrix(0.06172839506172839,0,0,0.06172839506172839,102.34567901234568,0)" xlink:href="#bi"/><use transform="matrix(0.06172839506172839,0,0,0.06172839506172839,118.33333333333334,0)" xlink:href="#aI"/><use transform="matrix(0.06172839506172839,0,0,0.06172839506172839,130.679012345679,0)" xlink:href="#ay"/><use transform="matrix(0.06172839506172839,0,0,0.06172839506172839,143.02469135802468,0)" xlink:href="#aG"/><use transform="matrix(0.06172839506172839,0,0,0.06172839506172839,147.9012345679012,0)" xlink:href="#bk"/><use transform="matrix(0.06172839506172839,0,0,0.06172839506172839,154.07407407407405,0)" xlink:href="#aJ"/><use transform="matrix(0.06172839506172839,0,0,0.06172839506172839,161.41975308641972,0)" xlink:href="#af"/><use transform="matrix(0.06172839506172839,0,0,0.06172839506172839,173.7654320987654,0)" xlink:href="#aK"/><use transform="matrix(0.06172839506172839,0,0,0.06172839506172839,184.8765432098765,0)" xlink:href="#aE"/><use transform="matrix(0.06172839506172839,0,0,0.06172839506172839,195.98765432098762,0)" xlink:href="#aL"/><use transform="matrix(0.06172839506172839,0,0,0.06172839506172839,208.3333333333333,0)" xlink:href="#af"/><use transform="matrix(0.06172839506172839,0,0,0.06172839506172839,220.67901234567896,0)" xlink:href="#ay"/><use transform="matrix(0.06172839506172839,0,0,0.06172839506172839,233.02469135802463,0)" xlink:href="#aI"/><use transform="matrix(0.06172839506172839,0,0,0.06172839506172839,245.3703703703703,0)" xlink:href="#aQ"/><use transform="matrix(0.06172839506172839,0,0,0.06172839506172839,263.8271604938271,0)" xlink:href="#aG"/><use transform="matrix(0.06172839506172839,0,0,0.06172839506172839,268.70370370370364,0)" xlink:href="#aD"/></g><g id="M"><use transform="matrix(0.06172839506172839,0,0,0.06172839506172839,0,0)" xlink:href="#ad"/><use transform="matrix(0.06172839506172839,0,0,0.06172839506172839,14.814814814814813,0)" xlink:href="#aE"/><use transform="matrix(0.06172839506172839,0,0,0.06172839506172839,25.925925925925924,0)" xlink:href="#aF"/><use transform="matrix(0.06172839506172839,0,0,0.06172839506172839,32.098765432098766,0)" xlink:href="#aG"/><use transform="matrix(0.06172839506172839,0,0,0.06172839506172839,36.97530864197531,0)" xlink:href="#aH"/><use transform="matrix(0.06172839506172839,0,0,0.06172839506172839,48.08641975308642,0)" xlink:href="#af"/><use transform="matrix(0.06172839506172839,0,0,0.06172839506172839,60.432098765432094,0)" xlink:href="#aI"/><use transform="matrix(0.06172839506172839,0,0,0.06172839506172839,72.77777777777777,0)" xlink:href="#bh"/><use transform="matrix(0.06172839506172839,0,0,0.06172839506172839,86.29629629629629,0)" xlink:href="#bi"/><use transform="matrix(0.06172839506172839,0,0,0.06172839506172839,102.28395061728395,0)" xlink:href="#aI"/><use transform="matrix(0.06172839506172839,0,0,0.06172839506172839,114.62962962962963,0)" xlink:href="#ay"/><use transform="matrix(0.06172839506172839,0,0,0.06172839506172839,126.97530864197533,0)" xlink:href="#aG"/><use transform="matrix(0.06172839506172839,0,0,0.06172839506172839,131.85185185185185,0)" xlink:href="#bk"/><use transform="matrix(0.06172839506172839,0,0,0.06172839506172839,138.02469135802468,0)" xlink:href="#aJ"/><use transform="matrix(0.06172839506172839,0,0,0.06172839506172839,145.37037037037035,0)" xlink:href="#af"/><use transform="matrix(0.06172839506172839,0,0,0.06172839506172839,157.71604938271602,0)" xlink:href="#aK"/><use transform="matrix(0.06172839506172839,0,0,0.06172839506172839,168.82716049382714,0)" xlink:href="#aE"/><use transform="matrix(0.06172839506172839,0,0,0.06172839506172839,179.93827160493825,0)" xlink:href="#aL"/><use transform="matrix(0.06172839506172839,0,0,0.06172839506172839,192.28395061728392,0)" xlink:href="#af"/><use transform="matrix(0.06172839506172839,0,0,0.06172839506172839,204.6296296296296,0)" xlink:href="#ay"/><use transform="matrix(0.06172839506172839,0,0,0.06172839506172839,216.97530864197526,0)" xlink:href="#aI"/><use transform="matrix(0.06172839506172839,0,0,0.06172839506172839,229.32098765432093,0)" xlink:href="#aQ"/><use transform="matrix(0.06172839506172839,0,0,0.06172839506172839,247.77777777777771,0)" xlink:href="#aG"/><use transform="matrix(0.06172839506172839,0,0,0.06172839506172839,252.65432098765424,0)" xlink:href="#ay"/></g><path fill="#333" d="M230 0l2-204L168 0h-37L68-204 70 0H24v-248h70l56 185 57-185h69V0h-46" id="br"/><path fill="#333" d="M133-34C117-15 103 5 69 4 32 3 11-16 11-54c-1-60 55-63 116-61 1-26-3-47-28-47-18 1-26 9-28 27l-52-2c7-38 36-58 82-57s74 22 75 68l1 82c-1 14 12 18 25 15v27c-30 8-71 5-69-32zm-48 3c29 0 43-24 42-57-32 0-66-3-65 30 0 17 8 27 23 27" id="bs"/><path fill="#333" d="M144 0l-44-69L55 0H2l70-98-66-92h53l41 62 40-62h54l-67 91 71 99h-54" id="bt"/><g id="N"><use transform="matrix(0.04938271604938272,0,0,0.04938271604938272,0,0)" xlink:href="#br"/><use transform="matrix(0.04938271604938272,0,0,0.04938271604938272,14.765432098765434,0)" xlink:href="#bs"/><use transform="matrix(0.04938271604938272,0,0,0.04938271604938272,24.641975308641978,0)" xlink:href="#bt"/></g><path fill="#333" d="M25-224v-37h50v37H25zM25 0v-190h50V0H25" id="bu"/><path fill="#333" d="M88-194c31-1 46 15 58 34l-1-101h50l1 261h-48c-2-10 0-23-3-31C134-8 116 4 84 4 32 4 16-41 15-95c0-56 19-97 73-99zm17 164c33 0 40-30 41-66 1-37-9-64-41-64s-38 30-39 65c0 43 13 65 39 65" id="bv"/><g id="O"><use transform="matrix(0.04938271604938272,0,0,0.04938271604938272,0,0)" xlink:href="#br"/><use transform="matrix(0.04938271604938272,0,0,0.04938271604938272,14.765432098765434,0)" xlink:href="#bu"/><use transform="matrix(0.04938271604938272,0,0,0.04938271604938272,19.703703703703706,0)" xlink:href="#bv"/></g><path fill="#333" d="M135-194c87-1 58 113 63 194h-50c-7-57 23-157-34-157-59 0-34 97-39 157H25l-1-190h47c2 12-1 28 3 38 12-26 28-41 61-42" id="bw"/><g id="P"><use transform="matrix(0.04938271604938272,0,0,0.04938271604938272,0,0)" xlink:href="#br"/><use transform="matrix(0.04938271604938272,0,0,0.04938271604938272,14.765432098765434,0)" xlink:href="#bu"/><use transform="matrix(0.04938271604938272,0,0,0.04938271604938272,19.703703703703706,0)" xlink:href="#bw"/></g><use transform="matrix(0.06172839506172839,0,0,0.06172839506172839,0,0)" xlink:href="#ai" id="Q"/><path fill="#cc4e00" d="M100-194c62-1 85 37 85 99 1 63-27 99-86 99S16-35 15-95c0-66 28-99 85-99zM99-20c44 1 53-31 53-75 0-43-8-75-51-75s-53 32-53 75 10 74 51 75" id="bx"/><path fill="#cc4e00" d="M206 0h-36l-40-164L89 0H53L-1-190h32L70-26l43-164h34l41 164 42-164h31" id="by"/><g id="R"><use transform="matrix(0.06172839506172839,0,0,0.06172839506172839,0,0)" xlink:href="#ak"/><use transform="matrix(0.06172839506172839,0,0,0.06172839506172839,6.172839506172839,0)" xlink:href="#al"/><use transform="matrix(0.06172839506172839,0,0,0.06172839506172839,18.51851851851852,0)" xlink:href="#am"/><use transform="matrix(0.06172839506172839,0,0,0.06172839506172839,30.864197530864196,0)" xlink:href="#an"/><use transform="matrix(0.06172839506172839,0,0,0.06172839506172839,38.20987654320987,0)" xlink:href="#az"/><use transform="matrix(0.06172839506172839,0,0,0.06172839506172839,50.55555555555555,0)" xlink:href="#aA"/><use transform="matrix(0.06172839506172839,0,0,0.06172839506172839,62.90123456790123,0)" xlink:href="#aA"/><use transform="matrix(0.06172839506172839,0,0,0.06172839506172839,75.24691358024691,0)" xlink:href="#bx"/><use transform="matrix(0.06172839506172839,0,0,0.06172839506172839,87.5925925925926,0)" xlink:href="#by"/><use transform="matrix(0.06172839506172839,0,0,0.06172839506172839,103.58024691358025,0)" xlink:href="#ao"/></g><g id="S"><use transform="matrix(0.06172839506172839,0,0,0.06172839506172839,0,0)" xlink:href="#au"/><use transform="matrix(0.06172839506172839,0,0,0.06172839506172839,18.456790123456788,0)" xlink:href="#ad"/><use transform="matrix(0.06172839506172839,0,0,0.06172839506172839,33.2716049382716,0)" xlink:href="#bh"/><use transform="matrix(0.06172839506172839,0,0,0.06172839506172839,46.79012345679012,0)" xlink:href="#bi"/></g><path fill="#cc4e00" d="M63-220v92h138v28H63V0H30v-248h175v28H63" id="bz"/><path fill="#cc4e00" d="M212-179c-10-28-35-45-73-45-59 0-87 40-87 99 0 60 29 101 89 101 43 0 62-24 78-52l27 14C228-24 195 4 139 4 59 4 22-46 18-125c-6-104 99-153 187-111 19 9 31 26 39 46" id="bA"/><g id="T"><use transform="matrix(0.06172839506172839,0,0,0.06172839506172839,0,0)" xlink:href="#ak"/><use transform="matrix(0.06172839506172839,0,0,0.06172839506172839,6.172839506172839,0)" xlink:href="#al"/><use transform="matrix(0.06172839506172839,0,0,0.06172839506172839,18.51851851851852,0)" xlink:href="#am"/><use transform="matrix(0.06172839506172839,0,0,0.06172839506172839,30.864197530864196,0)" xlink:href="#ap"/><use transform="matrix(0.06172839506172839,0,0,0.06172839506172839,43.20987654320987,0)" xlink:href="#an"/><use transform="matrix(0.06172839506172839,0,0,0.06172839506172839,50.55555555555555,0)" xlink:href="#az"/><use transform="matrix(0.06172839506172839,0,0,0.06172839506172839,62.90123456790123,0)" xlink:href="#ap"/><use transform="matrix(0.06172839506172839,0,0,0.06172839506172839,75.24691358024691,0)" xlink:href="#bz"/><use transform="matrix(0.06172839506172839,0,0,0.06172839506172839,88.76543209876543,0)" xlink:href="#bA"/></g><path fill="#333" d="M190 0L58-211 59 0H30v-248h39L202-35l-2-213h31V0h-41" id="bB"/><path fill="#333" d="M100-194c62-1 85 37 85 99 1 63-27 99-86 99S16-35 15-95c0-66 28-99 85-99zM99-20c44 1 53-31 53-75 0-43-8-75-51-75s-53 32-53 75 10 74 51 75" id="bC"/><path fill="#333" d="M117-194c89-4 53 116 60 194h-32v-121c0-31-8-49-39-48C34-167 62-67 57 0H25l-1-190h30c1 10-1 24 2 32 11-22 29-35 61-36" id="bD"/><path fill="#333" d="M16-82v-28h88v28H16" id="bE"/><path fill="#333" d="M212-179c-10-28-35-45-73-45-59 0-87 40-87 99 0 60 29 101 89 101 43 0 62-24 78-52l27 14C228-24 195 4 139 4 59 4 22-46 18-125c-6-104 99-153 187-111 19 9 31 26 39 46" id="bF"/><path fill="#333" d="M137 0h-34L2-248h35l83 218 83-218h36" id="bG"/><path fill="#333" d="M143 4C61 4 22-44 18-125c-5-107 100-154 193-111 17 8 29 25 37 43l-32 9c-13-25-37-40-76-40-61 0-88 39-88 99 0 61 29 100 91 101 35 0 62-11 79-27v-45h-74v-28h105v86C228-13 192 4 143 4" id="bH"/><g id="U"><use transform="matrix(0.06172839506172839,0,0,0.06172839506172839,0,0)" xlink:href="#bB"/><use transform="matrix(0.06172839506172839,0,0,0.06172839506172839,15.987654320987653,0)" xlink:href="#bC"/><use transform="matrix(0.06172839506172839,0,0,0.06172839506172839,28.333333333333332,0)" xlink:href="#bD"/><use transform="matrix(0.06172839506172839,0,0,0.06172839506172839,40.67901234567901,0)" xlink:href="#bE"/><use transform="matrix(0.06172839506172839,0,0,0.06172839506172839,48.02469135802469,0)" xlink:href="#bF"/><use transform="matrix(0.06172839506172839,0,0,0.06172839506172839,64.01234567901234,0)" xlink:href="#bG"/><use transform="matrix(0.06172839506172839,0,0,0.06172839506172839,78.82716049382715,0)" xlink:href="#bH"/></g><path fill="#333" d="M169-182c-1-43-94-46-97-3 18 66 151 10 154 114 3 95-165 93-204 36-6-8-10-19-12-30l50-8c3 46 112 56 116 5-17-69-150-10-154-114-4-87 153-88 188-35 5 8 8 18 10 28" id="bI"/><path fill="#333" d="M25 0v-190h50V0H25zm-5-208v-5l45-51h45v8l-60 48H20" id="bJ"/><g id="V"><use transform="matrix(0.04938271604938272,0,0,0.04938271604938272,0,0)" xlink:href="#bI"/><use transform="matrix(0.04938271604938272,0,0,0.04938271604938272,11.851851851851853,0)" xlink:href="#bJ"/></g><path fill="#3a414a" d="M206 0h-36l-40-164L89 0H53L-1-190h32L70-26l43-164h34l41 164 42-164h31" id="bK"/><g id="W"><use transform="matrix(0.06172839506172839,0,0,0.06172839506172839,0,0)" xlink:href="#aC"/><use transform="matrix(0.06172839506172839,0,0,0.06172839506172839,6.172839506172839,0)" xlink:href="#aD"/><use transform="matrix(0.06172839506172839,0,0,0.06172839506172839,18.51851851851852,0)" xlink:href="#av"/><use transform="matrix(0.06172839506172839,0,0,0.06172839506172839,30.864197530864196,0)" xlink:href="#aE"/><use transform="matrix(0.06172839506172839,0,0,0.06172839506172839,41.9753086419753,0)" xlink:href="#aF"/><use transform="matrix(0.06172839506172839,0,0,0.06172839506172839,48.148148148148145,0)" xlink:href="#aG"/><use transform="matrix(0.06172839506172839,0,0,0.06172839506172839,53.02469135802469,0)" xlink:href="#aH"/><use transform="matrix(0.06172839506172839,0,0,0.06172839506172839,64.1358024691358,0)" xlink:href="#af"/><use transform="matrix(0.06172839506172839,0,0,0.06172839506172839,76.48148148148148,0)" xlink:href="#aI"/><use transform="matrix(0.06172839506172839,0,0,0.06172839506172839,88.82716049382717,0)" xlink:href="#bh"/><use transform="matrix(0.06172839506172839,0,0,0.06172839506172839,102.34567901234568,0)" xlink:href="#bi"/><use transform="matrix(0.06172839506172839,0,0,0.06172839506172839,118.33333333333334,0)" xlink:href="#aI"/><use transform="matrix(0.06172839506172839,0,0,0.06172839506172839,130.679012345679,0)" xlink:href="#aJ"/><use transform="matrix(0.06172839506172839,0,0,0.06172839506172839,138.02469135802468,0)" xlink:href="#af"/><use transform="matrix(0.06172839506172839,0,0,0.06172839506172839,150.37037037037035,0)" xlink:href="#ay"/><use transform="matrix(0.06172839506172839,0,0,0.06172839506172839,162.71604938271602,0)" xlink:href="#ay"/><use transform="matrix(0.06172839506172839,0,0,0.06172839506172839,175.0617283950617,0)" xlink:href="#bq"/><use transform="matrix(0.06172839506172839,0,0,0.06172839506172839,187.40740740740736,0)" xlink:href="#bK"/><use transform="matrix(0.06172839506172839,0,0,0.06172839506172839,203.395061728395,0)" xlink:href="#aD"/></g><g id="X"><use transform="matrix(0.06172839506172839,0,0,0.06172839506172839,0,0)" xlink:href="#ad"/><use transform="matrix(0.06172839506172839,0,0,0.06172839506172839,14.814814814814813,0)" xlink:href="#aE"/><use transform="matrix(0.06172839506172839,0,0,0.06172839506172839,25.925925925925924,0)" xlink:href="#aF"/><use transform="matrix(0.06172839506172839,0,0,0.06172839506172839,32.098765432098766,0)" xlink:href="#aG"/><use transform="matrix(0.06172839506172839,0,0,0.06172839506172839,36.97530864197531,0)" xlink:href="#aH"/><use transform="matrix(0.06172839506172839,0,0,0.06172839506172839,48.08641975308642,0)" xlink:href="#af"/><use transform="matrix(0.06172839506172839,0,0,0.06172839506172839,60.432098765432094,0)" xlink:href="#aI"/><use transform="matrix(0.06172839506172839,0,0,0.06172839506172839,72.77777777777777,0)" xlink:href="#bh"/><use transform="matrix(0.06172839506172839,0,0,0.06172839506172839,86.29629629629629,0)" xlink:href="#bi"/></g><g id="Y"><use transform="matrix(0.06172839506172839,0,0,0.06172839506172839,0,0)" xlink:href="#ad"/><use transform="matrix(0.06172839506172839,0,0,0.06172839506172839,14.814814814814813,0)" xlink:href="#aE"/><use transform="matrix(0.06172839506172839,0,0,0.06172839506172839,25.925925925925924,0)" xlink:href="#aF"/><use transform="matrix(0.06172839506172839,0,0,0.06172839506172839,32.098765432098766,0)" xlink:href="#aG"/><use transform="matrix(0.06172839506172839,0,0,0.06172839506172839,36.97530864197531,0)" xlink:href="#aH"/><use transform="matrix(0.06172839506172839,0,0,0.06172839506172839,48.08641975308642,0)" xlink:href="#af"/><use transform="matrix(0.06172839506172839,0,0,0.06172839506172839,60.432098765432094,0)" xlink:href="#aI"/><use transform="matrix(0.06172839506172839,0,0,0.06172839506172839,72.77777777777777,0)" xlink:href="#bh"/><use transform="matrix(0.06172839506172839,0,0,0.06172839506172839,86.29629629629629,0)" xlink:href="#bi"/><use transform="matrix(0.06172839506172839,0,0,0.06172839506172839,102.28395061728395,0)" xlink:href="#aI"/><use transform="matrix(0.06172839506172839,0,0,0.06172839506172839,114.62962962962963,0)" xlink:href="#bj"/><use transform="matrix(0.06172839506172839,0,0,0.06172839506172839,130.6172839506173,0)" xlink:href="#aG"/><use transform="matrix(0.06172839506172839,0,0,0.06172839506172839,135.49382716049382,0)" xlink:href="#bk"/><use transform="matrix(0.06172839506172839,0,0,0.06172839506172839,141.66666666666666,0)" xlink:href="#aI"/><use transform="matrix(0.06172839506172839,0,0,0.06172839506172839,154.01234567901233,0)" xlink:href="#aQ"/><use transform="matrix(0.06172839506172839,0,0,0.06172839506172839,172.4691358024691,0)" xlink:href="#av"/><use transform="matrix(0.06172839506172839,0,0,0.06172839506172839,184.81481481481478,0)" xlink:href="#aw"/></g><g id="Z"><use transform="matrix(0.06172839506172839,0,0,0.06172839506172839,0,0)" xlink:href="#aC"/><use transform="matrix(0.06172839506172839,0,0,0.06172839506172839,6.172839506172839,0)" xlink:href="#aD"/><use transform="matrix(0.06172839506172839,0,0,0.06172839506172839,18.51851851851852,0)" xlink:href="#av"/><use transform="matrix(0.06172839506172839,0,0,0.06172839506172839,30.864197530864196,0)" xlink:href="#aE"/><use transform="matrix(0.06172839506172839,0,0,0.06172839506172839,41.9753086419753,0)" xlink:href="#aF"/><use transform="matrix(0.06172839506172839,0,0,0.06172839506172839,48.148148148148145,0)" xlink:href="#aG"/><use transform="matrix(0.06172839506172839,0,0,0.06172839506172839,53.02469135802469,0)" xlink:href="#aH"/><use transform="matrix(0.06172839506172839,0,0,0.06172839506172839,64.1358024691358,0)" xlink:href="#af"/><use transform="matrix(0.06172839506172839,0,0,0.06172839506172839,76.48148148148148,0)" xlink:href="#aI"/><use transform="matrix(0.06172839506172839,0,0,0.06172839506172839,88.82716049382717,0)" xlink:href="#bh"/><use transform="matrix(0.06172839506172839,0,0,0.06172839506172839,102.34567901234568,0)" xlink:href="#bi"/><use transform="matrix(0.06172839506172839,0,0,0.06172839506172839,118.33333333333334,0)" xlink:href="#aI"/><use transform="matrix(0.06172839506172839,0,0,0.06172839506172839,130.679012345679,0)" xlink:href="#bj"/><use transform="matrix(0.06172839506172839,0,0,0.06172839506172839,146.66666666666666,0)" xlink:href="#aG"/><use transform="matrix(0.06172839506172839,0,0,0.06172839506172839,151.5432098765432,0)" xlink:href="#bk"/><use transform="matrix(0.06172839506172839,0,0,0.06172839506172839,157.71604938271602,0)" xlink:href="#aI"/><use transform="matrix(0.06172839506172839,0,0,0.06172839506172839,170.0617283950617,0)" xlink:href="#aQ"/><use transform="matrix(0.06172839506172839,0,0,0.06172839506172839,188.51851851851848,0)" xlink:href="#aG"/><use transform="matrix(0.06172839506172839,0,0,0.06172839506172839,193.395061728395,0)" xlink:href="#aD"/></g><g id="aa"><use transform="matrix(0.06172839506172839,0,0,0.06172839506172839,0,0)" xlink:href="#ad"/><use transform="matrix(0.06172839506172839,0,0,0.06172839506172839,14.814814814814813,0)" xlink:href="#aE"/><use transform="matrix(0.06172839506172839,0,0,0.06172839506172839,25.925925925925924,0)" xlink:href="#aF"/><use transform="matrix(0.06172839506172839,0,0,0.06172839506172839,32.098765432098766,0)" xlink:href="#aG"/><use transform="matrix(0.06172839506172839,0,0,0.06172839506172839,36.97530864197531,0)" xlink:href="#aH"/><use transform="matrix(0.06172839506172839,0,0,0.06172839506172839,48.08641975308642,0)" xlink:href="#af"/><use transform="matrix(0.06172839506172839,0,0,0.06172839506172839,60.432098765432094,0)" xlink:href="#aI"/><use transform="matrix(0.06172839506172839,0,0,0.06172839506172839,72.77777777777777,0)" xlink:href="#bh"/><use transform="matrix(0.06172839506172839,0,0,0.06172839506172839,86.29629629629629,0)" xlink:href="#bi"/><use transform="matrix(0.06172839506172839,0,0,0.06172839506172839,102.28395061728395,0)" xlink:href="#aI"/><use transform="matrix(0.06172839506172839,0,0,0.06172839506172839,114.62962962962963,0)" xlink:href="#bj"/><use transform="matrix(0.06172839506172839,0,0,0.06172839506172839,130.6172839506173,0)" xlink:href="#aG"/><use transform="matrix(0.06172839506172839,0,0,0.06172839506172839,135.49382716049382,0)" xlink:href="#bk"/><use transform="matrix(0.06172839506172839,0,0,0.06172839506172839,141.66666666666666,0)" xlink:href="#aI"/><use transform="matrix(0.06172839506172839,0,0,0.06172839506172839,154.01234567901233,0)" xlink:href="#aQ"/><use transform="matrix(0.06172839506172839,0,0,0.06172839506172839,172.4691358024691,0)" xlink:href="#aG"/><use transform="matrix(0.06172839506172839,0,0,0.06172839506172839,177.34567901234564,0)" xlink:href="#ay"/></g></defs></g></svg>