<svg xmlns="http://www.w3.org/2000/svg" xmlns:xlink="http://www.w3.org/1999/xlink" xmlns:lucid="lucid" width="2238.76" height="2820"><g transform="translate(1600 1500)" lucid:page-tab-id="0_0"><path d="M-1232.16 1043.6c2.65-2 6.95-2 9.6 0l70.4 52.8c2.65 2 2.65 5.2 0 7.2l-70.4 52.8c-2.65 2-6.95 2-9.6 0l-70.4-52.8c-2.65-2-2.65-5.2 0-7.2z" stroke="#3a414a" fill="#edf5ff"/><use xlink:href="#a" transform="matrix(1,0,0,1,-1302.3564568107633,1045) translate(48.492654320987654 45.27777777777778)"/><use xlink:href="#b" transform="matrix(1,0,0,1,-1302.3564568107633,1045) translate(71.94944444444445 45.27777777777778)"/><use xlink:href="#c" transform="matrix(1,0,0,1,-1302.3564568107633,1045) translate(37.443271604938275 71.94444444444446)"/><path d="M-952.16 1043.6c2.65-2 6.95-2 9.6 0l70.4 52.8c2.65 2 2.65 5.2 0 7.2l-70.4 52.8c-2.65 2-6.95 2-9.6 0l-70.4-52.8c-2.65-2-2.65-5.2 0-7.2z" stroke="#3a414a" fill="#edf5ff"/><use xlink:href="#d" transform="matrix(1,0,0,1,-1022.3564568107633,1045) translate(23.827160493827165 35.44444444444444)"/><use xlink:href="#e" transform="matrix(1,0,0,1,-1022.3564568107633,1045) translate(85.49382716049382 35.44444444444444)"/><use xlink:href="#f" transform="matrix(1,0,0,1,-1022.3564568107633,1045) translate(36.23456790123456 62.11111111111111)"/><use xlink:href="#g" transform="matrix(1,0,0,1,-1022.3564568107633,1045) translate(93.02469135802468 62.11111111111111)"/><use xlink:href="#h" transform="matrix(1,0,0,1,-1022.3564568107633,1045) translate(8.53086419753086 85.22222222222223)"/><path d="M-1102.67 1100.5h-46.6v-1h46.6zm61.33 0h-30.7v-1h30.7z" stroke="#3a414a" stroke-width=".05" fill="#3a414a"/><path d="M-1149.25 1100.5h-.43l-.17-1h.6z" fill="#3a414a"/><path d="M-1149.22 1100.53h-.48l-.18-1.06h.66zm-.6-1l.16.94h.4v-.94z" stroke="#3a414a" stroke-width=".05" fill="#3a414a"/><path d="M-1026.57 1100l-14.27 4.64v-9.28z" fill="#3a414a"/><path d="M-1024.95 1100l-16.4 5.32v-10.64zm-15.4 3.95l12.16-3.95-12.14-3.95z" stroke="#3a414a" stroke-width=".05" fill="#3a414a"/><use xlink:href="#i" transform="matrix(1,0,0,1,-1102.665098786072,1089.3333333333333) translate(0 14.222222222222223)"/><path d="M-1504.8 323.6c2.65-2 6.95-2 9.6 0l70.4 52.8c2.65 2 2.65 5.2 0 7.2l-70.4 52.8c-2.65 2-6.95 2-9.6 0l-70.4-52.8c-2.65-2-2.65-5.2 0-7.2z" stroke="#3a414a" fill="#edf5ff"/><use xlink:href="#j" transform="matrix(1,0,0,1,-1575,325) translate(33.06055555555556 59.02777777777778)"/><use xlink:href="#k" transform="matrix(1,0,0,1,-1575,325) translate(56.51734567901235 59.02777777777778)"/><path d="M-1359 1093.87l.7 2.64 1.8 1.8 2.63.7h30.42v2h-30.68l-3.42-.92-2.53-2.53-.92-3.42V747h2zm-3.45-713.95l2.53 2.53.92 3.42v339.8h-2V386.12l-.7-2.64-1.8-1.8-2.63-.7h-55.27v-2h55.53z" stroke="#5e5e5e" stroke-width=".05" fill="#5e5e5e"/><path d="M-1421.38 381h-1.15l.2-.5-.25-1.5h1.2z" fill="#5e5e5e"/><path d="M-1421.35 381.02h-1.22l.23-.53-.26-1.52h1.25zm-1.2-2l.26 1.47-.2.48h1.1v-1.96z" stroke="#5e5e5e" stroke-width=".05" fill="#5e5e5e"/><path d="M-1308.2 1100l-14.25 4.64v-9.28z" fill="#5e5e5e"/><path d="M-1304.95 1100l-18.5 6v-12zm-16.5 3.26l10.02-3.26-10.02-3.26z" stroke="#5e5e5e" stroke-width=".05" fill="#5e5e5e"/><use xlink:href="#l" transform="matrix(1,0,0,1,-1375.3086419753085,725.6551049279517) translate(0.005000000000000782 14.222222222222223)"/><path d="M-1232.16-356.4c2.65-2 6.95-2 9.6 0l70.4 52.8c2.65 2 2.65 5.2 0 7.2l-70.4 52.8c-2.65 2-6.95 2-9.6 0l-70.4-52.8c-2.65-2-2.65-5.2 0-7.2z" stroke="#3a414a" fill="#edf5ff"/><use xlink:href="#j" transform="matrix(1,0,0,1,-1302.3564568107633,-355) translate(48.492654320987654 45.27777777777778)"/><use xlink:href="#m" transform="matrix(1,0,0,1,-1302.3564568107633,-355) translate(71.94944444444445 45.27777777777778)"/><use xlink:href="#n" transform="matrix(1,0,0,1,-1302.3564568107633,-355) translate(37.443271604938275 71.94444444444446)"/><path d="M-1359 374.13l-.92 3.42-2.53 2.53-3.42.92h-55.53v-2h55.27l2.64-.7 1.8-1.8.7-2.63V54.34h2zm35.55-673.13h-30.42l-2.64.7-1.8 1.8-.7 2.63V33h-2v-327.13l.92-3.42 2.53-2.53 3.42-.92h30.68z" stroke="#5e5e5e" stroke-width=".05" fill="#5e5e5e"/><path d="M-1421.38 381h-1.15l.2-.5-.25-1.5h1.2z" fill="#5e5e5e"/><path d="M-1421.35 381.02h-1.22l.23-.53-.26-1.52h1.25zm-1.2-2l.26 1.47-.2.48h1.1v-1.96z" stroke="#5e5e5e" stroke-width=".05" fill="#5e5e5e"/><path d="M-1308.2-300l-14.25 4.64v-9.28z" fill="#5e5e5e"/><path d="M-1304.95-300l-18.5 6v-12zm-16.5 3.26l10.02-3.26-10.02-3.26z" stroke="#5e5e5e" stroke-width=".05" fill="#5e5e5e"/><use xlink:href="#o" transform="matrix(1,0,0,1,-1371.8024691358025,33.011561738715) translate(0.005000000000000782 14.222222222222223)"/><path d="M-924.8 103.6c2.65-2 6.95-2 9.6 0l70.4 52.8c2.65 2 2.65 5.2 0 7.2l-70.4 52.8c-2.65 2-6.95 2-9.6 0l-70.4-52.8c-2.65-2-2.65-5.2 0-7.2z" stroke="#3a414a" fill="#edf5ff"/><use xlink:href="#j" transform="matrix(1,0,0,1,-995,105) translate(48.48765432098766 46.111111111111114)"/><use xlink:href="#m" transform="matrix(1,0,0,1,-995,105) translate(71.94444444444444 46.111111111111114)"/><use xlink:href="#p" transform="matrix(1,0,0,1,-995,105) translate(22.00617283950617 72.77777777777777)"/><path d="M-1079 153.87l.7 2.64 1.8 1.8 2.63.7h57.77v2h-58.03l-3.42-.92-2.53-2.53-.92-3.42V-53h2zm-3.45-453.95l2.53 2.53.92 3.42v219.8h-2v-219.54l-.7-2.64-1.8-1.8-2.63-.7h-62.63v-2h62.9z" stroke="#5e5e5e" stroke-width=".05" fill="#5e5e5e"/><path d="M-1148.73-299h-1.16l.22-.5-.25-1.5h1.2z" fill="#5e5e5e"/><path d="M-1148.7-298.98h-1.22l.22-.53-.26-1.52h1.25zm-1.2-2l.25 1.47-.2.48h1.1v-1.96z" stroke="#5e5e5e" stroke-width=".05" fill="#5e5e5e"/><path d="M-1000.83 160l-14.27 4.64v-9.28z" fill="#5e5e5e"/><path d="M-997.6 160l-18.5 6v-12zm-16.5 3.26l10.03-3.26-10.03-3.26z" stroke="#5e5e5e" stroke-width=".05" fill="#5e5e5e"/><use xlink:href="#o" transform="matrix(1,0,0,1,-1091.8024691358025,-74.34489507204835) translate(0.005000000000000782 14.222222222222223)"/><path d="M-641.4 103.6c2.65-2 6.95-2 9.6 0l70.4 52.8c2.65 2 2.65 5.2 0 7.2l-70.4 52.8c-2.65 2-6.95 2-9.6 0l-70.4-52.8c-2.65-2-2.65-5.2 0-7.2z" stroke="#3a414a" fill="#edf5ff"/><use xlink:href="#q" transform="matrix(1,0,0,1,-711.5961374328599,105) translate(27.561728395061735 46.111111111111114)"/><use xlink:href="#r" transform="matrix(1,0,0,1,-711.5961374328599,105) translate(96.51234567901234 46.111111111111114)"/><use xlink:href="#s" transform="matrix(1,0,0,1,-711.5961374328599,105) translate(22.623456790123456 72.77777777777777)"/><path d="M-793.6 161h-47.8v-2h47.8zm60.9 0H-763v-2h30.3z" stroke="#5e5e5e" stroke-width=".05" fill="#5e5e5e"/><path d="M-841.38 161h-1.15l.2-.5-.25-1.5h1.2z" fill="#5e5e5e"/><path d="M-841.35 161.03h-1.22l.23-.54-.26-1.53h1.25zm-1.2-2l.26 1.46-.2.47h1.1v-1.94z" stroke="#5e5e5e" stroke-width=".05" fill="#5e5e5e"/><path d="M-717.43 160l-14.26 4.64v-9.28z" fill="#5e5e5e"/><path d="M-714.2 160l-18.5 6v-12zm-16.5 3.26l10.04-3.26-10.03-3.26z" stroke="#5e5e5e" stroke-width=".05" fill="#5e5e5e"/><use xlink:href="#l" transform="matrix(1,0,0,1,-793.6067106917386,149.33333333333334) translate(0.005000000000000782 14.222222222222223)"/><path d="M-467.3 154.13l-.92 3.42-2.53 2.53-3.42.92H-558v-2h83.57l2.64-.7 1.8-1.8.7-2.63v-183.2h2zM-396.1-239h-66.07l-2.64.7-1.78 1.8-.72 2.63v183.2h-2v-183.46l.93-3.42 2.53-2.53 3.4-.92h66.34z" stroke="#5e5e5e" stroke-width=".05" fill="#5e5e5e"/><path d="M-557.97 161h-1.16l.2-.5-.24-1.5h1.2z" fill="#5e5e5e"/><path d="M-557.95 161.03h-1.2l.2-.54-.25-1.53h1.25zm-1.2-2l.26 1.46-.2.47h1.1v-1.94z" stroke="#5e5e5e" stroke-width=".05" fill="#5e5e5e"/><path d="M-380.83-240l-14.27 4.64v-9.28z" fill="#5e5e5e"/><path d="M-377.6-240l-18.5 6v-12zm-16.5 3.26l10.03-3.26-10.03-3.26z" stroke="#5e5e5e" stroke-width=".05" fill="#5e5e5e"/><use xlink:href="#l" transform="matrix(1,0,0,1,-483.60671069173867,-50.66666666666667) translate(0.005000000000000782 14.222222222222223)"/><path d="M-304.8 503.6c2.65-2 6.95-2 9.6 0l70.4 52.8c2.65 2 2.65 5.2 0 7.2l-70.4 52.8c-2.65 2-6.95 2-9.6 0l-70.4-52.8c-2.65-2-2.65-5.2 0-7.2z" stroke="#3a414a" fill="#edf5ff"/><use xlink:href="#t" transform="matrix(1,0,0,1,-375,505) translate(14.572901234567889 59.02777777777778)"/><use xlink:href="#u" transform="matrix(1,0,0,1,-375,505) translate(68.83216049382716 59.02777777777778)"/><use xlink:href="#v" transform="matrix(1,0,0,1,-375,505) translate(115.68401234567902 59.02777777777778)"/><path d="M-467.3 553.87l.72 2.64 1.77 1.8 2.63.7h66.07v2h-66.33l-3.4-.92-2.54-2.53-.93-3.42V370.67h2zm-3.45-393.95l2.53 2.53.92 3.42v183.46h-2v-183.2l-.7-2.64-1.8-1.8-2.63-.7H-558v-2h83.83z" stroke="#5e5e5e" stroke-width=".05" fill="#5e5e5e"/><path d="M-557.97 161h-1.16l.2-.5-.24-1.5h1.2z" fill="#5e5e5e"/><path d="M-557.95 161.03h-1.2l.2-.54-.25-1.53h1.25zm-1.2-2l.26 1.46-.2.47h1.1v-1.94z" stroke="#5e5e5e" stroke-width=".05" fill="#5e5e5e"/><path d="M-380.83 560l-14.27 4.64v-9.28z" fill="#5e5e5e"/><path d="M-377.6 560l-18.5 6v-12zm-16.5 3.26l10.03-3.26-10.03-3.26z" stroke="#5e5e5e" stroke-width=".05" fill="#5e5e5e"/><use xlink:href="#o" transform="matrix(1,0,0,1,-480.10053785223243,349.3333333333333) translate(0.005000000000000782 14.222222222222223)"/><path d="M542.4 680c30.93 0 56 17.9 56 40s-25.07 40-56 40h-168c-30.93 0-56-17.9-56-40s25.07-40 56-40z" stroke="#3a414a" fill="#fff0f0"/><use xlink:href="#w" transform="matrix(1,0,0,1,323.40223824951954,685) translate(32.03703703703705 39.65277777777778)"/><path d="M542.4 517.17c30.93 0 56 17.9 56 40s-25.07 40-56 40h-168c-30.93 0-56-17.9-56-40s25.07-40 56-40z" stroke="#3a414a" fill="#fff"/><use xlink:href="#x" transform="matrix(1,0,0,1,323.40223824951954,522.1653543307093) translate(65.37037037037037 39.65277777777778)"/><path d="M542.4 360c30.93 0 56 17.9 56 40s-25.07 40-56 40h-168c-30.93 0-56-17.9-56-40s25.07-40 56-40z" stroke="#3a414a" fill="#e3fae3"/><use xlink:href="#y" transform="matrix(1,0,0,1,323.40223824951954,365) translate(40.06172839506175 39.65277777777778)"/><path d="M-132.7 560.37l2.33 2.34.87 3.23v148l.77 2.84 1.96 1.96 2.84.77h223.7v1h-223.84l-3.22-.87-2.33-2.34-.87-3.23v-148l-.77-2.84-1.96-1.96-2.84-.77h-85.83v-1h85.97zM301.5 719.5v1H246.1v-1z" stroke="#3a414a" stroke-width=".05" fill="#3a414a"/><path d="M-221.9 560.5h-.42l-.17-1h.6z" fill="#3a414a"/><path d="M-221.87 560.52h-.47l-.18-1.04h.65zm-.6-1l.17.96h.38v-.96z" stroke="#3a414a" stroke-width=".05" fill="#3a414a"/><path d="M316.28 720l-14.26 4.64v-9.28z" fill="#3a414a"/><path d="M317.9 720l-16.38 5.32v-10.64zm-15.38 3.95l12.15-3.95-12.15-3.95z" stroke="#3a414a" stroke-width=".05" fill="#3a414a"/><use xlink:href="#z" transform="matrix(1,0,0,1,99.77346435929196,709.3333333333334) translate(0 14.222222222222223)"/><path d="M-80.14 561.07h-141.7v-1h141.7zM302.2 560l-.33.76-.75.3h-48.7v-1h48.5l.2-.07.07-.2v-.56h1z" stroke="#3a414a" stroke-width=".05" fill="#3a414a"/><path d="M-221.84 561.07h-.72l.24-.58-.07-.43h.56z" fill="#3a414a"/><path d="M-221.8 561.1h-.8l.26-.6-.08-.46h.6zm-.56-1l.07.4-.22.54h.66v-.95z" stroke="#3a414a" stroke-width=".05" fill="#3a414a"/><path d="M316.37 559.16l-14.25 4.7-.04-9.26z" fill="#3a414a"/><path d="M317.98 559.15l-16.35 5.4-.06-10.64zm-15.36 4.03l12.13-4-12.17-3.9z" stroke="#3a414a" stroke-width=".05" fill="#3a414a"/><use xlink:href="#A" transform="matrix(1,0,0,1,-80.13522121353915,549.9015123996296) translate(0 14.222222222222223)"/><use xlink:href="#B" transform="matrix(1,0,0,1,-80.13522121353915,549.9015123996296) translate(15.308641975308644 14.222222222222223)"/><use xlink:href="#C" transform="matrix(1,0,0,1,-80.13522121353915,549.9015123996296) translate(153.1851851851852 14.222222222222223)"/><use xlink:href="#D" transform="matrix(1,0,0,1,-80.13522121353915,549.9015123996296) translate(170.9135802469136 14.222222222222223)"/><use xlink:href="#E" transform="matrix(1,0,0,1,-80.13522121353915,549.9015123996296) translate(196.5925925925926 14.222222222222223)"/><path d="M85.4 400.5h-209.33l-2.84.77-1.96 1.96-.77 2.84v148l-.87 3.22-2.34 2.33-3.23.87h-85.97v-1h85.83l2.84-.77 1.96-1.96.77-2.84v-148l.87-3.22 2.34-2.33 3.23-.87H85.4zm216.12 0h-57.5v-1h57.5z" stroke="#3a414a" stroke-width=".05" fill="#3a414a"/><path d="M-221.9 560.5h-.42l-.17-1h.6z" fill="#3a414a"/><path d="M-221.87 560.52h-.47l-.18-1.04h.65zm-.6-1l.17.96h.38v-.96z" stroke="#3a414a" stroke-width=".05" fill="#3a414a"/><path d="M316.28 400l-14.26 4.64v-9.28z" fill="#3a414a"/><path d="M317.9 400l-16.38 5.32v-10.64zm-15.38 3.95l12.15-3.95-12.15-3.95z" stroke="#3a414a" stroke-width=".05" fill="#3a414a"/><use xlink:href="#F" transform="matrix(1,0,0,1,85.39639010086428,389.3333333333333) translate(0 14.222222222222223)"/><use xlink:href="#G" transform="matrix(1,0,0,1,85.39639010086428,389.3333333333333) translate(25.679012345679016 14.222222222222223)"/><path d="M-304.8-296.4c2.65-2 6.95-2 9.6 0l70.4 52.8c2.65 2 2.65 5.2 0 7.2l-70.4 52.8c-2.65 2-6.95 2-9.6 0l-70.4-52.8c-2.65-2-2.65-5.2 0-7.2z" stroke="#3a414a" fill="#edf5ff"/><use xlink:href="#t" transform="matrix(1,0,0,1,-375,-295) translate(14.572901234567889 59.02777777777778)"/><use xlink:href="#u" transform="matrix(1,0,0,1,-375,-295) translate(68.83216049382716 59.02777777777778)"/><use xlink:href="#v" transform="matrix(1,0,0,1,-375,-295) translate(115.68401234567902 59.02777777777778)"/><path d="M544.8 42.83c30.93 0 56 17.9 56 40s-25.07 40-56 40h-168c-30.92 0-56-17.9-56-40s25.08-40 56-40z" stroke="#3a414a" fill="#fff0f0"/><use xlink:href="#w" transform="matrix(1,0,0,1,325.80575123208973,47.834645669290694) translate(32.03703703703705 39.65277777777778)"/><path d="M547.2-80c30.94 0 56 17.9 56 40s-25.06 40-56 40h-168c-30.92 0-56-17.9-56-40s25.08-40 56-40z" stroke="#3a414a" fill="#fff"/><use xlink:href="#x" transform="matrix(1,0,0,1,328.2092642146599,-75) translate(65.37037037037037 39.65277777777778)"/><path d="M-152.7-239.63l2.33 2.34.87 3.23V76.77l.77 2.83 1.96 1.97 2.84.76h211.9v1h-212.04l-3.22-.87-2.33-2.34-.87-3.22v-310.83l-.77-2.84-1.96-1.96-2.84-.77h-65.83v-1h65.97zM303.9 82.33v1H214.3v-1z" stroke="#3a414a" stroke-width=".05" fill="#3a414a"/><path d="M-221.9-239.5h-.42l-.17-1h.6z" fill="#3a414a"/><path d="M-221.87-239.47h-.47l-.18-1.06h.65zm-.6-1l.17.94h.38v-.94z" stroke="#3a414a" stroke-width=".05" fill="#3a414a"/><path d="M318.7 82.83l-14.28 4.64V78.2z" fill="#3a414a"/><path d="M320.3 82.83l-16.38 5.33V77.5zm-15.38 3.95l12.15-3.95-12.15-3.94z" stroke="#3a414a" stroke-width=".05" fill="#3a414a"/><use xlink:href="#z" transform="matrix(1,0,0,1,67.97153391247936,72.16797900262402) translate(0 14.222222222222223)"/><path d="M-152.7-239.06l2.33 2.34.87 3.22v189.42l.77 2.83 1.96 1.97 2.84.77h43.26v1h-43.4l-3.22-.9-2.33-2.33-.87-3.22v-189.42l-.77-2.83-1.96-1.96-2.84-.77h-65.78v-1h65.92zM306.4-38.5v1h-74.53v-1z" stroke="#3a414a" stroke-width=".05" fill="#3a414a"/><path d="M-221.84-238.93h-.72l.24-.58-.07-.43h.56z" fill="#3a414a"/><path d="M-221.8-238.9h-.8l.26-.6-.08-.46h.6zm-.56-1l.07.4-.22.54h.66v-.95z" stroke="#3a414a" stroke-width=".05" fill="#3a414a"/><path d="M321.17-38L306.9-33.4v-9.27z" fill="#3a414a"/><path d="M322.8-38l-16.4 5.3v-10.64zm-15.4 3.93L319.57-38l-12.15-3.96z" stroke="#3a414a" stroke-width=".05" fill="#3a414a"/><use xlink:href="#A" transform="matrix(1,0,0,1,-100.67158656103356,-48.681164765725086) translate(0 14.222222222222223)"/><use xlink:href="#B" transform="matrix(1,0,0,1,-100.67158656103356,-48.681164765725086) translate(15.308641975308644 14.222222222222223)"/><use xlink:href="#C" transform="matrix(1,0,0,1,-100.67158656103356,-48.681164765725086) translate(153.1851851851852 14.222222222222223)"/><use xlink:href="#D" transform="matrix(1,0,0,1,-100.67158656103356,-48.681164765725086) translate(170.9135802469136 14.222222222222223)"/><use xlink:href="#E" transform="matrix(1,0,0,1,-100.67158656103356,-48.681164765725086) translate(196.5925925925926 14.222222222222223)"/><path d="M-148.3-245.93l-.87 3.22-2.34 2.33-3.23.87h-67.17v-1h67.04l2.83-.77 1.96-1.96.77-2.84v-33.26h1zm56.72-93.57h-51.15l-2.84.77-1.96 1.96-.77 2.84v33.26h-1v-33.4l.87-3.22 2.34-2.33 3.24-.87h51.28z" stroke="#3a414a" stroke-width=".05" fill="#3a414a"/><path d="M-221.9-239.5h-.42l-.17-1h.6z" fill="#3a414a"/><path d="M-221.87-239.47h-.47l-.18-1.06h.65zm-.6-1l.17.94h.38v-.94z" stroke="#3a414a" stroke-width=".05" fill="#3a414a"/><path d="M-76.8-340l-14.28 4.64v-9.28z" fill="#3a414a"/><path d="M-75.2-340l-16.38 5.32v-10.64zm-15.38 3.95l12.15-3.95-12.15-3.95z" stroke="#3a414a" stroke-width=".05" fill="#3a414a"/><use xlink:href="#F" transform="matrix(1,0,0,1,-228.10688548402356,-300.6666666666667) translate(0 14.222222222222223)"/><use xlink:href="#G" transform="matrix(1,0,0,1,-228.10688548402356,-300.6666666666667) translate(25.679012345679016 14.222222222222223)"/><path d="M-2.4-396.4c2.65-2 6.95-2 9.6 0l70.4 52.8c2.65 2 2.65 5.2 0 7.2L7.2-283.6c-2.65 2-6.95 2-9.6 0l-70.4-52.8c-2.65-2-2.65-5.2 0-7.2z" stroke="#3a414a" fill="#edf5ff"/><use xlink:href="#H" transform="matrix(1,0,0,1,-72.59648701742987,-395) translate(34.96913580246913 46.111111111111114)"/><use xlink:href="#I" transform="matrix(1,0,0,1,-72.59648701742987,-395) translate(20.123456790123456 72.77777777777777)"/><path d="M552.66-520c30.93 0 56 17.9 56 40s-25.07 40-56 40h-168c-30.93 0-56-17.9-56-40s25.07-40 56-40z" stroke="#3a414a" fill="#e3fae3"/><use xlink:href="#J" transform="matrix(1,0,0,1,333.66238283513803,-515) translate(-7.993827160493794 39.44444444444444)"/><path d="M552.66-240c30.93 0 56 17.9 56 40s-25.07 40-56 40h-168c-30.93 0-56-17.9-56-40s25.07-40 56-40z" stroke="#3a414a" fill="#fff0f0"/><use xlink:href="#K" transform="matrix(1,0,0,1,333.66238283513803,-235) translate(-12.901234567901213 39.44444444444444)"/><path d="M552.66-380c30.93 0 56 17.9 56 40s-25.07 40-56 40h-168c-30.93 0-56-17.9-56-40s25.07-40 56-40z" stroke="#3a414a" fill="#e3fae3"/><use xlink:href="#L" transform="matrix(1,0,0,1,333.66238283513803,-375) translate(-4.87654320987653 39.44444444444444)"/><path d="M188.82-339.5H80.5v-1h108.32zm15.76-11.17h-1v-48.66h1zm107.2-128.83H210.15l-2.84.77-1.95 1.96-.77 2.84v53.26h-1v-53.4l.87-3.22 2.34-2.33 3.2-.87H311.8z" stroke="#3a414a" stroke-width=".05" fill="#3a414a"/><path d="M80.5-339.5h-.42l-.17-1h.6z" fill="#3a414a"/><path d="M80.54-339.48h-.48l-.18-1.04h.66zm-.6-1l.16.96h.4v-.96z" stroke="#3a414a" stroke-width=".05" fill="#3a414a"/><path d="M326.54-480l-14.26 4.64v-9.28z" fill="#3a414a"/><path d="M328.16-480l-16.38 5.32v-10.64zm-15.38 3.95l12.15-3.95-12.15-3.95z" stroke="#3a414a" stroke-width=".05" fill="#3a414a"/><use xlink:href="#M" transform="matrix(1,0,0,1,186.82184476216722,-420.6666666666667) translate(0 14.222222222222223)"/><path d="M188.82-339.5H80.5v-1h108.32zm122.96 0h-92.44v-1h92.44z" stroke="#3a414a" stroke-width=".05" fill="#3a414a"/><path d="M80.5-339.5h-.42l-.17-1h.6z" fill="#3a414a"/><path d="M80.54-339.48h-.48l-.18-1.04h.66zm-.6-1l.16.96h.4v-.96z" stroke="#3a414a" stroke-width=".05" fill="#3a414a"/><path d="M326.54-340l-14.26 4.64v-9.28z" fill="#3a414a"/><path d="M328.16-340l-16.38 5.32v-10.64zm-15.38 3.95l12.15-3.95-12.15-3.95z" stroke="#3a414a" stroke-width=".05" fill="#3a414a"/><use xlink:href="#N" transform="matrix(1,0,0,1,188.82184476216722,-350.6666666666667) translate(0 14.222222222222223)"/><path d="M204.58-206.07l.77 2.84 1.96 1.96 2.85.77h101.63v1H210l-3.2-.87-2.35-2.34-.87-3.23v-53.4h1zm0-74.6h-1v-48.66h1zM80.5-339.5v-1h108.32v1z" stroke="#3a414a" stroke-width=".05" fill="#3a414a"/><path d="M80.5-339.5h-.42l-.17-1h.6z" fill="#3a414a"/><path d="M80.54-339.48h-.48l-.18-1.04h.66zm-.6-1l.16.96h.4v-.96z" stroke="#3a414a" stroke-width=".05" fill="#3a414a"/><path d="M326.54-200l-14.26 4.64v-9.28z" fill="#3a414a"/><path d="M328.16-200l-16.38 5.32v-10.64zm-15.38 3.95l12.15-3.95-12.15-3.95z" stroke="#3a414a" stroke-width=".05" fill="#3a414a"/><use xlink:href="#O" transform="matrix(1,0,0,1,188.82184476216722,-280.6666666666667) translate(0 14.222222222222223)"/><path d="M-944.8-1136.1c2.65-2 6.95-2 9.6 0l70.4 52.8c2.65 1.98 2.65 5.2 0 7.2l-70.4 52.8c-2.65 1.98-6.95 1.98-9.6 0l-70.4-52.8c-2.65-2-2.65-5.22 0-7.2z" stroke="#3a414a" fill="#edf5ff"/><use xlink:href="#j" transform="matrix(1,0,0,1,-1015,-1134.7088248983302) translate(48.48765432098766 46.111111111111114)"/><use xlink:href="#m" transform="matrix(1,0,0,1,-1015,-1134.7088248983302) translate(71.94444444444444 46.111111111111114)"/><use xlink:href="#p" transform="matrix(1,0,0,1,-1015,-1134.7088248983302) translate(22.00617283950617 72.77777777777777)"/><path d="M-1079-305.87l-.92 3.42-2.53 2.53-3.42.92h-62.9v-2h62.64l2.64-.7 1.8-1.8.7-2.63V-675.5h2zm42.9-772.84h-37.77l-2.64.7-1.8 1.78-.7 2.64v376.74h-2v-377l.92-3.42 2.53-2.53 3.42-.9h38.03z" stroke="#5e5e5e" stroke-width=".05" fill="#5e5e5e"/><path d="M-1148.73-299h-1.16l.22-.5-.25-1.5h1.2z" fill="#5e5e5e"/><path d="M-1148.7-298.98h-1.22l.22-.53-.26-1.52h1.25zm-1.2-2l.25 1.47-.2.48h1.1v-1.96z" stroke="#5e5e5e" stroke-width=".05" fill="#5e5e5e"/><path d="M-1020.83-1079.7l-14.27 4.63v-9.27z" fill="#5e5e5e"/><path d="M-1017.6-1079.7l-18.5 6v-12.02zm-16.5 3.25l10.03-3.26-10.03-3.27z" stroke="#5e5e5e" stroke-width=".05" fill="#5e5e5e"/><use xlink:href="#l" transform="matrix(1,0,0,1,-1095.3086419753085,-696.8428507104501) translate(0.005000000000000782 14.222222222222223)"/><path d="M-641.4-1136.1c2.65-2 6.95-2 9.6 0l70.4 52.8c2.65 1.98 2.65 5.2 0 7.2l-70.4 52.8c-2.65 1.98-6.95 1.98-9.6 0l-70.4-52.8c-2.65-2-2.65-5.22 0-7.2z" stroke="#3a414a" fill="#edf5ff"/><use xlink:href="#P" transform="matrix(1,0,0,1,-711.5961374328599,-1134.7088248983302) translate(0.3703703703703667 46.111111111111114)"/><use xlink:href="#Q" transform="matrix(1,0,0,1,-711.5961374328599,-1134.7088248983302) translate(52.098765432098766 46.111111111111114)"/><use xlink:href="#R" transform="matrix(1,0,0,1,-711.5961374328599,-1134.7088248983302) translate(97.77777777777779 46.111111111111114)"/><use xlink:href="#r" transform="matrix(1,0,0,1,-711.5961374328599,-1134.7088248983302) translate(123.70370370370371 46.111111111111114)"/><use xlink:href="#S" transform="matrix(1,0,0,1,-711.5961374328599,-1134.7088248983302) translate(22.561728395061728 72.77777777777777)"/><path d="M-800.1-1078.7h-61.3v-2h61.3zm67.4 0h-43.8v-2h43.8z" stroke="#5e5e5e" stroke-width=".05" fill="#5e5e5e"/><path d="M-861.38-1078.7h-1.15l.2-.52-.25-1.5h1.2z" fill="#5e5e5e"/><path d="M-861.35-1078.68h-1.22l.23-.54-.26-1.5h1.25zm-1.2-2l.26 1.47-.2.47h1.1v-1.95z" stroke="#5e5e5e" stroke-width=".05" fill="#5e5e5e"/><path d="M-717.43-1079.7l-14.26 4.63v-9.27z" fill="#5e5e5e"/><path d="M-714.2-1079.7l-18.5 6v-12.02zm-16.5 3.25l10.04-3.26-10.03-3.27z" stroke="#5e5e5e" stroke-width=".05" fill="#5e5e5e"/><use xlink:href="#o" transform="matrix(1,0,0,1,-800.1005378522324,-1090.375491564997) translate(0.005000000000000782 14.222222222222223)"/><path d="M1-1376.1c2.66-2 6.96-2 9.6 0l70.4 52.8c2.66 1.98 2.66 5.2 0 7.2l-70.4 52.8c-2.64 1.98-6.94 1.98-9.6 0l-70.4-52.8c-2.64-2-2.64-5.22 0-7.2z" stroke="#3a414a" fill="#edf5ff"/><use xlink:href="#t" transform="matrix(1,0,0,1,-69.19262445028971,-1374.7088248983302) translate(14.567901234567898 32.77777777777778)"/><use xlink:href="#u" transform="matrix(1,0,0,1,-69.19262445028971,-1374.7088248983302) translate(68.82716049382717 32.77777777777778)"/><use xlink:href="#v" transform="matrix(1,0,0,1,-69.19262445028971,-1374.7088248983302) translate(115.67901234567901 32.77777777777778)"/><use xlink:href="#r" transform="matrix(1,0,0,1,-69.19262445028971,-1374.7088248983302) translate(62.03703703703704 59.44444444444445)"/><use xlink:href="#T" transform="matrix(1,0,0,1,-69.19262445028971,-1374.7088248983302) translate(7.024691358024697 86.11111111111111)"/><path d="M-319-1085.58l-.92 3.42-2.53 2.53-3.42.92H-558v-2h231.87l2.64-.72 1.8-1.78.7-2.64v-107.8h2zm228.7-233.13h-223.57l-2.64.7-1.8 1.78-.7 2.64v98.6h-2v-98.86l.92-3.42 2.53-2.53 3.42-.9H-90.3z" stroke="#5e5e5e" stroke-width=".05" fill="#5e5e5e"/><path d="M-557.97-1078.7h-1.16l.2-.52-.24-1.5h1.2z" fill="#5e5e5e"/><path d="M-557.95-1078.68h-1.2l.2-.54-.25-1.5h1.25zm-1.2-2l.26 1.47-.2.47h1.1v-1.95z" stroke="#5e5e5e" stroke-width=".05" fill="#5e5e5e"/><path d="M-75.03-1319.7l-14.26 4.63v-9.27z" fill="#5e5e5e"/><path d="M-71.8-1319.7l-18.5 6v-12.02zm-16.5 3.25l10.04-3.26-10.03-3.27z" stroke="#5e5e5e" stroke-width=".05" fill="#5e5e5e"/><use xlink:href="#l" transform="matrix(1,0,0,1,-335.30864197530866,-1214.9811106234222) translate(0.005000000000000782 14.222222222222223)"/><path d="M544.8-1480c30.93 0 56 17.9 56 40s-25.07 40-56 40h-168c-30.92 0-56-17.9-56-40s25.08-40 56-40z" stroke="#3a414a" fill="#e3fae3"/><use xlink:href="#U" transform="matrix(1,0,0,1,325.80575123208985,-1475) translate(68.45679012345678 39.65277777777778)"/><path d="M192.78-1319.2H83.9v-1h108.88zm116.6 0h-93v-1h93z" stroke="#3a414a" stroke-width=".05" fill="#3a414a"/><path d="M83.92-1319.2h-.44l-.16-1h.6z" fill="#3a414a"/><path d="M83.94-1319.18h-.48l-.17-1.05h.64zm-.6-1l.17.95h.4v-.95z" stroke="#3a414a" stroke-width=".05" fill="#3a414a"/><path d="M324.14-1319.7l-14.27 4.63v-9.27z" fill="#3a414a"/><path d="M325.76-1319.7l-16.4 5.3v-10.63zm-15.4 3.94l12.16-3.95-12.15-3.96z" stroke="#3a414a" stroke-width=".05" fill="#3a414a"/><use xlink:href="#o" transform="matrix(1,0,0,1,192.77880967790898,-1330.375491564997) translate(0 14.222222222222223)"/><path d="M205.08-1185.78l.77 2.84 1.96 1.96 2.85.77h98.72v1H210.5l-3.2-.88-2.35-2.34-.87-3.22v-53.4h1zm0-74.6h-1v-48.66h1zM83.9-1319.2v-1h108.88v1z" stroke="#3a414a" stroke-width=".05" fill="#3a414a"/><path d="M83.92-1319.2h-.44l-.16-1h.6z" fill="#3a414a"/><path d="M83.94-1319.18h-.48l-.17-1.05h.64zm-.6-1l.17.95h.4v-.95z" stroke="#3a414a" stroke-width=".05" fill="#3a414a"/><path d="M324.14-1179.7l-14.27 4.63v-9.27z" fill="#3a414a"/><path d="M325.76-1179.7l-16.4 5.3v-10.63zm-15.4 3.94l12.16-3.95-12.15-3.96z" stroke="#3a414a" stroke-width=".05" fill="#3a414a"/><use xlink:href="#V" transform="matrix(1,0,0,1,191.79115535692134,-1260.375491564997) translate(0 14.222222222222223)"/><path d="M192.78-1318.7H84.4v-2h108.38zm10.07-11.68h-2v-38.8h2zM301.8-1439H208l-2.66.7-1.77 1.8-.72 2.63v43.35h-2v-43.6l.93-3.43 2.53-2.53 3.42-.92h94.08z" stroke="#5e5e5e" stroke-width=".05" fill="#5e5e5e"/><path d="M84.43-1318.7h-1.15l.2-.52-.25-1.5h1.2z" fill="#5e5e5e"/><path d="M84.45-1318.68h-1.2l.2-.54-.25-1.5h1.25zm-1.2-2l.26 1.47-.18.47h1.08v-1.95z" stroke="#5e5e5e" stroke-width=".05" fill="#5e5e5e"/><path d="M317.07-1440l-14.27 4.64v-9.28z" fill="#5e5e5e"/><path d="M320.3-1440l-18.5 6v-12zm-16.5 3.26l10.03-3.26-10.03-3.26z" stroke="#5e5e5e" stroke-width=".05" fill="#5e5e5e"/><use xlink:href="#l" transform="matrix(1,0,0,1,186.54607752816383,-1390.5210791158318) translate(0.005000000000000782 14.222222222222223)"/><path d="M550.26-1359.7c30.93 0 56 17.9 56 40 0 22.08-25.07 40-56 40h-168c-30.93 0-56-17.92-56-40 0-22.1 25.07-40 56-40z" stroke="#3a414a" fill="#fff"/><use xlink:href="#W" transform="matrix(1,0,0,1,331.25886985256784,-1354.7088248983302) translate(73.9506172839506 39.65277777777778)"/><use xlink:href="#X" transform="matrix(1,0,0,1,331.25886985256784,-1354.7088248983302) translate(114.62962962962962 39.65277777777778)"/><path d="M550.26-1219.7c30.93 0 56 17.9 56 40 0 22.08-25.07 40-56 40h-168c-30.93 0-56-17.92-56-40 0-22.1 25.07-40 56-40z" stroke="#3a414a" fill="#e3fae3"/><use xlink:href="#Y" transform="matrix(1,0,0,1,331.25886985256784,-1214.7088248983302) translate(26.54320987654323 39.65277777777778)"/><path d="M-4.8-916.4c2.65-2 6.95-2 9.6 0l70.4 52.8c2.65 2 2.65 5.2 0 7.2L4.8-803.6c-2.65 2-6.95 2-9.6 0l-70.4-52.8c-2.65-2-2.65-5.2 0-7.2z" stroke="#3a414a" fill="#edf5ff"/><use xlink:href="#t" transform="matrix(1,0,0,1,-75,-915) translate(14.567901234567898 32.77777777777778)"/><use xlink:href="#u" transform="matrix(1,0,0,1,-75,-915) translate(68.82716049382717 32.77777777777778)"/><use xlink:href="#v" transform="matrix(1,0,0,1,-75,-915) translate(115.67901234567901 32.77777777777778)"/><use xlink:href="#r" transform="matrix(1,0,0,1,-75,-915) translate(62.03703703703704 59.44444444444445)"/><use xlink:href="#Z" transform="matrix(1,0,0,1,-75,-915) translate(8.53086419753086 86.11111111111111)"/><path d="M-319-866.13l.7 2.64 1.8 1.8 2.63.7H-96.1v2h-218.03l-3.42-.92-2.53-2.53-.92-3.42v-91.62h2zm-3.45-213.66l2.53 2.54.92 3.42v95.02h-2v-94.76l-.7-2.64-1.8-1.77-2.63-.7H-558v-2h232.13z" stroke="#5e5e5e" stroke-width=".05" fill="#5e5e5e"/><path d="M-557.97-1078.7h-1.16l.2-.52-.24-1.5h1.2z" fill="#5e5e5e"/><path d="M-557.95-1078.68h-1.2l.2-.54-.25-1.5h1.25zm-1.2-2l.26 1.47-.2.47h1.1v-1.95z" stroke="#5e5e5e" stroke-width=".05" fill="#5e5e5e"/><path d="M-80.83-860l-14.27 4.64v-9.28z" fill="#5e5e5e"/><path d="M-77.6-860l-18.5 6v-12zm-16.5 3.26l10.03-3.26-10.03-3.26z" stroke="#5e5e5e" stroke-width=".05" fill="#5e5e5e"/><use xlink:href="#o" transform="matrix(1,0,0,1,-331.8024691358025,-978.8191478322617) translate(0.005000000000000782 14.222222222222223)"/><path d="M185.95-859.5H78.1v-1h107.85zm115.57 0h-91.97v-1h91.97z" stroke="#3a414a" stroke-width=".05" fill="#3a414a"/><path d="M78.1-859.5h-.42l-.17-1h.6z" fill="#3a414a"/><path d="M78.13-859.48h-.47l-.18-1.04h.65zm-.6-1l.17.96h.38v-.96z" stroke="#3a414a" stroke-width=".05" fill="#3a414a"/><path d="M316.28-860l-14.26 4.64v-9.28z" fill="#3a414a"/><path d="M317.9-860l-16.38 5.32v-10.64zm-15.38 3.95l12.15-3.95-12.15-3.95z" stroke="#3a414a" stroke-width=".05" fill="#3a414a"/><use xlink:href="#o" transform="matrix(1,0,0,1,185.94680610152972,-870.6666666666666) translate(0 14.222222222222223)"/><path d="M199.45-728.98l.77 2.83 1.96 1.97 2.84.76h98.9v1h-99.04l-3.22-.87-2.34-2.33-.87-3.22v-51.94h1zm0-73.14h-1v-47.2h1zM78.1-859.5v-1h107.85v1z" stroke="#3a414a" stroke-width=".05" fill="#3a414a"/><path d="M78.1-859.5h-.42l-.17-1h.6z" fill="#3a414a"/><path d="M78.13-859.48h-.47l-.18-1.04h.65zm-.6-1l.17.96h.38v-.96z" stroke="#3a414a" stroke-width=".05" fill="#3a414a"/><path d="M318.7-722.92l-14.28 4.64v-9.27z" fill="#3a414a"/><path d="M320.3-722.92l-16.38 5.33v-10.64zm-15.38 3.95l12.15-3.95-12.15-3.94z" stroke="#3a414a" stroke-width=".05" fill="#3a414a"/><g><use xlink:href="#V" transform="matrix(1,0,0,1,186.16090827182717,-802.1246719160106) translate(0 14.222222222222223)"/></g><path d="M185.95-859H78.6v-2h107.35zm12.8-11.67h-2v-38.66h2zM299.4-979h-95.52l-2.64.7-1.78 1.8-.7 2.63v43.2h-2v-43.46l.9-3.42 2.54-2.53 3.42-.92h95.78z" stroke="#5e5e5e" stroke-width=".05" fill="#5e5e5e"/><path d="M78.62-859h-1.15l.2-.5-.25-1.5h1.2z" fill="#5e5e5e"/><path d="M78.65-858.98h-1.22l.23-.53-.26-1.52h1.25zm-1.2-2l.26 1.47-.2.48h1.1V-861z" stroke="#5e5e5e" stroke-width=".05" fill="#5e5e5e"/><path d="M314.67-980l-14.27 4.64v-9.28z" fill="#5e5e5e"/><path d="M317.9-980l-18.5 6v-12zm-16.5 3.26l10.03-3.26-10.03-3.26z" stroke="#5e5e5e" stroke-width=".05" fill="#5e5e5e"/><g><use xlink:href="#l" transform="matrix(1,0,0,1,182.44063326202357,-930.6666666666666) translate(0.005000000000000782 14.222222222222223)"/></g><path d="M542.4-1020c30.93 0 56 17.9 56 40s-25.07 40-56 40h-168c-30.93 0-56-17.9-56-40s25.07-40 56-40z" stroke="#3a414a" fill="#fff"/><g><use xlink:href="#W" transform="matrix(1,0,0,1,323.4022382495196,-1015) translate(73.9506172839506 39.65277777777778)"/><use xlink:href="#X" transform="matrix(1,0,0,1,323.4022382495196,-1015) translate(114.62962962962962 39.65277777777778)"/></g><path d="M542.4-900c30.93 0 56 17.9 56 40s-25.07 40-56 40h-168c-30.93 0-56-17.9-56-40s25.07-40 56-40z" stroke="#3a414a" fill="#fff0f0"/><g><use xlink:href="#aa" transform="matrix(1,0,0,1,323.4022382495196,-895) translate(60.4320987654321 39.65277777777778)"/></g><path d="M544.8-762.92c30.93 0 56 17.9 56 40s-25.07 40-56 40h-168c-30.92 0-56-17.9-56-40s25.08-40 56-40z" stroke="#3a414a" fill="#fff0f0"/><g><use xlink:href="#ab" transform="matrix(1,0,0,1,325.8057512320898,-757.9160104986879) translate(18.518518518518547 39.65277777777778)"/></g><path d="M542.4 1220c30.93 0 56 17.9 56 40s-25.07 40-56 40h-168c-30.93 0-56-17.9-56-40s25.07-40 56-40z" stroke="#3a414a" fill="#fff0f0"/><g><use xlink:href="#ac" transform="matrix(1,0,0,1,323.40223824951954,1225.0000000000002) translate(14.814814814814838 39.65277777777778)"/></g><path d="M542.4 1057.17c30.93 0 56 17.9 56 40s-25.07 40-56 40h-168c-30.93 0-56-17.9-56-40s25.07-40 56-40z" stroke="#3a414a" fill="#fff"/><g><use xlink:href="#ad" transform="matrix(1,0,0,1,323.40223824951954,1062.1653543307095) translate(-1.1728395061728065 39.44444444444444)"/></g><path d="M542.4 900c30.93 0 56 17.9 56 40s-25.07 40-56 40h-168c-30.93 0-56-17.9-56-40s25.07-40 56-40z" stroke="#3a414a" fill="#e3fae3"/><g><use xlink:href="#ae" transform="matrix(1,0,0,1,323.40223824951954,905.0000000000002) translate(38.24074074074076 39.65277777777778)"/></g><path d="M-132.7 1100.37l2.33 2.34.87 3.23v148l.77 2.84 1.96 1.96 2.84.77h89.7v1h-89.84l-3.22-.87-2.33-2.34-.87-3.23v-148l-.77-2.84-1.96-1.96-2.84-.77h-733.2v-1h733.34zM301.5 1259.5v1H112.1v-1z" stroke="#3a414a" stroke-width=".05" fill="#3a414a"/><path d="M-869.25 1100.5h-.43l-.17-1h.6z" fill="#3a414a"/><path d="M-869.22 1100.53h-.48l-.18-1.06h.66zm-.6-1l.16.94h.4v-.94z" stroke="#3a414a" stroke-width=".05" fill="#3a414a"/><path d="M316.28 1260l-14.26 4.64v-9.28z" fill="#3a414a"/><path d="M317.9 1260l-16.38 5.32v-10.64zm-15.38 3.95l12.15-3.95-12.15-3.95z" stroke="#3a414a" stroke-width=".05" fill="#3a414a"/><g><use xlink:href="#z" transform="matrix(1,0,0,1,-34.23380637494277,1249.3333333333335) translate(0 14.222222222222223)"/></g><path d="M-87.8 1099.65h-781.6v-1h781.6zm389.4 0h-56.86v-1h56.86z" stroke="#3a414a" stroke-width=".05" fill="#3a414a"/><path d="M-869.4 1099.65h-.42l-.17-1h.6z" fill="#3a414a"/><path d="M-869.37 1099.68h-.47l-.18-1.05h.65zm-.6-1l.17.95h.38v-.95z" stroke="#3a414a" stroke-width=".05" fill="#3a414a"/><path d="M316.37 1099.15l-14.27 4.64v-9.28z" fill="#3a414a"/><path d="M317.98 1099.15l-16.38 5.32v-10.64zm-15.38 3.95l12.15-3.95-12.15-3.95z" stroke="#3a414a" stroke-width=".05" fill="#3a414a"/><g><use xlink:href="#A" transform="matrix(1,0,0,1,-87.80441333722149,1088.4841895649843) translate(0 14.222222222222223)"/><use xlink:href="#B" transform="matrix(1,0,0,1,-87.80441333722149,1088.4841895649843) translate(15.308641975308644 14.222222222222223)"/><use xlink:href="#C" transform="matrix(1,0,0,1,-87.80441333722149,1088.4841895649843) translate(153.1851851851852 14.222222222222223)"/><use xlink:href="#D" transform="matrix(1,0,0,1,-87.80441333722149,1088.4841895649843) translate(170.9135802469136 14.222222222222223)"/><use xlink:href="#E" transform="matrix(1,0,0,1,-87.80441333722149,1088.4841895649843) translate(196.5925925925926 14.222222222222223)"/></g><path d="M-56.22 940.5h-67.7l-2.85.77-1.96 1.96-.77 2.84v148l-.87 3.22-2.34 2.33-3.23.87h-733.33v-1h733.2l2.83-.77 1.96-1.96.77-2.84v-148l.87-3.22 2.34-2.33 3.23-.87h67.85zm357.74 0H102.4v-1h199.12z" stroke="#3a414a" stroke-width=".05" fill="#3a414a"/><path d="M-869.25 1100.5h-.43l-.17-1h.6z" fill="#3a414a"/><path d="M-869.22 1100.53h-.48l-.18-1.06h.66zm-.6-1l.16.94h.4v-.94z" stroke="#3a414a" stroke-width=".05" fill="#3a414a"/><path d="M316.28 940l-14.26 4.64v-9.28z" fill="#3a414a"/><path d="M317.9 940l-16.38 5.32v-10.64zm-15.38 3.95l12.15-3.95-12.15-3.95z" stroke="#3a414a" stroke-width=".05" fill="#3a414a"/><g><use xlink:href="#F" transform="matrix(1,0,0,1,-56.21762921473929,929.3333333333336) translate(0 14.222222222222223)"/><use xlink:href="#G" transform="matrix(1,0,0,1,-56.21762921473929,929.3333333333336) translate(25.679012345679016 14.222222222222223)"/></g><defs><path fill="#3a414a" d="M33 0v-248h34V0H33" id="af"/><path fill="#3a414a" d="M135-143c-3-34-86-38-87 0 15 53 115 12 119 90S17 21 10-45l28-5c4 36 97 45 98 0-10-56-113-15-118-90-4-57 82-63 122-42 12 7 21 19 24 35" id="ag"/><g id="a"><use transform="matrix(0.06172839506172839,0,0,0.06172839506172839,0,0)" xlink:href="#af"/><use transform="matrix(0.06172839506172839,0,0,0.06172839506172839,6.172839506172839,0)" xlink:href="#ag"/></g><path fill="#3a414a" d="M190 0L58-211 59 0H30v-248h39L202-35l-2-213h31V0h-41" id="ah"/><path fill="#3a414a" d="M205 0l-28-72H64L36 0H1l101-248h38L239 0h-34zm-38-99l-47-123c-12 45-31 82-46 123h93" id="ai"/><g id="b"><use transform="matrix(0.06172839506172839,0,0,0.06172839506172839,0,0)" xlink:href="#ah"/><use transform="matrix(0.06172839506172839,0,0,0.06172839506172839,15.987654320987653,0)" xlink:href="#ai"/></g><path fill="#3a414a" d="M240 0l2-218c-23 76-54 145-80 218h-23L58-218 59 0H30v-248h44l77 211c21-75 51-140 76-211h43V0h-30" id="aj"/><path fill="#3a414a" d="M63-220v92h138v28H63V0H30v-248h175v28H63" id="ak"/><path fill="#3a414a" d="M212-179c-10-28-35-45-73-45-59 0-87 40-87 99 0 60 29 101 89 101 43 0 62-24 78-52l27 14C228-24 195 4 139 4 59 4 22-46 18-125c-6-104 99-153 187-111 19 9 31 26 39 46" id="al"/><path fill="#3a414a" d="M103-251c84 0 111 97 45 133-19 10-37 24-39 52H78c0-63 77-55 77-114 0-30-21-42-52-43-32 0-53 17-56 46l-32-2c7-45 34-72 88-72zM77 0v-35h34V0H77" id="am"/><g id="c"><use transform="matrix(0.06172839506172839,0,0,0.06172839506172839,0,0)" xlink:href="#aj"/><use transform="matrix(0.06172839506172839,0,0,0.06172839506172839,18.456790123456788,0)" xlink:href="#ai"/><use transform="matrix(0.06172839506172839,0,0,0.06172839506172839,33.2716049382716,0)" xlink:href="#ak"/><use transform="matrix(0.06172839506172839,0,0,0.06172839506172839,46.79012345679012,0)" xlink:href="#al"/><use transform="matrix(0.06172839506172839,0,0,0.06172839506172839,62.77777777777777,0)" xlink:href="#am"/></g><path fill="#3a414a" d="M100-194c63 0 86 42 84 106H49c0 40 14 67 53 68 26 1 43-12 49-29l28 8c-11 28-37 45-77 45C44 4 14-33 15-96c1-61 26-98 85-98zm52 81c6-60-76-77-97-28-3 7-6 17-6 28h103" id="an"/><path fill="#3a414a" d="M141-36C126-15 110 5 73 4 37 3 15-17 15-53c-1-64 63-63 125-63 3-35-9-54-41-54-24 1-41 7-42 31l-33-3c5-37 33-52 76-52 45 0 72 20 72 64v82c-1 20 7 32 28 27v20c-31 9-61-2-59-35zM48-53c0 20 12 33 32 33 41-3 63-29 60-74-43 2-92-5-92 41" id="ao"/><path fill="#3a414a" d="M117-194c89-4 53 116 60 194h-32v-121c0-31-8-49-39-48C34-167 62-67 57 0H25l-1-190h30c1 10-1 24 2 32 11-22 29-35 61-36" id="ap"/><g id="d"><use transform="matrix(0.06172839506172839,0,0,0.06172839506172839,0,0)" xlink:href="#aj"/><use transform="matrix(0.06172839506172839,0,0,0.06172839506172839,18.456790123456788,0)" xlink:href="#an"/><use transform="matrix(0.06172839506172839,0,0,0.06172839506172839,30.80246913580247,0)" xlink:href="#ao"/><use transform="matrix(0.06172839506172839,0,0,0.06172839506172839,43.148148148148145,0)" xlink:href="#ap"/></g><path fill="#3a414a" d="M233-177c-1 41-23 64-60 70L243 0h-38l-65-103H63V0H30v-248c88 3 205-21 203 71zM63-129c60-2 137 13 137-47 0-61-80-42-137-45v92" id="aq"/><path fill="#3a414a" d="M85-194c31 0 48 13 60 33l-1-100h32l1 261h-30c-2-10 0-23-3-31C134-8 116 4 85 4 32 4 16-35 15-94c0-66 23-100 70-100zm9 24c-40 0-46 34-46 75 0 40 6 74 45 74 42 0 51-32 51-76 0-42-9-74-50-73" id="ar"/><g id="e"><use transform="matrix(0.06172839506172839,0,0,0.06172839506172839,0,0)" xlink:href="#aq"/><use transform="matrix(0.06172839506172839,0,0,0.06172839506172839,15.987654320987653,0)" xlink:href="#an"/><use transform="matrix(0.06172839506172839,0,0,0.06172839506172839,28.333333333333332,0)" xlink:href="#ar"/></g><path fill="#3a414a" d="M30-248c87 1 191-15 191 75 0 78-77 80-158 76V0H30v-248zm33 125c57 0 124 11 124-50 0-59-68-47-124-48v98" id="as"/><path fill="#3a414a" d="M96-169c-40 0-48 33-48 73s9 75 48 75c24 0 41-14 43-38l32 2c-6 37-31 61-74 61-59 0-76-41-82-99-10-93 101-131 147-64 4 7 5 14 7 22l-32 3c-4-21-16-35-41-35" id="at"/><path fill="#3a414a" d="M59-47c-2 24 18 29 38 22v24C64 9 27 4 27-40v-127H5v-23h24l9-43h21v43h35v23H59v120" id="au"/><path fill="#3a414a" d="M33 0v-38h34V0H33" id="av"/><g id="f"><use transform="matrix(0.06172839506172839,0,0,0.06172839506172839,0,0)" xlink:href="#as"/><use transform="matrix(0.06172839506172839,0,0,0.06172839506172839,14.814814814814813,0)" xlink:href="#at"/><use transform="matrix(0.06172839506172839,0,0,0.06172839506172839,25.925925925925924,0)" xlink:href="#ap"/><use transform="matrix(0.06172839506172839,0,0,0.06172839506172839,38.2716049382716,0)" xlink:href="#au"/><use transform="matrix(0.06172839506172839,0,0,0.06172839506172839,44.44444444444444,0)" xlink:href="#av"/></g><path fill="#333" d="M15-22v-40l146-57-146-57v-40l181 69v56" id="aw"/><path fill="#333" d="M15-148v-39h180v39H15zm0 97v-39h180v39H15" id="ax"/><g id="g"><use transform="matrix(0.04938271604938272,0,0,0.04938271604938272,0,0)" xlink:href="#aw"/><use transform="matrix(0.04938271604938272,0,0,0.04938271604938272,10.370370370370372,0)" xlink:href="#ax"/></g><path fill="#cc4e00" d="M115-3C79 11 28 4 28-45v-112H4v-33h27l15-45h31v45h36v33H77v99c-1 23 16 31 38 25v30" id="ay"/><path fill="#cc4e00" d="M114-157C55-157 80-60 75 0H25v-261h50l-1 109c12-26 28-41 61-42 86-1 58 113 63 194h-50c-7-57 23-157-34-157" id="az"/><path fill="#cc4e00" d="M-4 44V30h207v14H-4" id="aA"/><path fill="#cc4e00" d="M135-150c-39-12-60 13-60 57V0H25l-1-190h47c2 13-1 29 3 40 6-28 27-53 61-41v41" id="aB"/><path fill="#cc4e00" d="M185-48c-13 30-37 53-82 52C43 2 14-33 14-96s30-98 90-98c62 0 83 45 84 108H66c0 31 8 55 39 56 18 0 30-7 34-22zm-45-69c5-46-57-63-70-21-2 6-4 13-4 21h74" id="aC"/><path fill="#cc4e00" d="M88-194c31-1 46 15 58 34l-1-101h50l1 261h-48c-2-10 0-23-3-31C134-8 116 4 84 4 32 4 16-41 15-95c0-56 19-97 73-99zm17 164c33 0 40-30 41-66 1-37-9-64-41-64s-38 30-39 65c0 43 13 65 39 65" id="aD"/><path fill="#cc4e00" d="M135-194c53 0 70 44 70 98 0 56-19 98-73 100-31 1-45-17-59-34 3 33 2 69 2 105H25l-1-265h48c2 10 0 23 3 31 11-24 29-35 60-35zM114-30c33 0 39-31 40-66 0-38-9-64-40-64-56 0-55 130 0 130" id="aE"/><path fill="#cc4e00" d="M190-63c-7 42-38 67-86 67-59 0-84-38-90-98-12-110 154-137 174-36l-49 2c-2-19-15-32-35-32-30 0-35 28-38 64-6 74 65 87 74 30" id="aF"/><path fill="#cc4e00" d="M135-194c87-1 58 113 63 194h-50c-7-57 23-157-34-157-59 0-34 97-39 157H25l-1-190h47c2 12-1 28 3 38 12-26 28-41 61-42" id="aG"/><path fill="#cc4e00" d="M85 4C-2 5 27-109 22-190h50c7 57-23 150 33 157 60-5 35-97 40-157h50l1 190h-47c-2-12 1-28-3-38-12 25-28 42-61 42" id="aH"/><g id="h"><use transform="matrix(0.04938271604938272,0,0,0.04938271604938272,0,0)" xlink:href="#ay"/><use transform="matrix(0.04938271604938272,0,0,0.04938271604938272,5.8765432098765435,0)" xlink:href="#az"/><use transform="matrix(0.04938271604938272,0,0,0.04938271604938272,16.691358024691358,0)" xlink:href="#aA"/><use transform="matrix(0.04938271604938272,0,0,0.04938271604938272,26.567901234567902,0)" xlink:href="#aB"/><use transform="matrix(0.04938271604938272,0,0,0.04938271604938272,33.48148148148148,0)" xlink:href="#aC"/><use transform="matrix(0.04938271604938272,0,0,0.04938271604938272,43.358024691358025,0)" xlink:href="#aD"/><use transform="matrix(0.04938271604938272,0,0,0.04938271604938272,54.17283950617284,0)" xlink:href="#aA"/><use transform="matrix(0.04938271604938272,0,0,0.04938271604938272,64.0493827160494,0)" xlink:href="#aE"/><use transform="matrix(0.04938271604938272,0,0,0.04938271604938272,74.8641975308642,0)" xlink:href="#aF"/><use transform="matrix(0.04938271604938272,0,0,0.04938271604938272,84.74074074074075,0)" xlink:href="#aG"/><use transform="matrix(0.04938271604938272,0,0,0.04938271604938272,95.55555555555556,0)" xlink:href="#ay"/><use transform="matrix(0.04938271604938272,0,0,0.04938271604938272,101.4320987654321,0)" xlink:href="#aA"/><use transform="matrix(0.04938271604938272,0,0,0.04938271604938272,111.30864197530865,0)" xlink:href="#aH"/><use transform="matrix(0.04938271604938272,0,0,0.04938271604938272,122.12345679012344,0)" xlink:href="#aE"/></g><path fill="#333" d="M146-102V0H94v-102L6-248h54l60 105 60-105h54" id="aI"/><path fill="#333" d="M185-48c-13 30-37 53-82 52C43 2 14-33 14-96s30-98 90-98c62 0 83 45 84 108H66c0 31 8 55 39 56 18 0 30-7 34-22zm-45-69c5-46-57-63-70-21-2 6-4 13-4 21h74" id="aJ"/><path fill="#333" d="M137-138c1-29-70-34-71-4 15 46 118 7 119 86 1 83-164 76-172 9l43-7c4 19 20 25 44 25 33 8 57-30 24-41C81-84 22-81 20-136c-2-80 154-74 161-7" id="aK"/><g id="i"><use transform="matrix(0.04938271604938272,0,0,0.04938271604938272,0,0)" xlink:href="#aI"/><use transform="matrix(0.04938271604938272,0,0,0.04938271604938272,10.864197530864198,0)" xlink:href="#aJ"/><use transform="matrix(0.04938271604938272,0,0,0.04938271604938272,20.74074074074074,0)" xlink:href="#aK"/></g><g id="j"><use transform="matrix(0.06172839506172839,0,0,0.06172839506172839,0,0)" xlink:href="#af"/><use transform="matrix(0.06172839506172839,0,0,0.06172839506172839,6.172839506172839,0)" xlink:href="#ag"/></g><path fill="#3a414a" d="M137 0h-34L2-248h35l83 218 83-218h36" id="aL"/><path fill="#3a414a" d="M143 4C61 4 22-44 18-125c-5-107 100-154 193-111 17 8 29 25 37 43l-32 9c-13-25-37-40-76-40-61 0-88 39-88 99 0 61 29 100 91 101 35 0 62-11 79-27v-45h-74v-28h105v86C228-13 192 4 143 4" id="aM"/><g id="k"><use transform="matrix(0.06172839506172839,0,0,0.06172839506172839,0,0)" xlink:href="#al"/><use transform="matrix(0.06172839506172839,0,0,0.06172839506172839,15.987654320987653,0)" xlink:href="#aL"/><use transform="matrix(0.06172839506172839,0,0,0.06172839506172839,30.80246913580247,0)" xlink:href="#aM"/><use transform="matrix(0.06172839506172839,0,0,0.06172839506172839,48.08641975308642,0)" xlink:href="#am"/></g><g id="l"><use transform="matrix(0.04938271604938272,0,0,0.04938271604938272,0,0)" xlink:href="#aI"/><use transform="matrix(0.04938271604938272,0,0,0.04938271604938272,10.864197530864198,0)" xlink:href="#aJ"/><use transform="matrix(0.04938271604938272,0,0,0.04938271604938272,20.74074074074074,0)" xlink:href="#aK"/></g><g id="m"><use transform="matrix(0.06172839506172839,0,0,0.06172839506172839,0,0)" xlink:href="#ah"/><use transform="matrix(0.06172839506172839,0,0,0.06172839506172839,15.987654320987653,0)" xlink:href="#ai"/></g><g id="n"><use transform="matrix(0.06172839506172839,0,0,0.06172839506172839,0,0)" xlink:href="#aj"/><use transform="matrix(0.06172839506172839,0,0,0.06172839506172839,18.456790123456788,0)" xlink:href="#ai"/><use transform="matrix(0.06172839506172839,0,0,0.06172839506172839,33.2716049382716,0)" xlink:href="#ak"/><use transform="matrix(0.06172839506172839,0,0,0.06172839506172839,46.79012345679012,0)" xlink:href="#al"/><use transform="matrix(0.06172839506172839,0,0,0.06172839506172839,62.77777777777777,0)" xlink:href="#am"/></g><path fill="#333" d="M175 0L67-191c6 58 2 128 3 191H24v-248h59L193-55c-6-58-2-129-3-193h46V0h-61" id="aN"/><path fill="#333" d="M110-194c64 0 96 36 96 99 0 64-35 99-97 99-61 0-95-36-95-99 0-62 34-99 96-99zm-1 164c35 0 45-28 45-65 0-40-10-65-43-65-34 0-45 26-45 65 0 36 10 65 43 65" id="aO"/><g id="o"><use transform="matrix(0.04938271604938272,0,0,0.04938271604938272,0,0)" xlink:href="#aN"/><use transform="matrix(0.04938271604938272,0,0,0.04938271604938272,12.790123456790125,0)" xlink:href="#aO"/></g><path fill="#3a414a" d="M16-82v-28h88v28H16" id="aP"/><path fill="#3a414a" d="M185-189c-5-48-123-54-124 2 14 75 158 14 163 119 3 78-121 87-175 55-17-10-28-26-33-46l33-7c5 56 141 63 141-1 0-78-155-14-162-118-5-82 145-84 179-34 5 7 8 16 11 25" id="aQ"/><path fill="#3a414a" d="M145-31C134-9 116 4 85 4 32 4 16-35 15-94c0-59 17-99 70-100 32-1 48 14 60 33 0-11-1-24 2-32h30l-1 268h-32zM93-21c41 0 51-33 51-76s-8-73-50-73c-40 0-46 35-46 75s5 74 45 74" id="aR"/><g id="p"><use transform="matrix(0.06172839506172839,0,0,0.06172839506172839,0,0)" xlink:href="#aq"/><use transform="matrix(0.06172839506172839,0,0,0.06172839506172839,15.987654320987653,0)" xlink:href="#ah"/><use transform="matrix(0.06172839506172839,0,0,0.06172839506172839,31.975308641975307,0)" xlink:href="#ai"/><use transform="matrix(0.06172839506172839,0,0,0.06172839506172839,46.79012345679012,0)" xlink:href="#aP"/><use transform="matrix(0.06172839506172839,0,0,0.06172839506172839,54.1358024691358,0)" xlink:href="#aQ"/><use transform="matrix(0.06172839506172839,0,0,0.06172839506172839,68.9506172839506,0)" xlink:href="#an"/><use transform="matrix(0.06172839506172839,0,0,0.06172839506172839,81.29629629629629,0)" xlink:href="#aR"/><use transform="matrix(0.06172839506172839,0,0,0.06172839506172839,93.64197530864197,0)" xlink:href="#am"/></g><g id="q"><use transform="matrix(0.06172839506172839,0,0,0.06172839506172839,0,0)" xlink:href="#aj"/><use transform="matrix(0.06172839506172839,0,0,0.06172839506172839,18.456790123456788,0)" xlink:href="#ai"/><use transform="matrix(0.06172839506172839,0,0,0.06172839506172839,33.2716049382716,0)" xlink:href="#ak"/><use transform="matrix(0.06172839506172839,0,0,0.06172839506172839,46.79012345679012,0)" xlink:href="#al"/></g><path fill="#3a414a" d="M18-27v-27l151-64-151-65v-27l175 74v36" id="aS"/><path fill="#3a414a" d="M18-150v-26h174v26H18zm0 90v-26h174v26H18" id="aT"/><g id="r"><use transform="matrix(0.06172839506172839,0,0,0.06172839506172839,0,0)" xlink:href="#aS"/><use transform="matrix(0.06172839506172839,0,0,0.06172839506172839,12.962962962962962,0)" xlink:href="#aT"/></g><path fill="#cc4e00" d="M59-47c-2 24 18 29 38 22v24C64 9 27 4 27-40v-127H5v-23h24l9-43h21v43h35v23H59v120" id="aU"/><path fill="#cc4e00" d="M106-169C34-169 62-67 57 0H25v-261h32l-1 103c12-21 28-36 61-36 89 0 53 116 60 194h-32v-121c2-32-8-49-39-48" id="aV"/><path fill="#cc4e00" d="M-5 72V49h209v23H-5" id="aW"/><path fill="#cc4e00" d="M141-36C126-15 110 5 73 4 37 3 15-17 15-53c-1-64 63-63 125-63 3-35-9-54-41-54-24 1-41 7-42 31l-33-3c5-37 33-52 76-52 45 0 72 20 72 64v82c-1 20 7 32 28 27v20c-31 9-61-2-59-35zM48-53c0 20 12 33 32 33 41-3 63-29 60-74-43 2-92-5-92 41" id="aX"/><path fill="#cc4e00" d="M114-163C36-179 61-72 57 0H25l-1-190h30c1 12-1 29 2 39 6-27 23-49 58-41v29" id="aY"/><path fill="#cc4e00" d="M100-194c63 0 86 42 84 106H49c0 40 14 67 53 68 26 1 43-12 49-29l28 8c-11 28-37 45-77 45C44 4 14-33 15-96c1-61 26-98 85-98zm52 81c6-60-76-77-97-28-3 7-6 17-6 28h103" id="aZ"/><path fill="#cc4e00" d="M63-220v92h138v28H63V0H30v-248h175v28H63" id="ba"/><path fill="#cc4e00" d="M212-179c-10-28-35-45-73-45-59 0-87 40-87 99 0 60 29 101 89 101 43 0 62-24 78-52l27 14C228-24 195 4 139 4 59 4 22-46 18-125c-6-104 99-153 187-111 19 9 31 26 39 46" id="bb"/><g id="s"><use transform="matrix(0.06172839506172839,0,0,0.06172839506172839,0,0)" xlink:href="#aU"/><use transform="matrix(0.06172839506172839,0,0,0.06172839506172839,6.172839506172839,0)" xlink:href="#aV"/><use transform="matrix(0.06172839506172839,0,0,0.06172839506172839,18.51851851851852,0)" xlink:href="#aW"/><use transform="matrix(0.06172839506172839,0,0,0.06172839506172839,30.864197530864196,0)" xlink:href="#aX"/><use transform="matrix(0.06172839506172839,0,0,0.06172839506172839,43.20987654320987,0)" xlink:href="#aY"/><use transform="matrix(0.06172839506172839,0,0,0.06172839506172839,50.55555555555555,0)" xlink:href="#aZ"/><use transform="matrix(0.06172839506172839,0,0,0.06172839506172839,62.90123456790123,0)" xlink:href="#aX"/><use transform="matrix(0.06172839506172839,0,0,0.06172839506172839,75.24691358024691,0)" xlink:href="#ba"/><use transform="matrix(0.06172839506172839,0,0,0.06172839506172839,88.76543209876543,0)" xlink:href="#bb"/></g><path fill="#3a414a" d="M141 0L90-78 38 0H4l68-98-65-92h35l48 74 47-74h35l-64 92 68 98h-35" id="bc"/><g id="t"><use transform="matrix(0.06172839506172839,0,0,0.06172839506172839,0,0)" xlink:href="#aj"/><use transform="matrix(0.06172839506172839,0,0,0.06172839506172839,18.456790123456788,0)" xlink:href="#ao"/><use transform="matrix(0.06172839506172839,0,0,0.06172839506172839,30.80246913580247,0)" xlink:href="#bc"/><use transform="matrix(0.06172839506172839,0,0,0.06172839506172839,41.91358024691358,0)" xlink:href="#av"/></g><g id="u"><use transform="matrix(0.06172839506172839,0,0,0.06172839506172839,0,0)" xlink:href="#aq"/><use transform="matrix(0.06172839506172839,0,0,0.06172839506172839,15.987654320987653,0)" xlink:href="#an"/><use transform="matrix(0.06172839506172839,0,0,0.06172839506172839,28.333333333333332,0)" xlink:href="#ar"/></g><path fill="#3a414a" d="M252-156c43 0 55 33 55 80 0 46-13 78-56 78-42 0-55-33-55-78 0-48 12-80 56-80zM93 0H65l162-248h28zM13-171c-1-47 13-79 56-79s55 33 55 79-13 79-55 79c-43 0-56-33-56-79zM251-17c28 0 30-29 30-59 0-31-1-60-29-60-29 0-31 29-31 60 0 29 2 59 30 59zM69-112c27 0 28-30 29-59 0-31-1-60-29-60-29 0-30 30-30 60s2 59 30 59" id="bd"/><use transform="matrix(0.06172839506172839,0,0,0.06172839506172839,0,0)" xlink:href="#bd" id="v"/><path fill="#3a414a" d="M24-231v-30h32v30H24zM24 0v-190h32V0H24" id="be"/><path fill="#3a414a" d="M108 0H70L1-190h34L89-25l56-165h34" id="bf"/><path fill="#3a414a" d="M-5 72V49h209v23H-5" id="bg"/><g id="w"><use transform="matrix(0.06172839506172839,0,0,0.06172839506172839,0,0)" xlink:href="#af"/><use transform="matrix(0.06172839506172839,0,0,0.06172839506172839,6.172839506172839,0)" xlink:href="#ap"/><use transform="matrix(0.06172839506172839,0,0,0.06172839506172839,18.51851851851852,0)" xlink:href="#ao"/><use transform="matrix(0.06172839506172839,0,0,0.06172839506172839,30.864197530864196,0)" xlink:href="#at"/><use transform="matrix(0.06172839506172839,0,0,0.06172839506172839,41.9753086419753,0)" xlink:href="#au"/><use transform="matrix(0.06172839506172839,0,0,0.06172839506172839,48.148148148148145,0)" xlink:href="#be"/><use transform="matrix(0.06172839506172839,0,0,0.06172839506172839,53.02469135802469,0)" xlink:href="#bf"/><use transform="matrix(0.06172839506172839,0,0,0.06172839506172839,64.1358024691358,0)" xlink:href="#an"/><use transform="matrix(0.06172839506172839,0,0,0.06172839506172839,76.48148148148148,0)" xlink:href="#bg"/><use transform="matrix(0.06172839506172839,0,0,0.06172839506172839,88.82716049382717,0)" xlink:href="#aq"/><use transform="matrix(0.06172839506172839,0,0,0.06172839506172839,104.81481481481482,0)" xlink:href="#ah"/><use transform="matrix(0.06172839506172839,0,0,0.06172839506172839,120.80246913580248,0)" xlink:href="#ai"/><use transform="matrix(0.06172839506172839,0,0,0.06172839506172839,135.6172839506173,0)" xlink:href="#aQ"/><use transform="matrix(0.06172839506172839,0,0,0.06172839506172839,150.4320987654321,0)" xlink:href="#an"/><use transform="matrix(0.06172839506172839,0,0,0.06172839506172839,162.77777777777777,0)" xlink:href="#aR"/><use transform="matrix(0.06172839506172839,0,0,0.06172839506172839,175.12345679012344,0)" xlink:href="#ah"/><use transform="matrix(0.06172839506172839,0,0,0.06172839506172839,191.1111111111111,0)" xlink:href="#ai"/></g><path fill="#3a414a" d="M232-93c-1 65-40 97-104 97C67 4 28-28 28-90v-158h33c8 89-33 224 67 224 102 0 64-133 71-224h33v155" id="bh"/><path fill="#3a414a" d="M114-163C36-179 61-72 57 0H25l-1-190h30c1 12-1 29 2 39 6-27 23-49 58-41v29" id="bi"/><path fill="#3a414a" d="M210-169c-67 3-38 105-44 169h-31v-121c0-29-5-50-35-48C34-165 62-65 56 0H25l-1-190h30c1 10-1 24 2 32 10-44 99-50 107 0 11-21 27-35 58-36 85-2 47 119 55 194h-31v-121c0-29-5-49-35-48" id="bj"/><g id="x"><use transform="matrix(0.06172839506172839,0,0,0.06172839506172839,0,0)" xlink:href="#bh"/><use transform="matrix(0.06172839506172839,0,0,0.06172839506172839,15.987654320987653,0)" xlink:href="#ap"/><use transform="matrix(0.06172839506172839,0,0,0.06172839506172839,28.333333333333332,0)" xlink:href="#ar"/><use transform="matrix(0.06172839506172839,0,0,0.06172839506172839,40.67901234567901,0)" xlink:href="#an"/><use transform="matrix(0.06172839506172839,0,0,0.06172839506172839,53.02469135802469,0)" xlink:href="#au"/><use transform="matrix(0.06172839506172839,0,0,0.06172839506172839,59.19753086419753,0)" xlink:href="#an"/><use transform="matrix(0.06172839506172839,0,0,0.06172839506172839,71.54320987654322,0)" xlink:href="#bi"/><use transform="matrix(0.06172839506172839,0,0,0.06172839506172839,78.8888888888889,0)" xlink:href="#bj"/><use transform="matrix(0.06172839506172839,0,0,0.06172839506172839,97.34567901234568,0)" xlink:href="#be"/><use transform="matrix(0.06172839506172839,0,0,0.06172839506172839,102.22222222222223,0)" xlink:href="#ap"/><use transform="matrix(0.06172839506172839,0,0,0.06172839506172839,114.56790123456791,0)" xlink:href="#an"/><use transform="matrix(0.06172839506172839,0,0,0.06172839506172839,126.9135802469136,0)" xlink:href="#ar"/></g><g id="y"><use transform="matrix(0.06172839506172839,0,0,0.06172839506172839,0,0)" xlink:href="#ai"/><use transform="matrix(0.06172839506172839,0,0,0.06172839506172839,14.814814814814813,0)" xlink:href="#at"/><use transform="matrix(0.06172839506172839,0,0,0.06172839506172839,25.925925925925924,0)" xlink:href="#au"/><use transform="matrix(0.06172839506172839,0,0,0.06172839506172839,32.098765432098766,0)" xlink:href="#be"/><use transform="matrix(0.06172839506172839,0,0,0.06172839506172839,36.97530864197531,0)" xlink:href="#bf"/><use transform="matrix(0.06172839506172839,0,0,0.06172839506172839,48.08641975308642,0)" xlink:href="#an"/><use transform="matrix(0.06172839506172839,0,0,0.06172839506172839,60.432098765432094,0)" xlink:href="#bg"/><use transform="matrix(0.06172839506172839,0,0,0.06172839506172839,72.77777777777777,0)" xlink:href="#aq"/><use transform="matrix(0.06172839506172839,0,0,0.06172839506172839,88.76543209876543,0)" xlink:href="#ah"/><use transform="matrix(0.06172839506172839,0,0,0.06172839506172839,104.75308641975309,0)" xlink:href="#ai"/><use transform="matrix(0.06172839506172839,0,0,0.06172839506172839,119.5679012345679,0)" xlink:href="#aQ"/><use transform="matrix(0.06172839506172839,0,0,0.06172839506172839,134.3827160493827,0)" xlink:href="#an"/><use transform="matrix(0.06172839506172839,0,0,0.06172839506172839,146.72839506172838,0)" xlink:href="#aR"/><use transform="matrix(0.06172839506172839,0,0,0.06172839506172839,159.07407407407405,0)" xlink:href="#ah"/><use transform="matrix(0.06172839506172839,0,0,0.06172839506172839,175.0617283950617,0)" xlink:href="#ai"/></g><path fill="#333" d="M15-91v-56l181-69v40L49-119l147 57v40" id="bk"/><path fill="#cc4e00" d="M231 0h-52l-39-155L100 0H48L-1-190h46L77-45c9-52 24-97 36-145h53l37 145 32-145h46" id="bl"/><g id="z"><use transform="matrix(0.04938271604938272,0,0,0.04938271604938272,0,0)" xlink:href="#bk"/><use transform="matrix(0.04938271604938272,0,0,0.04938271604938272,10.370370370370372,0)" xlink:href="#ay"/><use transform="matrix(0.04938271604938272,0,0,0.04938271604938272,16.246913580246915,0)" xlink:href="#az"/><use transform="matrix(0.04938271604938272,0,0,0.04938271604938272,27.061728395061724,0)" xlink:href="#aA"/><use transform="matrix(0.04938271604938272,0,0,0.04938271604938272,36.93827160493827,0)" xlink:href="#aB"/><use transform="matrix(0.04938271604938272,0,0,0.04938271604938272,43.851851851851855,0)" xlink:href="#aC"/><use transform="matrix(0.04938271604938272,0,0,0.04938271604938272,53.7283950617284,0)" xlink:href="#aD"/><use transform="matrix(0.04938271604938272,0,0,0.04938271604938272,64.54320987654322,0)" xlink:href="#aA"/><use transform="matrix(0.04938271604938272,0,0,0.04938271604938272,74.41975308641976,0)" xlink:href="#aE"/><use transform="matrix(0.04938271604938272,0,0,0.04938271604938272,85.23456790123457,0)" xlink:href="#aF"/><use transform="matrix(0.04938271604938272,0,0,0.04938271604938272,95.11111111111111,0)" xlink:href="#aG"/><use transform="matrix(0.04938271604938272,0,0,0.04938271604938272,105.92592592592594,0)" xlink:href="#ay"/><use transform="matrix(0.04938271604938272,0,0,0.04938271604938272,111.80246913580248,0)" xlink:href="#aA"/><use transform="matrix(0.04938271604938272,0,0,0.04938271604938272,121.67901234567903,0)" xlink:href="#aD"/><use transform="matrix(0.04938271604938272,0,0,0.04938271604938272,132.49382716049382,0)" xlink:href="#bl"/></g><use transform="matrix(0.04938271604938272,0,0,0.04938271604938272,0,0)" xlink:href="#bk" id="A"/><g id="B"><use transform="matrix(0.04938271604938272,0,0,0.04938271604938272,0,0)" xlink:href="#ay"/><use transform="matrix(0.04938271604938272,0,0,0.04938271604938272,5.8765432098765435,0)" xlink:href="#az"/><use transform="matrix(0.04938271604938272,0,0,0.04938271604938272,16.691358024691358,0)" xlink:href="#aA"/><use transform="matrix(0.04938271604938272,0,0,0.04938271604938272,26.567901234567902,0)" xlink:href="#aB"/><use transform="matrix(0.04938271604938272,0,0,0.04938271604938272,33.48148148148148,0)" xlink:href="#aC"/><use transform="matrix(0.04938271604938272,0,0,0.04938271604938272,43.358024691358025,0)" xlink:href="#aD"/><use transform="matrix(0.04938271604938272,0,0,0.04938271604938272,54.17283950617284,0)" xlink:href="#aA"/><use transform="matrix(0.04938271604938272,0,0,0.04938271604938272,64.0493827160494,0)" xlink:href="#aE"/><use transform="matrix(0.04938271604938272,0,0,0.04938271604938272,74.8641975308642,0)" xlink:href="#aF"/><use transform="matrix(0.04938271604938272,0,0,0.04938271604938272,84.74074074074075,0)" xlink:href="#aG"/><use transform="matrix(0.04938271604938272,0,0,0.04938271604938272,95.55555555555556,0)" xlink:href="#ay"/><use transform="matrix(0.04938271604938272,0,0,0.04938271604938272,101.4320987654321,0)" xlink:href="#aA"/><use transform="matrix(0.04938271604938272,0,0,0.04938271604938272,111.30864197530865,0)" xlink:href="#aH"/><use transform="matrix(0.04938271604938272,0,0,0.04938271604938272,122.12345679012344,0)" xlink:href="#aE"/></g><path fill="#333" d="M168-19C124 19 11 11 16-68c3-43 29-60 59-75-25-44-12-111 53-106 37 3 64 15 64 52 0 43-40 52-69 68 12 22 27 41 43 59 14-19 21-38 28-64l37 13c-8 29-19 52-34 74 12 10 32 16 52 10v35c-28 11-65-2-81-17zm-58-139c19-9 43-14 43-39 0-14-10-22-25-22-34 0-33 41-18 61zM60-68c-3 40 55 47 79 25-18-20-34-42-48-67-18 8-30 20-31 42" id="bm"/><use transform="matrix(0.04938271604938272,0,0,0.04938271604938272,0,0)" xlink:href="#bm" id="C"/><g id="D"><use transform="matrix(0.04938271604938272,0,0,0.04938271604938272,0,0)" xlink:href="#aw"/><use transform="matrix(0.04938271604938272,0,0,0.04938271604938272,10.370370370370372,0)" xlink:href="#ax"/></g><g id="E"><use transform="matrix(0.04938271604938272,0,0,0.04938271604938272,0,0)" xlink:href="#ay"/><use transform="matrix(0.04938271604938272,0,0,0.04938271604938272,5.8765432098765435,0)" xlink:href="#az"/><use transform="matrix(0.04938271604938272,0,0,0.04938271604938272,16.691358024691358,0)" xlink:href="#aA"/><use transform="matrix(0.04938271604938272,0,0,0.04938271604938272,26.567901234567902,0)" xlink:href="#aB"/><use transform="matrix(0.04938271604938272,0,0,0.04938271604938272,33.48148148148148,0)" xlink:href="#aC"/><use transform="matrix(0.04938271604938272,0,0,0.04938271604938272,43.358024691358025,0)" xlink:href="#aD"/><use transform="matrix(0.04938271604938272,0,0,0.04938271604938272,54.17283950617284,0)" xlink:href="#aA"/><use transform="matrix(0.04938271604938272,0,0,0.04938271604938272,64.0493827160494,0)" xlink:href="#aE"/><use transform="matrix(0.04938271604938272,0,0,0.04938271604938272,74.8641975308642,0)" xlink:href="#aF"/><use transform="matrix(0.04938271604938272,0,0,0.04938271604938272,84.74074074074075,0)" xlink:href="#aG"/><use transform="matrix(0.04938271604938272,0,0,0.04938271604938272,95.55555555555556,0)" xlink:href="#ay"/><use transform="matrix(0.04938271604938272,0,0,0.04938271604938272,101.4320987654321,0)" xlink:href="#aA"/><use transform="matrix(0.04938271604938272,0,0,0.04938271604938272,111.30864197530865,0)" xlink:href="#aD"/><use transform="matrix(0.04938271604938272,0,0,0.04938271604938272,122.12345679012344,0)" xlink:href="#bl"/></g><g id="F"><use transform="matrix(0.04938271604938272,0,0,0.04938271604938272,0,0)" xlink:href="#aw"/><use transform="matrix(0.04938271604938272,0,0,0.04938271604938272,10.370370370370372,0)" xlink:href="#ax"/></g><g id="G"><use transform="matrix(0.04938271604938272,0,0,0.04938271604938272,0,0)" xlink:href="#ay"/><use transform="matrix(0.04938271604938272,0,0,0.04938271604938272,5.8765432098765435,0)" xlink:href="#az"/><use transform="matrix(0.04938271604938272,0,0,0.04938271604938272,16.691358024691358,0)" xlink:href="#aA"/><use transform="matrix(0.04938271604938272,0,0,0.04938271604938272,26.567901234567902,0)" xlink:href="#aB"/><use transform="matrix(0.04938271604938272,0,0,0.04938271604938272,33.48148148148148,0)" xlink:href="#aC"/><use transform="matrix(0.04938271604938272,0,0,0.04938271604938272,43.358024691358025,0)" xlink:href="#aD"/><use transform="matrix(0.04938271604938272,0,0,0.04938271604938272,54.17283950617284,0)" xlink:href="#aA"/><use transform="matrix(0.04938271604938272,0,0,0.04938271604938272,64.0493827160494,0)" xlink:href="#aE"/><use transform="matrix(0.04938271604938272,0,0,0.04938271604938272,74.8641975308642,0)" xlink:href="#aF"/><use transform="matrix(0.04938271604938272,0,0,0.04938271604938272,84.74074074074075,0)" xlink:href="#aG"/><use transform="matrix(0.04938271604938272,0,0,0.04938271604938272,95.55555555555556,0)" xlink:href="#ay"/><use transform="matrix(0.04938271604938272,0,0,0.04938271604938272,101.4320987654321,0)" xlink:href="#aA"/><use transform="matrix(0.04938271604938272,0,0,0.04938271604938272,111.30864197530865,0)" xlink:href="#aH"/><use transform="matrix(0.04938271604938272,0,0,0.04938271604938272,122.12345679012344,0)" xlink:href="#aE"/></g><path fill="#3a414a" d="M24 0v-261h32V0H24" id="bn"/><g id="H"><use transform="matrix(0.06172839506172839,0,0,0.06172839506172839,0,0)" xlink:href="#aq"/><use transform="matrix(0.06172839506172839,0,0,0.06172839506172839,15.987654320987653,0)" xlink:href="#an"/><use transform="matrix(0.06172839506172839,0,0,0.06172839506172839,28.333333333333332,0)" xlink:href="#bn"/><use transform="matrix(0.06172839506172839,0,0,0.06172839506172839,33.20987654320987,0)" xlink:href="#ao"/><use transform="matrix(0.06172839506172839,0,0,0.06172839506172839,45.55555555555555,0)" xlink:href="#au"/><use transform="matrix(0.06172839506172839,0,0,0.06172839506172839,51.72839506172839,0)" xlink:href="#be"/><use transform="matrix(0.06172839506172839,0,0,0.06172839506172839,56.60493827160494,0)" xlink:href="#bf"/><use transform="matrix(0.06172839506172839,0,0,0.06172839506172839,67.71604938271605,0)" xlink:href="#an"/></g><path fill="#3a414a" d="M30 0v-248h187v28H63v79h144v27H63v87h162V0H30" id="bo"/><path fill="#3a414a" d="M115-194c55 1 70 41 70 98S169 2 115 4C84 4 66-9 55-30l1 105H24l-1-265h31l2 30c10-21 28-34 59-34zm-8 174c40 0 45-34 45-75s-6-73-45-74c-42 0-51 32-51 76 0 43 10 73 51 73" id="bp"/><path fill="#3a414a" d="M100-194c62-1 85 37 85 99 1 63-27 99-86 99S16-35 15-95c0-66 28-99 85-99zM99-20c44 1 53-31 53-75 0-43-8-75-51-75s-53 32-53 75 10 74 51 75" id="bq"/><g id="I"><use transform="matrix(0.06172839506172839,0,0,0.06172839506172839,0,0)" xlink:href="#bo"/><use transform="matrix(0.06172839506172839,0,0,0.06172839506172839,14.814814814814813,0)" xlink:href="#bc"/><use transform="matrix(0.06172839506172839,0,0,0.06172839506172839,25.925925925925924,0)" xlink:href="#bp"/><use transform="matrix(0.06172839506172839,0,0,0.06172839506172839,38.2716049382716,0)" xlink:href="#bi"/><use transform="matrix(0.06172839506172839,0,0,0.06172839506172839,45.61728395061728,0)" xlink:href="#an"/><use transform="matrix(0.06172839506172839,0,0,0.06172839506172839,57.962962962962955,0)" xlink:href="#ag"/><use transform="matrix(0.06172839506172839,0,0,0.06172839506172839,69.07407407407406,0)" xlink:href="#ag"/><use transform="matrix(0.06172839506172839,0,0,0.06172839506172839,80.18518518518518,0)" xlink:href="#be"/><use transform="matrix(0.06172839506172839,0,0,0.06172839506172839,85.06172839506172,0)" xlink:href="#bq"/><use transform="matrix(0.06172839506172839,0,0,0.06172839506172839,97.4074074074074,0)" xlink:href="#ap"/></g><g id="J"><use transform="matrix(0.06172839506172839,0,0,0.06172839506172839,0,0)" xlink:href="#ai"/><use transform="matrix(0.06172839506172839,0,0,0.06172839506172839,14.814814814814813,0)" xlink:href="#at"/><use transform="matrix(0.06172839506172839,0,0,0.06172839506172839,25.925925925925924,0)" xlink:href="#au"/><use transform="matrix(0.06172839506172839,0,0,0.06172839506172839,32.098765432098766,0)" xlink:href="#be"/><use transform="matrix(0.06172839506172839,0,0,0.06172839506172839,36.97530864197531,0)" xlink:href="#bf"/><use transform="matrix(0.06172839506172839,0,0,0.06172839506172839,48.08641975308642,0)" xlink:href="#an"/><use transform="matrix(0.06172839506172839,0,0,0.06172839506172839,60.432098765432094,0)" xlink:href="#bg"/><use transform="matrix(0.06172839506172839,0,0,0.06172839506172839,72.77777777777777,0)" xlink:href="#ak"/><use transform="matrix(0.06172839506172839,0,0,0.06172839506172839,86.29629629629629,0)" xlink:href="#al"/><use transform="matrix(0.06172839506172839,0,0,0.06172839506172839,102.28395061728395,0)" xlink:href="#bg"/><use transform="matrix(0.06172839506172839,0,0,0.06172839506172839,114.62962962962963,0)" xlink:href="#aq"/><use transform="matrix(0.06172839506172839,0,0,0.06172839506172839,130.6172839506173,0)" xlink:href="#ah"/><use transform="matrix(0.06172839506172839,0,0,0.06172839506172839,146.60493827160494,0)" xlink:href="#ai"/><use transform="matrix(0.06172839506172839,0,0,0.06172839506172839,161.41975308641975,0)" xlink:href="#aQ"/><use transform="matrix(0.06172839506172839,0,0,0.06172839506172839,176.23456790123456,0)" xlink:href="#an"/><use transform="matrix(0.06172839506172839,0,0,0.06172839506172839,188.58024691358023,0)" xlink:href="#aR"/><use transform="matrix(0.06172839506172839,0,0,0.06172839506172839,200.9259259259259,0)" xlink:href="#ah"/><use transform="matrix(0.06172839506172839,0,0,0.06172839506172839,216.91358024691354,0)" xlink:href="#ai"/><use transform="matrix(0.06172839506172839,0,0,0.06172839506172839,231.72839506172835,0)" xlink:href="#bg"/><use transform="matrix(0.06172839506172839,0,0,0.06172839506172839,244.07407407407402,0)" xlink:href="#bj"/><use transform="matrix(0.06172839506172839,0,0,0.06172839506172839,262.53086419753083,0)" xlink:href="#ao"/><use transform="matrix(0.06172839506172839,0,0,0.06172839506172839,274.8765432098765,0)" xlink:href="#bc"/></g><g id="K"><use transform="matrix(0.06172839506172839,0,0,0.06172839506172839,0,0)" xlink:href="#af"/><use transform="matrix(0.06172839506172839,0,0,0.06172839506172839,6.172839506172839,0)" xlink:href="#ap"/><use transform="matrix(0.06172839506172839,0,0,0.06172839506172839,18.51851851851852,0)" xlink:href="#ao"/><use transform="matrix(0.06172839506172839,0,0,0.06172839506172839,30.864197530864196,0)" xlink:href="#at"/><use transform="matrix(0.06172839506172839,0,0,0.06172839506172839,41.9753086419753,0)" xlink:href="#au"/><use transform="matrix(0.06172839506172839,0,0,0.06172839506172839,48.148148148148145,0)" xlink:href="#be"/><use transform="matrix(0.06172839506172839,0,0,0.06172839506172839,53.02469135802469,0)" xlink:href="#bf"/><use transform="matrix(0.06172839506172839,0,0,0.06172839506172839,64.1358024691358,0)" xlink:href="#an"/><use transform="matrix(0.06172839506172839,0,0,0.06172839506172839,76.48148148148148,0)" xlink:href="#bg"/><use transform="matrix(0.06172839506172839,0,0,0.06172839506172839,88.82716049382717,0)" xlink:href="#ak"/><use transform="matrix(0.06172839506172839,0,0,0.06172839506172839,102.34567901234568,0)" xlink:href="#al"/><use transform="matrix(0.06172839506172839,0,0,0.06172839506172839,118.33333333333334,0)" xlink:href="#bg"/><use transform="matrix(0.06172839506172839,0,0,0.06172839506172839,130.679012345679,0)" xlink:href="#aq"/><use transform="matrix(0.06172839506172839,0,0,0.06172839506172839,146.66666666666666,0)" xlink:href="#ah"/><use transform="matrix(0.06172839506172839,0,0,0.06172839506172839,162.6543209876543,0)" xlink:href="#ai"/><use transform="matrix(0.06172839506172839,0,0,0.06172839506172839,177.4691358024691,0)" xlink:href="#aQ"/><use transform="matrix(0.06172839506172839,0,0,0.06172839506172839,192.28395061728392,0)" xlink:href="#an"/><use transform="matrix(0.06172839506172839,0,0,0.06172839506172839,204.6296296296296,0)" xlink:href="#aR"/><use transform="matrix(0.06172839506172839,0,0,0.06172839506172839,216.97530864197526,0)" xlink:href="#ah"/><use transform="matrix(0.06172839506172839,0,0,0.06172839506172839,232.9629629629629,0)" xlink:href="#ai"/><use transform="matrix(0.06172839506172839,0,0,0.06172839506172839,247.77777777777771,0)" xlink:href="#bg"/><use transform="matrix(0.06172839506172839,0,0,0.06172839506172839,260.1234567901234,0)" xlink:href="#bj"/><use transform="matrix(0.06172839506172839,0,0,0.06172839506172839,278.5802469135802,0)" xlink:href="#be"/><use transform="matrix(0.06172839506172839,0,0,0.06172839506172839,283.45679012345676,0)" xlink:href="#ap"/></g><g id="L"><use transform="matrix(0.06172839506172839,0,0,0.06172839506172839,0,0)" xlink:href="#ai"/><use transform="matrix(0.06172839506172839,0,0,0.06172839506172839,14.814814814814813,0)" xlink:href="#at"/><use transform="matrix(0.06172839506172839,0,0,0.06172839506172839,25.925925925925924,0)" xlink:href="#au"/><use transform="matrix(0.06172839506172839,0,0,0.06172839506172839,32.098765432098766,0)" xlink:href="#be"/><use transform="matrix(0.06172839506172839,0,0,0.06172839506172839,36.97530864197531,0)" xlink:href="#bf"/><use transform="matrix(0.06172839506172839,0,0,0.06172839506172839,48.08641975308642,0)" xlink:href="#an"/><use transform="matrix(0.06172839506172839,0,0,0.06172839506172839,60.432098765432094,0)" xlink:href="#bg"/><use transform="matrix(0.06172839506172839,0,0,0.06172839506172839,72.77777777777777,0)" xlink:href="#ak"/><use transform="matrix(0.06172839506172839,0,0,0.06172839506172839,86.29629629629629,0)" xlink:href="#al"/><use transform="matrix(0.06172839506172839,0,0,0.06172839506172839,102.28395061728395,0)" xlink:href="#bg"/><use transform="matrix(0.06172839506172839,0,0,0.06172839506172839,114.62962962962963,0)" xlink:href="#aq"/><use transform="matrix(0.06172839506172839,0,0,0.06172839506172839,130.6172839506173,0)" xlink:href="#ah"/><use transform="matrix(0.06172839506172839,0,0,0.06172839506172839,146.60493827160494,0)" xlink:href="#ai"/><use transform="matrix(0.06172839506172839,0,0,0.06172839506172839,161.41975308641975,0)" xlink:href="#aQ"/><use transform="matrix(0.06172839506172839,0,0,0.06172839506172839,176.23456790123456,0)" xlink:href="#an"/><use transform="matrix(0.06172839506172839,0,0,0.06172839506172839,188.58024691358023,0)" xlink:href="#aR"/><use transform="matrix(0.06172839506172839,0,0,0.06172839506172839,200.9259259259259,0)" xlink:href="#ah"/><use transform="matrix(0.06172839506172839,0,0,0.06172839506172839,216.91358024691354,0)" xlink:href="#ai"/><use transform="matrix(0.06172839506172839,0,0,0.06172839506172839,231.72839506172835,0)" xlink:href="#bg"/><use transform="matrix(0.06172839506172839,0,0,0.06172839506172839,244.07407407407402,0)" xlink:href="#bj"/><use transform="matrix(0.06172839506172839,0,0,0.06172839506172839,262.53086419753083,0)" xlink:href="#be"/><use transform="matrix(0.06172839506172839,0,0,0.06172839506172839,267.4074074074074,0)" xlink:href="#ar"/></g><path fill="#333" d="M230 0l2-204L168 0h-37L68-204 70 0H24v-248h70l56 185 57-185h69V0h-46" id="br"/><path fill="#333" d="M133-34C117-15 103 5 69 4 32 3 11-16 11-54c-1-60 55-63 116-61 1-26-3-47-28-47-18 1-26 9-28 27l-52-2c7-38 36-58 82-57s74 22 75 68l1 82c-1 14 12 18 25 15v27c-30 8-71 5-69-32zm-48 3c29 0 43-24 42-57-32 0-66-3-65 30 0 17 8 27 23 27" id="bs"/><path fill="#333" d="M144 0l-44-69L55 0H2l70-98-66-92h53l41 62 40-62h54l-67 91 71 99h-54" id="bt"/><g id="M"><use transform="matrix(0.04938271604938272,0,0,0.04938271604938272,0,0)" xlink:href="#br"/><use transform="matrix(0.04938271604938272,0,0,0.04938271604938272,14.765432098765434,0)" xlink:href="#bs"/><use transform="matrix(0.04938271604938272,0,0,0.04938271604938272,24.641975308641978,0)" xlink:href="#bt"/></g><path fill="#333" d="M25-224v-37h50v37H25zM25 0v-190h50V0H25" id="bu"/><path fill="#333" d="M88-194c31-1 46 15 58 34l-1-101h50l1 261h-48c-2-10 0-23-3-31C134-8 116 4 84 4 32 4 16-41 15-95c0-56 19-97 73-99zm17 164c33 0 40-30 41-66 1-37-9-64-41-64s-38 30-39 65c0 43 13 65 39 65" id="bv"/><g id="N"><use transform="matrix(0.04938271604938272,0,0,0.04938271604938272,0,0)" xlink:href="#br"/><use transform="matrix(0.04938271604938272,0,0,0.04938271604938272,14.765432098765434,0)" xlink:href="#bu"/><use transform="matrix(0.04938271604938272,0,0,0.04938271604938272,19.703703703703706,0)" xlink:href="#bv"/></g><path fill="#333" d="M135-194c87-1 58 113 63 194h-50c-7-57 23-157-34-157-59 0-34 97-39 157H25l-1-190h47c2 12-1 28 3 38 12-26 28-41 61-42" id="bw"/><g id="O"><use transform="matrix(0.04938271604938272,0,0,0.04938271604938272,0,0)" xlink:href="#br"/><use transform="matrix(0.04938271604938272,0,0,0.04938271604938272,14.765432098765434,0)" xlink:href="#bu"/><use transform="matrix(0.04938271604938272,0,0,0.04938271604938272,19.703703703703706,0)" xlink:href="#bw"/></g><g id="P"><use transform="matrix(0.06172839506172839,0,0,0.06172839506172839,0,0)" xlink:href="#aq"/><use transform="matrix(0.06172839506172839,0,0,0.06172839506172839,15.987654320987653,0)" xlink:href="#ah"/><use transform="matrix(0.06172839506172839,0,0,0.06172839506172839,31.975308641975307,0)" xlink:href="#ai"/></g><g id="Q"><use transform="matrix(0.06172839506172839,0,0,0.06172839506172839,0,0)" xlink:href="#aQ"/><use transform="matrix(0.06172839506172839,0,0,0.06172839506172839,14.814814814814813,0)" xlink:href="#an"/><use transform="matrix(0.06172839506172839,0,0,0.06172839506172839,27.160493827160494,0)" xlink:href="#aR"/></g><use transform="matrix(0.06172839506172839,0,0,0.06172839506172839,0,0)" xlink:href="#bd" id="R"/><path fill="#cc4e00" d="M117-194c89-4 53 116 60 194h-32v-121c0-31-8-49-39-48C34-167 62-67 57 0H25l-1-190h30c1 10-1 24 2 32 11-22 29-35 61-36" id="bx"/><path fill="#cc4e00" d="M115-194c55 1 70 41 70 98S169 2 115 4C84 4 66-9 55-30l1 105H24l-1-265h31l2 30c10-21 28-34 59-34zm-8 174c40 0 45-34 45-75s-6-73-45-74c-42 0-51 32-51 76 0 43 10 73 51 73" id="by"/><path fill="#cc4e00" d="M96-169c-40 0-48 33-48 73s9 75 48 75c24 0 41-14 43-38l32 2c-6 37-31 61-74 61-59 0-76-41-82-99-10-93 101-131 147-64 4 7 5 14 7 22l-32 3c-4-21-16-35-41-35" id="bz"/><g id="S"><use transform="matrix(0.06172839506172839,0,0,0.06172839506172839,0,0)" xlink:href="#aU"/><use transform="matrix(0.06172839506172839,0,0,0.06172839506172839,6.172839506172839,0)" xlink:href="#aV"/><use transform="matrix(0.06172839506172839,0,0,0.06172839506172839,18.51851851851852,0)" xlink:href="#aW"/><use transform="matrix(0.06172839506172839,0,0,0.06172839506172839,30.864197530864196,0)" xlink:href="#aY"/><use transform="matrix(0.06172839506172839,0,0,0.06172839506172839,38.20987654320987,0)" xlink:href="#bx"/><use transform="matrix(0.06172839506172839,0,0,0.06172839506172839,50.55555555555555,0)" xlink:href="#aX"/><use transform="matrix(0.06172839506172839,0,0,0.06172839506172839,62.90123456790123,0)" xlink:href="#by"/><use transform="matrix(0.06172839506172839,0,0,0.06172839506172839,75.24691358024691,0)" xlink:href="#bz"/><use transform="matrix(0.06172839506172839,0,0,0.06172839506172839,86.35802469135803,0)" xlink:href="#bx"/><use transform="matrix(0.06172839506172839,0,0,0.06172839506172839,98.70370370370371,0)" xlink:href="#aU"/></g><g id="T"><use transform="matrix(0.04938271604938272,0,0,0.04938271604938272,0,0)" xlink:href="#ay"/><use transform="matrix(0.04938271604938272,0,0,0.04938271604938272,5.8765432098765435,0)" xlink:href="#az"/><use transform="matrix(0.04938271604938272,0,0,0.04938271604938272,16.691358024691358,0)" xlink:href="#aA"/><use transform="matrix(0.04938271604938272,0,0,0.04938271604938272,26.567901234567902,0)" xlink:href="#aB"/><use transform="matrix(0.04938271604938272,0,0,0.04938271604938272,33.48148148148148,0)" xlink:href="#aC"/><use transform="matrix(0.04938271604938272,0,0,0.04938271604938272,43.358024691358025,0)" xlink:href="#aD"/><use transform="matrix(0.04938271604938272,0,0,0.04938271604938272,54.17283950617284,0)" xlink:href="#aA"/><use transform="matrix(0.04938271604938272,0,0,0.04938271604938272,64.0493827160494,0)" xlink:href="#aE"/><use transform="matrix(0.04938271604938272,0,0,0.04938271604938272,74.8641975308642,0)" xlink:href="#aF"/><use transform="matrix(0.04938271604938272,0,0,0.04938271604938272,84.74074074074075,0)" xlink:href="#aG"/><use transform="matrix(0.04938271604938272,0,0,0.04938271604938272,95.55555555555556,0)" xlink:href="#ay"/><use transform="matrix(0.04938271604938272,0,0,0.04938271604938272,101.4320987654321,0)" xlink:href="#aA"/><use transform="matrix(0.04938271604938272,0,0,0.04938271604938272,111.30864197530865,0)" xlink:href="#aD"/><use transform="matrix(0.04938271604938272,0,0,0.04938271604938272,122.12345679012344,0)" xlink:href="#bl"/></g><g id="U"><use transform="matrix(0.06172839506172839,0,0,0.06172839506172839,0,0)" xlink:href="#ai"/><use transform="matrix(0.06172839506172839,0,0,0.06172839506172839,14.814814814814813,0)" xlink:href="#at"/><use transform="matrix(0.06172839506172839,0,0,0.06172839506172839,25.925925925925924,0)" xlink:href="#au"/><use transform="matrix(0.06172839506172839,0,0,0.06172839506172839,32.098765432098766,0)" xlink:href="#be"/><use transform="matrix(0.06172839506172839,0,0,0.06172839506172839,36.97530864197531,0)" xlink:href="#bf"/><use transform="matrix(0.06172839506172839,0,0,0.06172839506172839,48.08641975308642,0)" xlink:href="#an"/><use transform="matrix(0.06172839506172839,0,0,0.06172839506172839,60.432098765432094,0)" xlink:href="#bg"/><use transform="matrix(0.06172839506172839,0,0,0.06172839506172839,72.77777777777777,0)" xlink:href="#ak"/><use transform="matrix(0.06172839506172839,0,0,0.06172839506172839,86.29629629629629,0)" xlink:href="#al"/><use transform="matrix(0.06172839506172839,0,0,0.06172839506172839,102.28395061728395,0)" xlink:href="#ah"/><use transform="matrix(0.06172839506172839,0,0,0.06172839506172839,118.27160493827161,0)" xlink:href="#ai"/></g><path fill="#333" d="M199 0l-22-63H83L61 0H9l90-248h61L250 0h-51zm-33-102l-36-108c-10 38-24 72-36 108h72" id="bA"/><g id="V"><use transform="matrix(0.04938271604938272,0,0,0.04938271604938272,0,0)" xlink:href="#aN"/><use transform="matrix(0.04938271604938272,0,0,0.04938271604938272,12.790123456790125,0)" xlink:href="#bA"/></g><g id="W"><use transform="matrix(0.06172839506172839,0,0,0.06172839506172839,0,0)" xlink:href="#ah"/><use transform="matrix(0.06172839506172839,0,0,0.06172839506172839,15.987654320987653,0)" xlink:href="#bq"/><use transform="matrix(0.06172839506172839,0,0,0.06172839506172839,28.333333333333332,0)" xlink:href="#au"/></g><path fill="#3a414a" d="M115-194c53 0 69 39 70 98 0 66-23 100-70 100C84 3 66-7 56-30L54 0H23l1-261h32v101c10-23 28-34 59-34zm-8 174c40 0 45-34 45-75 0-40-5-75-45-74-42 0-51 32-51 76 0 43 10 73 51 73" id="bB"/><g id="X"><use transform="matrix(0.06172839506172839,0,0,0.06172839506172839,0,0)" xlink:href="#aQ"/><use transform="matrix(0.06172839506172839,0,0,0.06172839506172839,14.814814814814813,0)" xlink:href="#an"/><use transform="matrix(0.06172839506172839,0,0,0.06172839506172839,27.160493827160494,0)" xlink:href="#au"/><use transform="matrix(0.06172839506172839,0,0,0.06172839506172839,33.333333333333336,0)" xlink:href="#au"/><use transform="matrix(0.06172839506172839,0,0,0.06172839506172839,39.50617283950618,0)" xlink:href="#ao"/><use transform="matrix(0.06172839506172839,0,0,0.06172839506172839,51.851851851851855,0)" xlink:href="#bB"/><use transform="matrix(0.06172839506172839,0,0,0.06172839506172839,64.19753086419753,0)" xlink:href="#bn"/><use transform="matrix(0.06172839506172839,0,0,0.06172839506172839,69.07407407407408,0)" xlink:href="#an"/></g><g id="Y"><use transform="matrix(0.06172839506172839,0,0,0.06172839506172839,0,0)" xlink:href="#ai"/><use transform="matrix(0.06172839506172839,0,0,0.06172839506172839,14.814814814814813,0)" xlink:href="#at"/><use transform="matrix(0.06172839506172839,0,0,0.06172839506172839,25.925925925925924,0)" xlink:href="#au"/><use transform="matrix(0.06172839506172839,0,0,0.06172839506172839,32.098765432098766,0)" xlink:href="#be"/><use transform="matrix(0.06172839506172839,0,0,0.06172839506172839,36.97530864197531,0)" xlink:href="#bf"/><use transform="matrix(0.06172839506172839,0,0,0.06172839506172839,48.08641975308642,0)" xlink:href="#an"/><use transform="matrix(0.06172839506172839,0,0,0.06172839506172839,60.432098765432094,0)" xlink:href="#bg"/><use transform="matrix(0.06172839506172839,0,0,0.06172839506172839,72.77777777777777,0)" xlink:href="#ak"/><use transform="matrix(0.06172839506172839,0,0,0.06172839506172839,86.29629629629629,0)" xlink:href="#al"/><use transform="matrix(0.06172839506172839,0,0,0.06172839506172839,102.28395061728395,0)" xlink:href="#ah"/><use transform="matrix(0.06172839506172839,0,0,0.06172839506172839,118.27160493827161,0)" xlink:href="#ai"/><use transform="matrix(0.06172839506172839,0,0,0.06172839506172839,133.08641975308643,0)" xlink:href="#bg"/><use transform="matrix(0.06172839506172839,0,0,0.06172839506172839,145.4320987654321,0)" xlink:href="#aq"/><use transform="matrix(0.06172839506172839,0,0,0.06172839506172839,161.41975308641975,0)" xlink:href="#an"/><use transform="matrix(0.06172839506172839,0,0,0.06172839506172839,173.76543209876542,0)" xlink:href="#ar"/><use transform="matrix(0.06172839506172839,0,0,0.06172839506172839,186.1111111111111,0)" xlink:href="#ah"/><use transform="matrix(0.06172839506172839,0,0,0.06172839506172839,202.09876543209873,0)" xlink:href="#ai"/></g><g id="Z"><use transform="matrix(0.04938271604938272,0,0,0.04938271604938272,0,0)" xlink:href="#ay"/><use transform="matrix(0.04938271604938272,0,0,0.04938271604938272,5.8765432098765435,0)" xlink:href="#az"/><use transform="matrix(0.04938271604938272,0,0,0.04938271604938272,16.691358024691358,0)" xlink:href="#aA"/><use transform="matrix(0.04938271604938272,0,0,0.04938271604938272,26.567901234567902,0)" xlink:href="#aB"/><use transform="matrix(0.04938271604938272,0,0,0.04938271604938272,33.48148148148148,0)" xlink:href="#aC"/><use transform="matrix(0.04938271604938272,0,0,0.04938271604938272,43.358024691358025,0)" xlink:href="#aD"/><use transform="matrix(0.04938271604938272,0,0,0.04938271604938272,54.17283950617284,0)" xlink:href="#aA"/><use transform="matrix(0.04938271604938272,0,0,0.04938271604938272,64.0493827160494,0)" xlink:href="#aE"/><use transform="matrix(0.04938271604938272,0,0,0.04938271604938272,74.8641975308642,0)" xlink:href="#aF"/><use transform="matrix(0.04938271604938272,0,0,0.04938271604938272,84.74074074074075,0)" xlink:href="#aG"/><use transform="matrix(0.04938271604938272,0,0,0.04938271604938272,95.55555555555556,0)" xlink:href="#ay"/><use transform="matrix(0.04938271604938272,0,0,0.04938271604938272,101.4320987654321,0)" xlink:href="#aA"/><use transform="matrix(0.04938271604938272,0,0,0.04938271604938272,111.30864197530865,0)" xlink:href="#aH"/><use transform="matrix(0.04938271604938272,0,0,0.04938271604938272,122.12345679012344,0)" xlink:href="#aE"/></g><g id="aa"><use transform="matrix(0.06172839506172839,0,0,0.06172839506172839,0,0)" xlink:href="#af"/><use transform="matrix(0.06172839506172839,0,0,0.06172839506172839,6.172839506172839,0)" xlink:href="#ap"/><use transform="matrix(0.06172839506172839,0,0,0.06172839506172839,18.51851851851852,0)" xlink:href="#ao"/><use transform="matrix(0.06172839506172839,0,0,0.06172839506172839,30.864197530864196,0)" xlink:href="#at"/><use transform="matrix(0.06172839506172839,0,0,0.06172839506172839,41.9753086419753,0)" xlink:href="#au"/><use transform="matrix(0.06172839506172839,0,0,0.06172839506172839,48.148148148148145,0)" xlink:href="#be"/><use transform="matrix(0.06172839506172839,0,0,0.06172839506172839,53.02469135802469,0)" xlink:href="#bf"/><use transform="matrix(0.06172839506172839,0,0,0.06172839506172839,64.1358024691358,0)" xlink:href="#an"/><use transform="matrix(0.06172839506172839,0,0,0.06172839506172839,76.48148148148148,0)" xlink:href="#bg"/><use transform="matrix(0.06172839506172839,0,0,0.06172839506172839,88.82716049382717,0)" xlink:href="#ak"/><use transform="matrix(0.06172839506172839,0,0,0.06172839506172839,102.34567901234568,0)" xlink:href="#al"/><use transform="matrix(0.06172839506172839,0,0,0.06172839506172839,118.33333333333334,0)" xlink:href="#ah"/><use transform="matrix(0.06172839506172839,0,0,0.06172839506172839,134.320987654321,0)" xlink:href="#ai"/></g><g id="ab"><use transform="matrix(0.06172839506172839,0,0,0.06172839506172839,0,0)" xlink:href="#af"/><use transform="matrix(0.06172839506172839,0,0,0.06172839506172839,6.172839506172839,0)" xlink:href="#ap"/><use transform="matrix(0.06172839506172839,0,0,0.06172839506172839,18.51851851851852,0)" xlink:href="#ao"/><use transform="matrix(0.06172839506172839,0,0,0.06172839506172839,30.864197530864196,0)" xlink:href="#at"/><use transform="matrix(0.06172839506172839,0,0,0.06172839506172839,41.9753086419753,0)" xlink:href="#au"/><use transform="matrix(0.06172839506172839,0,0,0.06172839506172839,48.148148148148145,0)" xlink:href="#be"/><use transform="matrix(0.06172839506172839,0,0,0.06172839506172839,53.02469135802469,0)" xlink:href="#bf"/><use transform="matrix(0.06172839506172839,0,0,0.06172839506172839,64.1358024691358,0)" xlink:href="#an"/><use transform="matrix(0.06172839506172839,0,0,0.06172839506172839,76.48148148148148,0)" xlink:href="#bg"/><use transform="matrix(0.06172839506172839,0,0,0.06172839506172839,88.82716049382717,0)" xlink:href="#ak"/><use transform="matrix(0.06172839506172839,0,0,0.06172839506172839,102.34567901234568,0)" xlink:href="#al"/><use transform="matrix(0.06172839506172839,0,0,0.06172839506172839,118.33333333333334,0)" xlink:href="#ah"/><use transform="matrix(0.06172839506172839,0,0,0.06172839506172839,134.320987654321,0)" xlink:href="#ai"/><use transform="matrix(0.06172839506172839,0,0,0.06172839506172839,149.1358024691358,0)" xlink:href="#bg"/><use transform="matrix(0.06172839506172839,0,0,0.06172839506172839,161.48148148148147,0)" xlink:href="#aq"/><use transform="matrix(0.06172839506172839,0,0,0.06172839506172839,177.4691358024691,0)" xlink:href="#an"/><use transform="matrix(0.06172839506172839,0,0,0.06172839506172839,189.81481481481478,0)" xlink:href="#ar"/><use transform="matrix(0.06172839506172839,0,0,0.06172839506172839,202.16049382716045,0)" xlink:href="#ah"/><use transform="matrix(0.06172839506172839,0,0,0.06172839506172839,218.1481481481481,0)" xlink:href="#ai"/></g><g id="ac"><use transform="matrix(0.06172839506172839,0,0,0.06172839506172839,0,0)" xlink:href="#al"/><use transform="matrix(0.06172839506172839,0,0,0.06172839506172839,15.987654320987653,0)" xlink:href="#aL"/><use transform="matrix(0.06172839506172839,0,0,0.06172839506172839,30.80246913580247,0)" xlink:href="#aM"/><use transform="matrix(0.06172839506172839,0,0,0.06172839506172839,48.08641975308642,0)" xlink:href="#bg"/><use transform="matrix(0.06172839506172839,0,0,0.06172839506172839,60.432098765432094,0)" xlink:href="#aq"/><use transform="matrix(0.06172839506172839,0,0,0.06172839506172839,76.41975308641975,0)" xlink:href="#an"/><use transform="matrix(0.06172839506172839,0,0,0.06172839506172839,88.76543209876543,0)" xlink:href="#bp"/><use transform="matrix(0.06172839506172839,0,0,0.06172839506172839,101.11111111111111,0)" xlink:href="#bi"/><use transform="matrix(0.06172839506172839,0,0,0.06172839506172839,108.4567901234568,0)" xlink:href="#an"/><use transform="matrix(0.06172839506172839,0,0,0.06172839506172839,120.80246913580248,0)" xlink:href="#ag"/><use transform="matrix(0.06172839506172839,0,0,0.06172839506172839,131.9135802469136,0)" xlink:href="#ag"/><use transform="matrix(0.06172839506172839,0,0,0.06172839506172839,143.0246913580247,0)" xlink:href="#an"/><use transform="matrix(0.06172839506172839,0,0,0.06172839506172839,155.37037037037038,0)" xlink:href="#ar"/><use transform="matrix(0.06172839506172839,0,0,0.06172839506172839,167.71604938271605,0)" xlink:href="#bg"/><use transform="matrix(0.06172839506172839,0,0,0.06172839506172839,180.06172839506172,0)" xlink:href="#ak"/><use transform="matrix(0.06172839506172839,0,0,0.06172839506172839,193.58024691358023,0)" xlink:href="#al"/><use transform="matrix(0.06172839506172839,0,0,0.06172839506172839,209.56790123456787,0)" xlink:href="#ah"/><use transform="matrix(0.06172839506172839,0,0,0.06172839506172839,225.55555555555551,0)" xlink:href="#ai"/></g><g id="ad"><use transform="matrix(0.06172839506172839,0,0,0.06172839506172839,0,0)" xlink:href="#al"/><use transform="matrix(0.06172839506172839,0,0,0.06172839506172839,15.987654320987653,0)" xlink:href="#aL"/><use transform="matrix(0.06172839506172839,0,0,0.06172839506172839,30.80246913580247,0)" xlink:href="#aM"/><use transform="matrix(0.06172839506172839,0,0,0.06172839506172839,48.08641975308642,0)" xlink:href="#bg"/><use transform="matrix(0.06172839506172839,0,0,0.06172839506172839,60.432098765432094,0)" xlink:href="#bh"/><use transform="matrix(0.06172839506172839,0,0,0.06172839506172839,76.41975308641975,0)" xlink:href="#ap"/><use transform="matrix(0.06172839506172839,0,0,0.06172839506172839,88.76543209876543,0)" xlink:href="#ar"/><use transform="matrix(0.06172839506172839,0,0,0.06172839506172839,101.11111111111111,0)" xlink:href="#an"/><use transform="matrix(0.06172839506172839,0,0,0.06172839506172839,113.4567901234568,0)" xlink:href="#au"/><use transform="matrix(0.06172839506172839,0,0,0.06172839506172839,119.62962962962963,0)" xlink:href="#an"/><use transform="matrix(0.06172839506172839,0,0,0.06172839506172839,131.97530864197532,0)" xlink:href="#bi"/><use transform="matrix(0.06172839506172839,0,0,0.06172839506172839,139.320987654321,0)" xlink:href="#bj"/><use transform="matrix(0.06172839506172839,0,0,0.06172839506172839,157.77777777777777,0)" xlink:href="#be"/><use transform="matrix(0.06172839506172839,0,0,0.06172839506172839,162.6543209876543,0)" xlink:href="#ap"/><use transform="matrix(0.06172839506172839,0,0,0.06172839506172839,174.99999999999997,0)" xlink:href="#an"/><use transform="matrix(0.06172839506172839,0,0,0.06172839506172839,187.34567901234564,0)" xlink:href="#ar"/><use transform="matrix(0.06172839506172839,0,0,0.06172839506172839,199.6913580246913,0)" xlink:href="#bg"/><use transform="matrix(0.06172839506172839,0,0,0.06172839506172839,212.03703703703698,0)" xlink:href="#ak"/><use transform="matrix(0.06172839506172839,0,0,0.06172839506172839,225.5555555555555,0)" xlink:href="#al"/><use transform="matrix(0.06172839506172839,0,0,0.06172839506172839,241.54320987654313,0)" xlink:href="#ah"/><use transform="matrix(0.06172839506172839,0,0,0.06172839506172839,257.5308641975308,0)" xlink:href="#ai"/></g><g id="ae"><use transform="matrix(0.06172839506172839,0,0,0.06172839506172839,0,0)" xlink:href="#al"/><use transform="matrix(0.06172839506172839,0,0,0.06172839506172839,15.987654320987653,0)" xlink:href="#aL"/><use transform="matrix(0.06172839506172839,0,0,0.06172839506172839,30.80246913580247,0)" xlink:href="#aM"/><use transform="matrix(0.06172839506172839,0,0,0.06172839506172839,48.08641975308642,0)" xlink:href="#bg"/><use transform="matrix(0.06172839506172839,0,0,0.06172839506172839,60.432098765432094,0)" xlink:href="#ai"/><use transform="matrix(0.06172839506172839,0,0,0.06172839506172839,75.24691358024691,0)" xlink:href="#at"/><use transform="matrix(0.06172839506172839,0,0,0.06172839506172839,86.35802469135803,0)" xlink:href="#au"/><use transform="matrix(0.06172839506172839,0,0,0.06172839506172839,92.53086419753086,0)" xlink:href="#be"/><use transform="matrix(0.06172839506172839,0,0,0.06172839506172839,97.4074074074074,0)" xlink:href="#bf"/><use transform="matrix(0.06172839506172839,0,0,0.06172839506172839,108.51851851851852,0)" xlink:href="#an"/><use transform="matrix(0.06172839506172839,0,0,0.06172839506172839,120.8641975308642,0)" xlink:href="#bg"/><use transform="matrix(0.06172839506172839,0,0,0.06172839506172839,133.20987654320987,0)" xlink:href="#ak"/><use transform="matrix(0.06172839506172839,0,0,0.06172839506172839,146.72839506172838,0)" xlink:href="#al"/><use transform="matrix(0.06172839506172839,0,0,0.06172839506172839,162.71604938271602,0)" xlink:href="#ah"/><use transform="matrix(0.06172839506172839,0,0,0.06172839506172839,178.70370370370367,0)" xlink:href="#ai"/></g></defs></g></svg>